<svg width="201" height="226" viewBox="0 0 201 226" fill="none" xmlns="http://www.w3.org/2000/svg">
<g filter="url(#filter0_d_60_1792)">
<rect x="18" y="16" width="165" height="190" rx="20" fill="white"/>
<path d="M33.4668 153.123C32.6966 153.123 32.0609 152.945 31.5596 152.59C31.0583 152.234 30.7689 151.76 30.6914 151.168H31.6006C31.6826 151.533 31.8854 151.824 32.209 152.043C32.5371 152.257 32.9564 152.364 33.4668 152.364C34.0182 152.364 34.4535 152.241 34.7725 151.995C35.0915 151.749 35.251 151.421 35.251 151.011C35.251 150.131 34.6471 149.691 33.4395 149.691H32.3389V148.946H33.4395C33.9453 148.946 34.3327 148.841 34.6016 148.632C34.875 148.422 35.0117 148.124 35.0117 147.736C35.0117 147.376 34.8796 147.087 34.6152 146.868C34.3509 146.649 33.9749 146.54 33.4873 146.54C32.9997 146.54 32.5986 146.649 32.2842 146.868C31.9743 147.082 31.7852 147.369 31.7168 147.729H30.835C30.9215 147.142 31.1973 146.67 31.6621 146.314C32.1315 145.959 32.7376 145.781 33.4805 145.781C34.2415 145.781 34.834 145.952 35.2578 146.294C35.6862 146.636 35.9004 147.096 35.9004 147.675C35.9004 148.058 35.7796 148.395 35.5381 148.687C35.3011 148.978 34.9935 149.165 34.6152 149.247V149.295C35.0892 149.382 35.4629 149.571 35.7363 149.862C36.0098 150.149 36.1465 150.516 36.1465 150.963C36.1465 151.624 35.9004 152.15 35.4082 152.542C34.9206 152.929 34.2734 153.123 33.4668 153.123ZM39.7764 152.337C40.4007 152.337 40.9271 152.143 41.3555 151.756C41.7839 151.368 41.998 150.892 41.998 150.327V149.541L39.8926 149.685C39.332 149.721 38.9014 149.858 38.6006 150.095C38.2998 150.327 38.1494 150.639 38.1494 151.031C38.1494 151.419 38.2998 151.733 38.6006 151.975C38.9014 152.216 39.2933 152.337 39.7764 152.337ZM39.5918 153.116C38.89 153.116 38.3203 152.925 37.8828 152.542C37.4499 152.155 37.2334 151.651 37.2334 151.031C37.2334 150.421 37.4521 149.938 37.8896 149.582C38.3317 149.227 38.9629 149.021 39.7832 148.967L41.998 148.83V148.215C41.998 147.7 41.8431 147.299 41.5332 147.012C41.2233 146.72 40.7926 146.574 40.2412 146.574C39.7217 146.574 39.2979 146.695 38.9697 146.937C38.6462 147.178 38.4456 147.515 38.3682 147.948H37.4932C37.5433 147.301 37.8167 146.777 38.3135 146.376C38.8148 145.975 39.4642 145.774 40.2617 145.774C41.0729 145.774 41.7155 145.986 42.1895 146.41C42.6634 146.834 42.9004 147.408 42.9004 148.133V153H42.0391V151.646H42.0186C41.8226 152.089 41.5013 152.444 41.0547 152.713C40.6081 152.982 40.1204 153.116 39.5918 153.116ZM54.4121 154.88H53.5645V153H44.5479V145.891H45.4434V152.248H48.458V145.891H49.3535V152.248H52.3682V145.891H53.2705V152.248H54.4121V154.88ZM56.3672 153H55.4717V145.891H56.3672V151.605H56.415L60.373 145.891H61.2686V153H60.373V147.285H60.332L56.3672 153ZM68.1113 145.891V146.643H65.6914V153H64.7959V146.643H62.376V145.891H68.1113ZM71.0986 152.337C71.723 152.337 72.2493 152.143 72.6777 151.756C73.1061 151.368 73.3203 150.892 73.3203 150.327V149.541L71.2148 149.685C70.6543 149.721 70.2236 149.858 69.9229 150.095C69.6221 150.327 69.4717 150.639 69.4717 151.031C69.4717 151.419 69.6221 151.733 69.9229 151.975C70.2236 152.216 70.6156 152.337 71.0986 152.337ZM70.9141 153.116C70.2122 153.116 69.6426 152.925 69.2051 152.542C68.7721 152.155 68.5557 151.651 68.5557 151.031C68.5557 150.421 68.7744 149.938 69.2119 149.582C69.654 149.227 70.2852 149.021 71.1055 148.967L73.3203 148.83V148.215C73.3203 147.7 73.1654 147.299 72.8555 147.012C72.5456 146.72 72.1149 146.574 71.5635 146.574C71.0439 146.574 70.6201 146.695 70.292 146.937C69.9684 147.178 69.7679 147.515 69.6904 147.948H68.8154C68.8656 147.301 69.139 146.777 69.6357 146.376C70.137 145.975 70.7865 145.774 71.584 145.774C72.3952 145.774 73.0378 145.986 73.5117 146.41C73.9857 146.834 74.2227 147.408 74.2227 148.133V153H73.3613V151.646H73.3408C73.1449 152.089 72.8236 152.444 72.377 152.713C71.9303 152.982 71.4427 153.116 70.9141 153.116ZM83.9844 152.125C83.3919 152.786 82.6081 153.116 81.6328 153.116C80.6576 153.116 79.8737 152.786 79.2812 152.125C78.6888 151.46 78.3926 150.566 78.3926 149.445C78.3926 148.324 78.6888 147.433 79.2812 146.772C79.8783 146.107 80.6621 145.774 81.6328 145.774C82.6081 145.774 83.3919 146.107 83.9844 146.772C84.5768 147.433 84.873 148.324 84.873 149.445C84.873 150.566 84.5768 151.46 83.9844 152.125ZM79.9443 151.551C80.3636 152.061 80.9264 152.316 81.6328 152.316C82.3392 152.316 82.902 152.061 83.3213 151.551C83.7451 151.04 83.957 150.339 83.957 149.445C83.957 148.552 83.7451 147.85 83.3213 147.34C82.902 146.829 82.3392 146.574 81.6328 146.574C80.9264 146.574 80.3636 146.829 79.9443 147.34C79.5251 147.85 79.3154 148.552 79.3154 149.445C79.3154 150.339 79.5251 151.04 79.9443 151.551ZM91.0527 145.891V146.643H88.6328V153H87.7373V146.643H85.3174V145.891H91.0527ZM99.8438 153V149.691H95.9336V153H95.0381V145.891H95.9336V148.939H99.8438V145.891H100.739V153H99.8438ZM105.251 146.567C104.618 146.567 104.096 146.788 103.686 147.23C103.28 147.668 103.059 148.24 103.022 148.946H107.411C107.402 148.24 107.199 147.668 106.803 147.23C106.406 146.788 105.889 146.567 105.251 146.567ZM107.356 150.983H108.252C108.143 151.608 107.819 152.12 107.281 152.521C106.748 152.918 106.094 153.116 105.319 153.116C104.321 153.116 103.533 152.79 102.954 152.139C102.375 151.482 102.086 150.591 102.086 149.466C102.086 148.358 102.375 147.467 102.954 146.793C103.533 146.114 104.303 145.774 105.265 145.774C106.203 145.774 106.951 146.093 107.507 146.731C108.063 147.369 108.341 148.219 108.341 149.281V149.664H103.016V149.719C103.016 150.521 103.225 151.157 103.645 151.626C104.064 152.091 104.629 152.323 105.34 152.323C105.864 152.323 106.306 152.2 106.666 151.954C107.026 151.708 107.256 151.384 107.356 150.983ZM115.443 148.003H114.548C114.425 147.584 114.188 147.242 113.837 146.978C113.491 146.709 113.058 146.574 112.538 146.574C111.845 146.574 111.292 146.836 110.877 147.36C110.462 147.88 110.255 148.575 110.255 149.445C110.255 150.325 110.462 151.024 110.877 151.544C111.296 152.059 111.854 152.316 112.552 152.316C113.058 152.316 113.484 152.196 113.83 151.954C114.181 151.708 114.418 151.371 114.541 150.942H115.443C115.316 151.59 114.99 152.114 114.466 152.515C113.942 152.916 113.301 153.116 112.545 153.116C111.57 153.116 110.79 152.786 110.207 152.125C109.624 151.464 109.332 150.571 109.332 149.445C109.332 148.333 109.624 147.445 110.207 146.779C110.79 146.109 111.567 145.774 112.538 145.774C113.313 145.774 113.958 145.986 114.473 146.41C114.992 146.834 115.316 147.365 115.443 148.003ZM121.944 153H121.049V149.787H120.967C120.507 150.206 119.898 150.416 119.142 150.416C118.308 150.416 117.665 150.186 117.214 149.726C116.763 149.265 116.537 148.646 116.537 147.866V145.891H117.433V147.853C117.433 148.395 117.581 148.826 117.877 149.145C118.178 149.459 118.606 149.616 119.162 149.616C119.964 149.616 120.593 149.359 121.049 148.844V145.891H121.944V153ZM125.937 152.337C126.561 152.337 127.087 152.143 127.516 151.756C127.944 151.368 128.158 150.892 128.158 150.327V149.541L126.053 149.685C125.492 149.721 125.062 149.858 124.761 150.095C124.46 150.327 124.31 150.639 124.31 151.031C124.31 151.419 124.46 151.733 124.761 151.975C125.062 152.216 125.453 152.337 125.937 152.337ZM125.752 153.116C125.05 153.116 124.48 152.925 124.043 152.542C123.61 152.155 123.394 151.651 123.394 151.031C123.394 150.421 123.612 149.938 124.05 149.582C124.492 149.227 125.123 149.021 125.943 148.967L128.158 148.83V148.215C128.158 147.7 128.003 147.299 127.693 147.012C127.383 146.72 126.953 146.574 126.401 146.574C125.882 146.574 125.458 146.695 125.13 146.937C124.806 147.178 124.606 147.515 124.528 147.948H123.653C123.703 147.301 123.977 146.777 124.474 146.376C124.975 145.975 125.624 145.774 126.422 145.774C127.233 145.774 127.876 145.986 128.35 146.41C128.824 146.834 129.061 147.408 129.061 148.133V153H128.199V151.646H128.179C127.983 152.089 127.661 152.444 127.215 152.713C126.768 152.982 126.281 153.116 125.752 153.116ZM136.471 148.003H135.575C135.452 147.584 135.215 147.242 134.864 146.978C134.518 146.709 134.085 146.574 133.565 146.574C132.873 146.574 132.319 146.836 131.904 147.36C131.49 147.88 131.282 148.575 131.282 149.445C131.282 150.325 131.49 151.024 131.904 151.544C132.324 152.059 132.882 152.316 133.579 152.316C134.085 152.316 134.511 152.196 134.857 151.954C135.208 151.708 135.445 151.371 135.568 150.942H136.471C136.343 151.59 136.017 152.114 135.493 152.515C134.969 152.916 134.329 153.116 133.572 153.116C132.597 153.116 131.818 152.786 131.234 152.125C130.651 151.464 130.359 150.571 130.359 149.445C130.359 148.333 130.651 147.445 131.234 146.779C131.818 146.109 132.595 145.774 133.565 145.774C134.34 145.774 134.985 145.986 135.5 146.41C136.02 146.834 136.343 147.365 136.471 148.003ZM142.691 145.891V146.643H140.271V153H139.376V146.643H136.956V145.891H142.691ZM148.611 153V149.691H144.701V153H143.806V145.891H144.701V148.939H148.611V145.891H149.507V153H148.611ZM156.445 152.125C155.853 152.786 155.069 153.116 154.094 153.116C153.118 153.116 152.335 152.786 151.742 152.125C151.15 151.46 150.854 150.566 150.854 149.445C150.854 148.324 151.15 147.433 151.742 146.772C152.339 146.107 153.123 145.774 154.094 145.774C155.069 145.774 155.853 146.107 156.445 146.772C157.038 147.433 157.334 148.324 157.334 149.445C157.334 150.566 157.038 151.46 156.445 152.125ZM152.405 151.551C152.825 152.061 153.387 152.316 154.094 152.316C154.8 152.316 155.363 152.061 155.782 151.551C156.206 151.04 156.418 150.339 156.418 149.445C156.418 148.552 156.206 147.85 155.782 147.34C155.363 146.829 154.8 146.574 154.094 146.574C153.387 146.574 152.825 146.829 152.405 147.34C151.986 147.85 151.776 148.552 151.776 149.445C151.776 150.339 151.986 151.04 152.405 151.551ZM163.192 146.643H159.562V153H158.667V145.891H163.192V146.643ZM169.338 152.125C168.745 152.786 167.962 153.116 166.986 153.116C166.011 153.116 165.227 152.786 164.635 152.125C164.042 151.46 163.746 150.566 163.746 149.445C163.746 148.324 164.042 147.433 164.635 146.772C165.232 146.107 166.016 145.774 166.986 145.774C167.962 145.774 168.745 146.107 169.338 146.772C169.93 147.433 170.227 148.324 170.227 149.445C170.227 150.566 169.93 151.46 169.338 152.125ZM165.298 151.551C165.717 152.061 166.28 152.316 166.986 152.316C167.693 152.316 168.256 152.061 168.675 151.551C169.099 151.04 169.311 150.339 169.311 149.445C169.311 148.552 169.099 147.85 168.675 147.34C168.256 146.829 167.693 146.574 166.986 146.574C166.28 146.574 165.717 146.829 165.298 147.34C164.879 147.85 164.669 148.552 164.669 149.445C164.669 150.339 164.879 151.04 165.298 151.551ZM37.7256 165.003H36.8301C36.707 164.584 36.4701 164.242 36.1191 163.978C35.7728 163.709 35.3398 163.574 34.8203 163.574C34.1276 163.574 33.5739 163.836 33.1592 164.36C32.7445 164.88 32.5371 165.575 32.5371 166.445C32.5371 167.325 32.7445 168.024 33.1592 168.544C33.5785 169.059 34.1367 169.316 34.834 169.316C35.3398 169.316 35.766 169.196 36.1123 168.954C36.4632 168.708 36.7002 168.371 36.8232 167.942H37.7256C37.598 168.59 37.2721 169.114 36.748 169.515C36.224 169.916 35.5837 170.116 34.8271 170.116C33.8519 170.116 33.0726 169.786 32.4893 169.125C31.9059 168.464 31.6143 167.571 31.6143 166.445C31.6143 165.333 31.9059 164.445 32.4893 163.779C33.0726 163.109 33.8496 162.774 34.8203 162.774C35.5951 162.774 36.2399 162.986 36.7549 163.41C37.2744 163.834 37.598 164.365 37.7256 165.003ZM40.5215 166.931C40.485 167.427 40.4281 167.854 40.3506 168.209C40.2777 168.56 40.1706 168.883 40.0293 169.18C39.888 169.471 39.6989 169.692 39.4619 169.843C39.2249 169.989 38.9401 170.062 38.6074 170.062C38.4616 170.062 38.3271 170.039 38.2041 169.993V169.173C38.3135 169.209 38.4342 169.228 38.5664 169.228C38.9128 169.228 39.168 169.029 39.332 168.633C39.5007 168.232 39.6123 167.655 39.667 166.903C39.6852 166.716 39.7308 166.062 39.8037 164.941C39.8812 163.816 39.9268 163.132 39.9404 162.891H44.4932V170H43.5977V163.643H40.7539C40.6901 164.805 40.6126 165.901 40.5215 166.931ZM46.7148 172.57C46.5508 172.57 46.4004 172.557 46.2637 172.529V171.757C46.373 171.784 46.5166 171.798 46.6943 171.798C47.0179 171.798 47.2777 171.707 47.4736 171.524C47.6742 171.342 47.8542 171.028 48.0137 170.581L48.2051 170.048L45.5391 162.891H46.5098L48.6699 169.098H48.6904L50.8574 162.891H51.8076L49.0117 170.431C48.7018 171.265 48.3874 171.83 48.0684 172.126C47.7493 172.422 47.2982 172.57 46.7148 172.57ZM58.0762 170H57.1807V166.787H57.0986C56.6383 167.206 56.0299 167.416 55.2734 167.416C54.4395 167.416 53.7969 167.186 53.3457 166.726C52.8945 166.265 52.6689 165.646 52.6689 164.866V162.891H53.5645V164.853C53.5645 165.395 53.7126 165.826 54.0088 166.145C54.3096 166.459 54.738 166.616 55.2939 166.616C56.096 166.616 56.7249 166.359 57.1807 165.844V162.891H58.0762V170ZM62.0684 169.337C62.6927 169.337 63.2191 169.143 63.6475 168.756C64.0758 168.368 64.29 167.892 64.29 167.327V166.541L62.1846 166.685C61.624 166.721 61.1934 166.858 60.8926 167.095C60.5918 167.327 60.4414 167.639 60.4414 168.031C60.4414 168.419 60.5918 168.733 60.8926 168.975C61.1934 169.216 61.5853 169.337 62.0684 169.337ZM61.8838 170.116C61.182 170.116 60.6123 169.925 60.1748 169.542C59.7419 169.155 59.5254 168.651 59.5254 168.031C59.5254 167.421 59.7441 166.938 60.1816 166.582C60.6237 166.227 61.2549 166.021 62.0752 165.967L64.29 165.83V165.215C64.29 164.7 64.1351 164.299 63.8252 164.012C63.5153 163.72 63.0846 163.574 62.5332 163.574C62.0137 163.574 61.5898 163.695 61.2617 163.937C60.9382 164.178 60.7376 164.515 60.6602 164.948H59.7852C59.8353 164.301 60.1087 163.777 60.6055 163.376C61.1068 162.975 61.7562 162.774 62.5537 162.774C63.3649 162.774 64.0075 162.986 64.4814 163.41C64.9554 163.834 65.1924 164.408 65.1924 165.133V170H64.3311V168.646H64.3105C64.1146 169.089 63.7933 169.444 63.3467 169.713C62.9001 169.982 62.4124 170.116 61.8838 170.116ZM69.2393 166.575H70.832V163.643H69.2393C68.7197 163.643 68.3073 163.777 68.002 164.046C67.6966 164.315 67.5439 164.682 67.5439 165.146C67.5439 165.57 67.6989 165.914 68.0088 166.179C68.3187 166.443 68.7288 166.575 69.2393 166.575ZM70.832 170V167.327H69.3418L67.3936 170H66.3477L68.4189 167.177C67.8675 167.063 67.4346 166.828 67.1201 166.473C66.8057 166.117 66.6484 165.68 66.6484 165.16C66.6484 164.463 66.8809 163.911 67.3457 163.506C67.8151 163.096 68.444 162.891 69.2324 162.891H71.7275V170H70.832ZM80.0332 166.514V169.781H79.1855V166.514H76.1914V165.666H79.1855V162.487H80.0332V165.666H83.0273V166.514H80.0332ZM88.3936 170H87.498V162.891H88.585L91.3604 168.811H91.4082L94.1836 162.891H95.2295V170H94.3271V164.49H94.293L91.7158 169.856H91.0117L88.4346 164.49H88.3936V170ZM99.7344 163.567C99.1009 163.567 98.5791 163.788 98.1689 164.23C97.7633 164.668 97.5423 165.24 97.5059 165.946H101.895C101.885 165.24 101.683 164.668 101.286 164.23C100.89 163.788 100.372 163.567 99.7344 163.567ZM101.84 167.983H102.735C102.626 168.608 102.302 169.12 101.765 169.521C101.231 169.918 100.577 170.116 99.8027 170.116C98.8047 170.116 98.0163 169.79 97.4375 169.139C96.8587 168.482 96.5693 167.591 96.5693 166.466C96.5693 165.358 96.8587 164.467 97.4375 163.793C98.0163 163.114 98.7865 162.774 99.748 162.774C100.687 162.774 101.434 163.093 101.99 163.731C102.546 164.369 102.824 165.219 102.824 166.281V166.664H97.499V166.719C97.499 167.521 97.7087 168.157 98.1279 168.626C98.5472 169.091 99.1123 169.323 99.8232 169.323C100.347 169.323 100.789 169.2 101.149 168.954C101.509 168.708 101.74 168.384 101.84 167.983ZM108.867 169.248V163.643H105.805C105.791 163.866 105.752 164.426 105.688 165.324C105.625 166.217 105.584 166.753 105.565 166.931C105.479 168.029 105.267 168.785 104.93 169.2V169.248H108.867ZM104.137 171.88H103.289V169.248H103.863C104.333 168.943 104.62 168.161 104.725 166.903C104.848 165.404 104.941 164.066 105.005 162.891H109.77V169.248H110.918V171.88H110.063V170H104.137V171.88ZM112.866 170H111.971V162.891H112.866V168.605H112.914L116.872 162.891H117.768V170H116.872V164.285H116.831L112.866 170ZM126.196 171.88H125.349V170H119.449V162.891H120.345V169.248H124.146V162.891H125.041V169.248H126.196V171.88ZM128.151 170H127.256V162.891H128.151V168.605H128.199L132.157 162.891H133.053V170H132.157V164.285H132.116L128.151 170ZM139.54 170V166.691H135.63V170H134.734V162.891H135.63V165.939H139.54V162.891H140.436V170H139.54ZM147.894 165.003H146.998C146.875 164.584 146.638 164.242 146.287 163.978C145.941 163.709 145.508 163.574 144.988 163.574C144.296 163.574 143.742 163.836 143.327 164.36C142.912 164.88 142.705 165.575 142.705 166.445C142.705 167.325 142.912 168.024 143.327 168.544C143.746 169.059 144.305 169.316 145.002 169.316C145.508 169.316 145.934 169.196 146.28 168.954C146.631 168.708 146.868 168.371 146.991 167.942H147.894C147.766 168.59 147.44 169.114 146.916 169.515C146.392 169.916 145.752 170.116 144.995 170.116C144.02 170.116 143.241 169.786 142.657 169.125C142.074 168.464 141.782 167.571 141.782 166.445C141.782 165.333 142.074 164.445 142.657 163.779C143.241 163.109 144.018 162.774 144.988 162.774C145.763 162.774 146.408 162.986 146.923 163.41C147.442 163.834 147.766 164.365 147.894 165.003ZM151.024 166.274L154.757 170H153.567L150.108 166.534H150.067V170H149.172V162.891H150.067V166.083H150.108L153.479 162.891H154.62L151.024 166.274ZM156.657 170H155.762V162.891H156.657V168.605H156.705L160.663 162.891H161.559V170H160.663V164.285H160.622L156.657 170ZM164.136 170H163.24V162.891H164.136V168.605H164.184L168.142 162.891H169.037V170H168.142V164.285H168.101L164.136 170ZM164.252 159.828H164.942C164.942 160.238 165.065 160.573 165.312 160.833C165.562 161.088 165.895 161.216 166.31 161.216C166.72 161.216 167.048 161.088 167.294 160.833C167.545 160.573 167.67 160.238 167.67 159.828H168.36C168.36 160.411 168.171 160.883 167.793 161.243C167.419 161.599 166.925 161.776 166.31 161.776C165.69 161.776 165.191 161.599 164.812 161.243C164.439 160.883 164.252 160.411 164.252 159.828ZM59.9287 186.125C59.3363 186.786 58.5524 187.116 57.5771 187.116C56.6019 187.116 55.818 186.786 55.2256 186.125C54.6331 185.46 54.3369 184.566 54.3369 183.445C54.3369 182.324 54.6331 181.433 55.2256 180.772C55.8226 180.107 56.6064 179.774 57.5771 179.774C58.5524 179.774 59.3363 180.107 59.9287 180.772C60.5212 181.433 60.8174 182.324 60.8174 183.445C60.8174 184.566 60.5212 185.46 59.9287 186.125ZM55.8887 185.551C56.3079 186.061 56.8708 186.316 57.5771 186.316C58.2835 186.316 58.8464 186.061 59.2656 185.551C59.6895 185.04 59.9014 184.339 59.9014 183.445C59.9014 182.552 59.6895 181.85 59.2656 181.34C58.8464 180.829 58.2835 180.574 57.5771 180.574C56.8708 180.574 56.3079 180.829 55.8887 181.34C55.4694 181.85 55.2598 182.552 55.2598 183.445C55.2598 184.339 55.4694 185.04 55.8887 185.551ZM66.9561 187V183.691H63.0459V187H62.1504V179.891H63.0459V182.939H66.9561V179.891H67.8516V187H66.9561ZM71.2012 183.931C71.1647 184.427 71.1077 184.854 71.0303 185.209C70.9574 185.56 70.8503 185.883 70.709 186.18C70.5677 186.471 70.3786 186.692 70.1416 186.843C69.9046 186.989 69.6198 187.062 69.2871 187.062C69.1413 187.062 69.0068 187.039 68.8838 186.993V186.173C68.9932 186.209 69.1139 186.228 69.2461 186.228C69.5924 186.228 69.8477 186.029 70.0117 185.633C70.1803 185.232 70.292 184.655 70.3467 183.903C70.3649 183.716 70.4105 183.062 70.4834 181.941C70.5609 180.816 70.6064 180.132 70.6201 179.891H75.1729V187H74.2773V180.643H71.4336C71.3698 181.805 71.2923 182.901 71.2012 183.931ZM79.1582 186.337C79.7826 186.337 80.3089 186.143 80.7373 185.756C81.1657 185.368 81.3799 184.892 81.3799 184.327V183.541L79.2744 183.685C78.7139 183.721 78.2832 183.858 77.9824 184.095C77.6816 184.327 77.5312 184.639 77.5312 185.031C77.5312 185.419 77.6816 185.733 77.9824 185.975C78.2832 186.216 78.6751 186.337 79.1582 186.337ZM78.9736 187.116C78.2718 187.116 77.7021 186.925 77.2646 186.542C76.8317 186.155 76.6152 185.651 76.6152 185.031C76.6152 184.421 76.834 183.938 77.2715 183.582C77.7135 183.227 78.3447 183.021 79.165 182.967L81.3799 182.83V182.215C81.3799 181.7 81.2249 181.299 80.915 181.012C80.6051 180.72 80.1745 180.574 79.623 180.574C79.1035 180.574 78.6797 180.695 78.3516 180.937C78.028 181.178 77.8275 181.515 77.75 181.948H76.875C76.9251 181.301 77.1986 180.777 77.6953 180.376C78.1966 179.975 78.846 179.774 79.6436 179.774C80.4548 179.774 81.0973 179.986 81.5713 180.41C82.0452 180.834 82.2822 181.408 82.2822 182.133V187H81.4209V185.646H81.4004C81.2044 186.089 80.8831 186.444 80.4365 186.713C79.9899 186.982 79.5023 187.116 78.9736 187.116ZM84.8252 187H83.9297V179.891H84.8252V185.605H84.873L88.8311 179.891H89.7266V187H88.8311V181.285H88.79L84.8252 187ZM84.9414 176.828H85.6318C85.6318 177.238 85.7549 177.573 86.001 177.833C86.2516 178.088 86.5843 178.216 86.999 178.216C87.4092 178.216 87.7373 178.088 87.9834 177.833C88.234 177.573 88.3594 177.238 88.3594 176.828H89.0498C89.0498 177.411 88.8607 177.883 88.4824 178.243C88.1087 178.599 87.6143 178.776 86.999 178.776C86.3792 178.776 85.8802 178.599 85.502 178.243C85.1283 177.883 84.9414 177.411 84.9414 176.828ZM96.2139 187V183.691H92.3037V187H91.4082V179.891H92.3037V182.939H96.2139V179.891H97.1094V187H96.2139ZM103.193 183.438H98.709V182.591H103.193V183.438ZM110.542 182.003H109.646C109.523 181.584 109.286 181.242 108.936 180.978C108.589 180.709 108.156 180.574 107.637 180.574C106.944 180.574 106.39 180.836 105.976 181.36C105.561 181.88 105.354 182.575 105.354 183.445C105.354 184.325 105.561 185.024 105.976 185.544C106.395 186.059 106.953 186.316 107.65 186.316C108.156 186.316 108.582 186.196 108.929 185.954C109.28 185.708 109.517 185.371 109.64 184.942H110.542C110.414 185.59 110.089 186.114 109.564 186.515C109.04 186.916 108.4 187.116 107.644 187.116C106.668 187.116 105.889 186.786 105.306 186.125C104.722 185.464 104.431 184.571 104.431 183.445C104.431 182.333 104.722 181.445 105.306 180.779C105.889 180.109 106.666 179.774 107.637 179.774C108.411 179.774 109.056 179.986 109.571 180.41C110.091 180.834 110.414 181.365 110.542 182.003ZM114.637 180.567C114.003 180.567 113.481 180.788 113.071 181.23C112.666 181.668 112.445 182.24 112.408 182.946H116.797C116.788 182.24 116.585 181.668 116.188 181.23C115.792 180.788 115.275 180.567 114.637 180.567ZM116.742 184.983H117.638C117.528 185.608 117.205 186.12 116.667 186.521C116.134 186.918 115.48 187.116 114.705 187.116C113.707 187.116 112.919 186.79 112.34 186.139C111.761 185.482 111.472 184.591 111.472 183.466C111.472 182.358 111.761 181.467 112.34 180.793C112.919 180.114 113.689 179.774 114.65 179.774C115.589 179.774 116.337 180.093 116.893 180.731C117.449 181.369 117.727 182.219 117.727 183.281V183.664H112.401V183.719C112.401 184.521 112.611 185.157 113.03 185.626C113.45 186.091 114.015 186.323 114.726 186.323C115.25 186.323 115.692 186.2 116.052 185.954C116.412 185.708 116.642 185.384 116.742 184.983ZM122.402 179.774C123.305 179.774 124.034 180.112 124.59 180.786C125.15 181.456 125.431 182.342 125.431 183.445C125.431 184.548 125.153 185.437 124.597 186.111C124.045 186.781 123.321 187.116 122.423 187.116C121.862 187.116 121.366 186.973 120.933 186.686C120.504 186.394 120.194 186.011 120.003 185.537H119.976V189.352H119.073V179.891H119.928V181.395H119.955C120.156 180.911 120.472 180.522 120.905 180.226C121.338 179.925 121.837 179.774 122.402 179.774ZM122.245 186.316C122.933 186.316 123.482 186.057 123.893 185.537C124.303 185.013 124.508 184.316 124.508 183.445C124.508 182.579 124.3 181.884 123.886 181.36C123.476 180.836 122.929 180.574 122.245 180.574C121.571 180.574 121.024 180.841 120.604 181.374C120.185 181.903 119.976 182.593 119.976 183.445C119.976 184.302 120.185 184.995 120.604 185.523C121.024 186.052 121.571 186.316 122.245 186.316ZM129.525 180.636H127.659V182.953H129.396C129.883 182.953 130.255 182.851 130.51 182.646C130.77 182.44 130.899 182.144 130.899 181.757C130.899 181.401 130.779 181.126 130.537 180.93C130.3 180.734 129.963 180.636 129.525 180.636ZM129.464 183.691H127.659V186.255H129.628C130.152 186.255 130.551 186.146 130.824 185.927C131.098 185.708 131.234 185.387 131.234 184.963C131.234 184.544 131.082 184.227 130.776 184.013C130.476 183.799 130.038 183.691 129.464 183.691ZM126.764 187V179.891H129.635C130.3 179.891 130.824 180.05 131.207 180.369C131.59 180.684 131.781 181.119 131.781 181.675C131.781 182.067 131.663 182.411 131.426 182.707C131.193 183.003 130.897 183.186 130.537 183.254V183.302C131.007 183.356 131.387 183.534 131.679 183.835C131.975 184.136 132.123 184.519 132.123 184.983C132.123 185.617 131.904 186.111 131.467 186.467C131.034 186.822 130.435 187 129.669 187H126.764ZM134.372 187H133.477V179.891H134.372V185.605H134.42L138.378 179.891H139.273V187H138.378V181.285H138.337L134.372 187ZM146.718 182.003H145.822C145.699 181.584 145.462 181.242 145.111 180.978C144.765 180.709 144.332 180.574 143.812 180.574C143.12 180.574 142.566 180.836 142.151 181.36C141.737 181.88 141.529 182.575 141.529 183.445C141.529 184.325 141.737 185.024 142.151 185.544C142.571 186.059 143.129 186.316 143.826 186.316C144.332 186.316 144.758 186.196 145.104 185.954C145.455 185.708 145.692 185.371 145.815 184.942H146.718C146.59 185.59 146.264 186.114 145.74 186.515C145.216 186.916 144.576 187.116 143.819 187.116C142.844 187.116 142.065 186.786 141.481 186.125C140.898 185.464 140.606 184.571 140.606 183.445C140.606 182.333 140.898 181.445 141.481 180.779C142.065 180.109 142.842 179.774 143.812 179.774C144.587 179.774 145.232 179.986 145.747 180.41C146.267 180.834 146.59 181.365 146.718 182.003Z" fill="#0D1C41"/>
<path d="M106.562 109.75V115.531C106.562 115.838 106.688 116.132 106.91 116.349C107.133 116.566 107.435 116.688 107.75 116.688H133.875C134.19 116.688 134.492 116.566 134.715 116.349C134.937 116.132 135.062 115.838 135.062 115.531V109.75C135.062 109.443 134.937 109.149 134.715 108.932C134.492 108.716 134.19 108.594 133.875 108.594V94.7188C133.875 94.5801 133.849 94.4426 133.799 94.3128L131.393 88.0638C130.965 86.964 130.205 86.0166 129.212 85.3468C128.219 84.6769 127.041 84.3163 125.833 84.3125H114.875V76.5925C116.731 77.4506 118.847 77.6091 120.816 77.0375C122.056 77.3978 123.366 77.4708 124.641 77.2509C125.916 77.0309 127.121 76.524 128.159 75.7706C129.197 75.0172 130.04 74.0381 130.621 72.9113C131.201 71.7845 131.504 70.5413 131.504 69.2806C131.503 68.0199 131.201 66.7767 130.62 65.65C130.039 64.5233 129.196 63.5444 128.158 62.7911C127.119 62.0379 125.915 61.5312 124.64 61.3114C123.365 61.0917 122.055 61.165 120.814 61.5254C118.846 60.9533 116.73 61.1117 114.875 61.97V50.7812C114.874 49.8616 114.498 48.9799 113.83 48.3297C113.162 47.6794 112.257 47.3136 111.312 47.3125H87.5625C86.618 47.3136 85.7125 47.6794 85.0446 48.3297C84.3768 48.9799 84.0011 49.8616 84 50.7812V76.2188H83.988C83.049 76.2153 82.1339 76.5069 81.3785 77.0501C80.6232 77.5932 80.0679 78.3591 79.7951 79.234L75.74 92.0662C75.7207 92.1276 75.7066 92.1904 75.6979 92.2541L73.4609 108.594H73.3125C72.9976 108.594 72.6955 108.716 72.4728 108.932C72.2501 109.149 72.125 109.443 72.125 109.75V115.531C72.125 115.838 72.2501 116.132 72.4728 116.349C72.6955 116.566 72.9976 116.688 73.3125 116.688H99.4375C99.7524 116.688 100.054 116.566 100.277 116.349C100.5 116.132 100.625 115.838 100.625 115.531V109.75C100.625 109.506 100.546 109.269 100.399 109.072C100.252 108.874 100.045 108.727 99.8073 108.652L101.521 102.812H103.498L107.031 108.832C106.886 108.939 106.768 109.078 106.686 109.237C106.605 109.397 106.563 109.572 106.562 109.75ZM132.688 114.375H108.938V110.906H132.688V114.375ZM123.188 63.5C124.362 63.5 125.51 63.8391 126.486 64.4743C127.463 65.1096 128.224 66.0125 128.673 67.0689C129.122 68.1252 129.24 69.2877 129.011 70.4091C128.782 71.5306 128.216 72.5607 127.386 73.3692C126.556 74.1777 125.498 74.7283 124.346 74.9514C123.194 75.1745 122 75.06 120.915 74.6224C119.83 74.1849 118.903 73.4439 118.251 72.4931C117.598 71.5424 117.25 70.4247 117.25 69.2812C117.252 67.7485 117.878 66.279 118.991 65.1952C120.104 64.1114 121.613 63.5017 123.188 63.5ZM117.26 63.6146C115.732 65.1254 114.875 67.1608 114.875 69.2812C114.875 71.4017 115.732 73.4371 117.26 74.9479C115.916 74.6835 114.708 73.9747 113.84 72.9419C112.973 71.909 112.499 70.6157 112.499 69.2812C112.499 67.9468 112.973 66.6535 113.84 65.6206C114.708 64.5878 115.916 63.879 117.26 63.6146ZM98.25 114.375H74.5V110.906H98.25V114.375ZM97.3543 108.594H75.8563L78.0383 92.6544L82.0644 79.914C82.2115 79.4492 82.5309 79.0542 82.9606 78.8061C83.3902 78.5579 83.8993 78.4742 84.3887 78.5714C84.8782 78.6685 85.3131 78.9394 85.6088 79.3314C85.9044 79.7235 86.0397 80.2086 85.9883 80.6924L84.0113 94.5598C83.9825 94.7631 84.0097 94.9702 84.0901 95.16C84.1706 95.3497 84.3013 95.5152 84.4691 95.6396C84.5237 95.68 89.9375 99.7425 89.9375 103.969C89.9375 104.276 90.0626 104.57 90.2853 104.786C90.508 105.003 90.8101 105.125 91.125 105.125C91.4399 105.125 91.742 105.003 91.9647 104.786C92.1874 104.57 92.3125 104.276 92.3125 103.969C92.3113 103.582 92.2798 103.195 92.2182 102.813H99.0507L97.3543 108.594ZM103.113 100.5H91.5149C90.1976 97.5399 87.5975 95.1742 86.4558 94.2323L88.344 80.9932C88.3455 80.9828 88.3468 80.9724 88.348 80.9618C88.4381 80.1742 88.3013 79.3778 87.9528 78.6617C87.6043 77.9455 87.058 77.338 86.375 76.907V50.7812C86.3754 50.4747 86.5006 50.1808 86.7232 49.964C86.9458 49.7473 87.2477 49.6253 87.5625 49.625H92.7661L93.6254 51.2984C93.7241 51.4904 93.8757 51.6519 94.0632 51.7648C94.2508 51.8777 94.467 51.9375 94.6875 51.9375H104.188C104.408 51.9375 104.624 51.8777 104.812 51.7648C104.999 51.6519 105.151 51.4904 105.25 51.2984L106.109 49.625H111.312C111.627 49.6253 111.929 49.7473 112.152 49.964C112.374 50.1808 112.5 50.4747 112.5 50.7812V63.6246C110.978 65.1344 110.125 67.1656 110.125 69.2812C110.125 71.3969 110.978 73.4281 112.5 74.9379V84.3125H111.064L105.074 71.9993C104.706 71.2421 104.107 70.614 103.359 70.2009C102.61 69.7879 101.749 69.6101 100.893 69.6919C102.655 68.363 106.562 64.7535 106.562 58.875C106.563 58.6753 106.509 58.4791 106.408 58.3053C106.307 58.1316 106.162 57.9862 105.986 57.8835L100.048 54.4148C99.8639 54.3069 99.6527 54.25 99.4375 54.25C99.2223 54.25 99.0111 54.3069 98.8265 54.4148L92.889 57.8835C92.7141 57.9857 92.5692 58.13 92.4682 58.3026C92.3672 58.4752 92.3136 58.6702 92.3125 58.8688C92.3107 59.1791 92.3447 66.5104 98.8289 70.2745C98.8779 70.3027 98.929 70.3275 98.9816 70.3486C98.2117 70.8474 97.6331 71.5805 97.3364 72.4334C97.0397 73.2862 97.0416 74.2108 97.3417 75.0625H92.3125C91.9976 75.0625 91.6955 75.1843 91.4728 75.4012C91.2501 75.618 91.125 75.9121 91.125 76.2188V85.4688C91.125 85.7754 91.2501 86.0695 91.4728 86.2863C91.6955 86.5032 91.9976 86.625 92.3125 86.625H102.52L103.559 88.9375H92.3125C91.9976 88.9375 91.6955 89.0593 91.4728 89.2762C91.2501 89.493 91.125 89.7871 91.125 90.0938V94.7188C91.125 95.0254 91.2501 95.3195 91.4728 95.5363C91.6955 95.7532 91.9976 95.875 92.3125 95.875H103.588L103.113 100.5ZM99.4105 67.8878C95.6535 65.3234 94.8848 61.0915 94.7277 59.5062L99.4375 56.7546L104.168 59.5183C103.894 64.0806 100.751 66.8895 99.4105 67.8878ZM101.481 84.3125H93.5V77.375H98.364L101.481 84.3125ZM103.825 93.5625H93.5V91.25H104.063L103.825 93.5625ZM105.407 101.403L106.557 90.2094C106.577 90.012 106.545 89.8129 106.463 89.6312L99.6406 74.4467C99.4508 74.0236 99.4395 73.5449 99.6092 73.1138C99.7788 72.6827 100.116 72.3338 100.547 72.1425C100.979 71.9512 101.47 71.9327 101.915 72.0911C102.361 72.2496 102.724 72.5721 102.927 72.9892L112.614 92.9013C112.749 93.1784 112.992 93.392 113.288 93.4952C113.585 93.5983 113.911 93.5825 114.196 93.4512C114.481 93.3199 114.7 93.0839 114.806 92.7951C114.912 92.5063 114.896 92.1884 114.761 91.9112L112.188 86.625H115.328L118.562 92.9234C118.631 93.0604 118.727 93.1828 118.845 93.2834C118.963 93.3841 119.1 93.461 119.249 93.5098C119.397 93.5586 119.554 93.5783 119.71 93.5678C119.867 93.5573 120.019 93.5167 120.16 93.4485C120.3 93.3802 120.425 93.2856 120.527 93.1701C120.63 93.0547 120.707 92.9206 120.756 92.7756C120.805 92.6307 120.824 92.4777 120.812 92.3255C120.8 92.1734 120.758 92.0251 120.686 91.8891L117.984 86.625H121.266L124.5 92.9234C124.569 93.0604 124.666 93.1828 124.783 93.2834C124.901 93.3841 125.038 93.461 125.187 93.5098C125.335 93.5586 125.492 93.5783 125.649 93.5678C125.805 93.5573 125.958 93.5167 126.098 93.4485C126.238 93.3802 126.363 93.2856 126.465 93.1701C126.568 93.0547 126.646 92.9206 126.695 92.7756C126.744 92.6307 126.763 92.4777 126.751 92.3255C126.739 92.1734 126.696 92.0251 126.625 91.8891L123.921 86.625H125.833C126.558 86.6271 127.265 86.8435 127.861 87.2453C128.456 87.6472 128.913 88.2157 129.17 88.8756L131.5 94.9285V108.594H109.627L105.407 101.403Z" fill="black"/>
<path d="M120.812 71.5938C120.812 71.9004 120.938 72.1945 121.16 72.4113C121.383 72.6282 121.685 72.75 122 72.75H123.188C123.817 72.75 124.421 72.5064 124.867 72.0727C125.312 71.639 125.562 71.0508 125.562 70.4375C125.562 69.8242 125.312 69.236 124.867 68.8023C124.421 68.3686 123.817 68.125 123.188 68.125H124.375C124.69 68.125 124.992 68.0032 125.215 67.7863C125.437 67.5695 125.562 67.2754 125.562 66.9688C125.562 66.6621 125.437 66.368 125.215 66.1512C124.992 65.9343 124.69 65.8125 124.375 65.8125H123.188C122.558 65.8125 121.954 66.0561 121.508 66.4898C121.063 66.9235 120.812 67.5117 120.812 68.125C120.812 68.7383 121.063 69.3265 121.508 69.7602C121.954 70.1939 122.558 70.4375 123.188 70.4375H122C121.685 70.4375 121.383 70.5593 121.16 70.7762C120.938 70.993 120.812 71.2871 120.812 71.5938Z" fill="black"/>
</g>
<defs>
<filter id="filter0_d_60_1792" x="0" y="0" width="201" height="226" filterUnits="userSpaceOnUse" color-interpolation-filters="sRGB">
<feFlood flood-opacity="0" result="BackgroundImageFix"/>
<feColorMatrix in="SourceAlpha" type="matrix" values="0 0 0 0 0 0 0 0 0 0 0 0 0 0 0 0 0 0 127 0" result="hardAlpha"/>
<feOffset dy="2"/>
<feGaussianBlur stdDeviation="9"/>
<feColorMatrix type="matrix" values="0 0 0 0 0.160784 0 0 0 0 0.160784 0 0 0 0 0.160784 0 0 0 0.1 0"/>
<feBlend mode="normal" in2="BackgroundImageFix" result="effect1_dropShadow_60_1792"/>
<feBlend mode="normal" in="SourceGraphic" in2="effect1_dropShadow_60_1792" result="shape"/>
</filter>
</defs>
</svg>
