<svg width="201" height="201" viewBox="0 0 201 201" fill="none" xmlns="http://www.w3.org/2000/svg">
<g filter="url(#filter0_d_60_2238)">
<rect x="18" y="16" width="165" height="165" rx="20" fill="white"/>
<g clip-path="url(#clip0_60_2238)">
<path d="M116.838 80.9288C115.651 79.6925 114.219 79.0314 112.701 79.0314C111.195 79.0314 109.751 79.6802 108.514 80.9166L104.646 84.7726C104.328 84.6012 104.009 84.4421 103.703 84.2829C103.263 84.0626 102.847 83.8545 102.492 83.6342C98.8681 81.3328 95.5752 78.3337 92.4169 74.4532C90.8868 72.5191 89.8585 70.891 89.1118 69.2384C90.1156 68.3203 91.0459 67.3655 91.9518 66.4474C92.2945 66.1046 92.6373 65.7496 92.98 65.4069C95.5507 62.8362 95.5507 59.5066 92.98 56.9359L89.6382 53.594C89.2587 53.2145 88.867 52.8228 88.4997 52.4311C87.7653 51.6721 86.9941 50.8887 86.1984 50.1542C85.011 48.979 83.591 48.3547 82.0975 48.3547C80.6041 48.3547 79.1596 48.979 77.9355 50.1542C77.9233 50.1664 77.9233 50.1664 77.911 50.1787L73.749 54.3775C72.1821 55.9443 71.2885 57.854 71.0926 60.0697C70.7988 63.6441 71.8516 66.9737 72.6595 69.1527C74.6426 74.5021 77.605 79.4599 82.0241 84.7726C87.3858 91.1748 93.8369 96.2304 101.206 99.7927C104.022 101.127 107.78 102.706 111.979 102.975C112.236 102.988 112.505 103 112.75 103C115.577 103 117.952 101.984 119.813 99.9641C119.825 99.9396 119.85 99.9273 119.862 99.9028C120.498 99.1316 121.233 98.4339 122.004 97.6872C122.531 97.1853 123.069 96.6589 123.596 96.108C124.807 94.8472 125.444 93.3782 125.444 91.8726C125.444 90.3546 124.795 88.8979 123.559 87.6738L116.838 80.9288ZM121.221 93.8189C121.208 93.8189 121.208 93.8312 121.221 93.8189C120.743 94.333 120.254 94.7982 119.727 95.3124C118.932 96.0713 118.124 96.867 117.365 97.7606C116.128 99.0827 114.672 99.707 112.762 99.707C112.578 99.707 112.382 99.707 112.199 99.6947C108.563 99.4622 105.185 98.0422 102.651 96.8303C95.7221 93.4762 89.6382 88.7143 84.5825 82.6793C80.4082 77.6482 77.6172 72.9965 75.7688 68.002C74.6303 64.9539 74.2141 62.5791 74.3978 60.339C74.5202 58.9067 75.071 57.7193 76.0871 56.7033L80.2613 52.529C80.8612 51.9659 81.4977 51.6599 82.122 51.6599C82.8932 51.6599 83.5175 52.1251 83.9092 52.5168C83.9215 52.529 83.9337 52.5413 83.946 52.5535C84.6927 53.2513 85.4027 53.9735 86.1494 54.7447C86.5289 55.1364 86.9206 55.5281 87.3123 55.9321L90.6542 59.274C91.9518 60.5716 91.9518 61.7712 90.6542 63.0688C90.2992 63.4238 89.9564 63.7788 89.6014 64.1215C88.5732 65.1743 87.5939 66.1536 86.5289 67.1084C86.5044 67.1329 86.4799 67.1451 86.4677 67.1696C85.4149 68.2224 85.6108 69.2506 85.8311 69.9484C85.8434 69.9851 85.8556 70.0218 85.8679 70.0586C86.737 72.1641 87.9611 74.1472 89.8218 76.5097L89.834 76.522C93.2126 80.684 96.7748 83.9279 100.704 86.4129C101.206 86.7312 101.72 86.9883 102.21 87.2331C102.651 87.4534 103.067 87.6615 103.422 87.8819C103.471 87.9064 103.52 87.9431 103.569 87.9676C103.985 88.1757 104.377 88.2736 104.781 88.2736C105.797 88.2736 106.433 87.6371 106.641 87.429L110.828 83.2424C111.244 82.8262 111.905 82.3243 112.676 82.3243C113.435 82.3243 114.06 82.8017 114.439 83.218C114.451 83.2302 114.451 83.2302 114.464 83.2424L121.208 89.9874C122.469 91.236 122.469 92.5213 121.221 93.8189Z" fill="black"/>
<path d="M102.345 58.7966C105.552 59.3352 108.465 60.8532 110.791 63.179C113.117 65.5048 114.623 68.4183 115.174 71.6255C115.308 72.4334 116.006 72.9965 116.802 72.9965C116.9 72.9965 116.985 72.9843 117.083 72.972C117.989 72.8251 118.589 71.9683 118.442 71.0624C117.781 67.1819 115.945 63.6442 113.141 60.8409C110.338 58.0377 106.8 56.2015 102.92 55.5404C102.014 55.3935 101.169 55.9934 101.01 56.887C100.851 57.7806 101.439 58.6497 102.345 58.7966Z" fill="#DDD0A4"/>
<path d="M128.933 70.585C127.843 64.1951 124.832 58.3804 120.205 53.7532C115.577 49.126 109.763 46.1147 103.373 45.0252C102.479 44.8661 101.635 45.4781 101.475 46.3717C101.329 47.2776 101.928 48.1222 102.834 48.2814C108.539 49.2484 113.741 51.9538 117.879 56.0791C122.016 60.2166 124.709 65.4192 125.677 71.1236C125.811 71.9316 126.509 72.4947 127.305 72.4947C127.403 72.4947 127.488 72.4824 127.586 72.4702C128.48 72.3355 129.092 71.4786 128.933 70.585Z" fill="#DDD0A4"/>
</g>
<path d="M60.4609 138H58.9365V129.469H54.001V138H52.4629V128.136H60.4609V138ZM67.8096 137.139C67.1898 137.804 66.3626 138.137 65.3281 138.137C64.2936 138.137 63.4665 137.804 62.8467 137.139C62.2269 136.469 61.917 135.557 61.917 134.404C61.917 133.256 62.2269 132.349 62.8467 131.684C63.4665 131.014 64.2936 130.679 65.3281 130.679C66.3626 130.679 67.1898 131.014 67.8096 131.684C68.4294 132.349 68.7393 133.256 68.7393 134.404C68.7393 135.557 68.4294 136.469 67.8096 137.139ZM65.3281 136.92C65.916 136.92 66.3809 136.699 66.7227 136.257C67.0645 135.815 67.2354 135.197 67.2354 134.404C67.2354 133.616 67.0622 133.001 66.7158 132.559C66.374 132.117 65.9115 131.896 65.3281 131.896C64.7448 131.896 64.2799 132.117 63.9336 132.559C63.5918 133.001 63.4209 133.616 63.4209 134.404C63.4209 135.197 63.5918 135.815 63.9336 136.257C64.2799 136.699 64.7448 136.92 65.3281 136.92ZM72.5947 138.137C71.7516 138.137 71.0589 137.943 70.5166 137.556C69.9788 137.168 69.6781 136.644 69.6143 135.983H71.0703C71.1432 136.293 71.3118 136.533 71.5762 136.701C71.8405 136.865 72.18 136.947 72.5947 136.947C73.0596 136.947 73.4196 136.849 73.6748 136.653C73.9346 136.457 74.0645 136.198 74.0645 135.874C74.0645 135.177 73.5768 134.828 72.6016 134.828H71.5488V133.741H72.5811C73.4196 133.741 73.8389 133.427 73.8389 132.798C73.8389 132.511 73.734 132.283 73.5244 132.114C73.3148 131.941 73.0072 131.854 72.6016 131.854C72.2051 131.854 71.8815 131.934 71.6309 132.094C71.3802 132.253 71.2298 132.474 71.1797 132.757H69.7646C69.8421 132.114 70.1315 131.608 70.6328 131.239C71.1387 130.866 71.7926 130.679 72.5947 130.679C73.4515 130.679 74.1123 130.856 74.5771 131.212C75.0465 131.563 75.2812 132.044 75.2812 132.654C75.2812 133.023 75.1764 133.349 74.9668 133.632C74.7572 133.914 74.4792 134.099 74.1328 134.186V134.24C74.5885 134.345 74.9349 134.539 75.1719 134.821C75.4134 135.104 75.5342 135.452 75.5342 135.867C75.5342 136.551 75.2653 137.1 74.7275 137.515C74.1943 137.929 73.4834 138.137 72.5947 138.137ZM79.7998 131.882H78.2891V133.769H79.6562C80.4902 133.769 80.9072 133.45 80.9072 132.812C80.9072 132.515 80.8115 132.287 80.6201 132.128C80.4287 131.964 80.1553 131.882 79.7998 131.882ZM79.752 134.801H78.2891V136.927H79.916C80.3353 136.927 80.6543 136.838 80.873 136.66C81.0918 136.478 81.2012 136.214 81.2012 135.867C81.2012 135.156 80.7181 134.801 79.752 134.801ZM76.833 138V130.809H80.1006C80.8024 130.809 81.3516 130.973 81.748 131.301C82.1491 131.624 82.3496 132.071 82.3496 132.641C82.3496 133.014 82.2311 133.352 81.9941 133.652C81.7617 133.949 81.4723 134.129 81.126 134.192V134.247C81.5908 134.311 81.9645 134.495 82.2471 134.801C82.5296 135.102 82.6709 135.478 82.6709 135.929C82.6709 136.562 82.443 137.066 81.9873 137.439C81.5361 137.813 80.9209 138 80.1416 138H76.833ZM89.5615 137.139C88.9417 137.804 88.1146 138.137 87.0801 138.137C86.0456 138.137 85.2184 137.804 84.5986 137.139C83.9788 136.469 83.6689 135.557 83.6689 134.404C83.6689 133.256 83.9788 132.349 84.5986 131.684C85.2184 131.014 86.0456 130.679 87.0801 130.679C88.1146 130.679 88.9417 131.014 89.5615 131.684C90.1813 132.349 90.4912 133.256 90.4912 134.404C90.4912 135.557 90.1813 136.469 89.5615 137.139ZM87.0801 136.92C87.668 136.92 88.1328 136.699 88.4746 136.257C88.8164 135.815 88.9873 135.197 88.9873 134.404C88.9873 133.616 88.8141 133.001 88.4678 132.559C88.126 132.117 87.6634 131.896 87.0801 131.896C86.4967 131.896 86.0319 132.117 85.6855 132.559C85.3438 133.001 85.1729 133.616 85.1729 134.404C85.1729 135.197 85.3438 135.815 85.6855 136.257C86.0319 136.699 86.4967 136.92 87.0801 136.92ZM96.4863 138V134.869H93.2324V138H91.7627V130.809H93.2324V133.707H96.4863V130.809H97.9561V138H96.4863ZM101.012 138H99.5557V130.809H101.012V135.847H101.066L104.389 130.809H105.845V138H104.389V132.948H104.334L101.012 138ZM112.899 130.809V131.978H110.644V138H109.174V131.978H106.918V130.809H112.899ZM118.108 132.388C117.785 132.041 117.368 131.868 116.857 131.868C116.347 131.868 115.923 132.044 115.586 132.395C115.249 132.741 115.062 133.19 115.025 133.741H118.621C118.603 133.185 118.432 132.734 118.108 132.388ZM118.614 135.888H120.016C119.911 136.549 119.574 137.089 119.004 137.508C118.434 137.927 117.739 138.137 116.919 138.137C115.866 138.137 115.037 137.806 114.431 137.146C113.829 136.48 113.528 135.578 113.528 134.438C113.528 133.308 113.829 132.399 114.431 131.711C115.037 131.023 115.846 130.679 116.857 130.679C117.851 130.679 118.639 131.005 119.223 131.656C119.806 132.303 120.098 133.174 120.098 134.268V134.773H115.019V134.862C115.019 135.491 115.194 135.995 115.545 136.373C115.896 136.751 116.365 136.94 116.953 136.94C117.368 136.94 117.723 136.845 118.02 136.653C118.316 136.462 118.514 136.207 118.614 135.888ZM128.93 138V134.869H125.676V138H124.206V130.809H125.676V133.707H128.93V130.809H130.399V138H128.93ZM134.521 136.954C135.041 136.954 135.476 136.797 135.827 136.482C136.183 136.163 136.36 135.771 136.36 135.307V134.739L134.59 134.849C134.148 134.881 133.806 134.99 133.564 135.177C133.327 135.359 133.209 135.605 133.209 135.915C133.209 136.229 133.327 136.482 133.564 136.674C133.806 136.861 134.125 136.954 134.521 136.954ZM134.111 138.123C133.405 138.123 132.828 137.923 132.382 137.521C131.94 137.12 131.719 136.599 131.719 135.956C131.719 135.327 131.951 134.828 132.416 134.459C132.881 134.085 133.539 133.876 134.392 133.83L136.36 133.714V133.16C136.36 132.759 136.233 132.447 135.978 132.224C135.722 131.996 135.369 131.882 134.918 131.882C134.499 131.882 134.157 131.975 133.893 132.162C133.633 132.349 133.469 132.606 133.4 132.935H132.006C132.047 132.269 132.334 131.727 132.867 131.308C133.4 130.888 134.102 130.679 134.973 130.679C135.843 130.679 136.536 130.893 137.051 131.321C137.57 131.75 137.83 132.324 137.83 133.044V138H136.415V136.817H136.381C136.176 137.214 135.864 137.531 135.444 137.768C135.03 138.005 134.585 138.123 134.111 138.123ZM140.804 138H139.382V130.809H141.234L143.538 136.079H143.593L145.91 130.809H147.722V138H146.286V133.01H146.238L144.085 137.72H143.005L140.852 133.01H140.804V138Z" fill="black"/>
<rect x="18.5" y="16.5" width="164" height="164" rx="19.5" stroke="#4A607A"/>
</g>
<defs>
<filter id="filter0_d_60_2238" x="0" y="0" width="201" height="201" filterUnits="userSpaceOnUse" color-interpolation-filters="sRGB">
<feFlood flood-opacity="0" result="BackgroundImageFix"/>
<feColorMatrix in="SourceAlpha" type="matrix" values="0 0 0 0 0 0 0 0 0 0 0 0 0 0 0 0 0 0 127 0" result="hardAlpha"/>
<feOffset dy="2"/>
<feGaussianBlur stdDeviation="9"/>
<feColorMatrix type="matrix" values="0 0 0 0 0.160784 0 0 0 0 0.160784 0 0 0 0 0.160784 0 0 0 0.1 0"/>
<feBlend mode="normal" in2="BackgroundImageFix" result="effect1_dropShadow_60_2238"/>
<feBlend mode="normal" in="SourceGraphic" in2="effect1_dropShadow_60_2238" result="shape"/>
</filter>
<clipPath id="clip0_60_2238">
<rect width="58" height="58" fill="white" transform="translate(71 45)"/>
</clipPath>
</defs>
</svg>
