<svg width="201" height="226" viewBox="0 0 201 226" fill="none" xmlns="http://www.w3.org/2000/svg">
<g filter="url(#filter0_d_60_1740)">
<rect x="18" y="16" width="165" height="190" rx="20" fill="white"/>
<g clip-path="url(#clip0_60_1740)">
<path d="M126.088 61.9954L125.707 55.5702C125.639 54.5106 124.756 53.6956 123.683 53.7635C122.624 53.8314 121.822 54.7279 121.877 55.7875L121.985 57.6757C116.443 53.5325 109.719 51.2776 102.655 51.2776C94.0157 51.2776 85.8924 54.6464 79.7931 60.7457C79.046 61.4928 79.046 62.7018 79.7931 63.4625C80.8255 64.4949 82.1296 63.8429 82.51 63.4625C87.8893 58.0832 95.0481 55.1083 102.669 55.1083C108.727 55.1083 114.487 56.9829 119.296 60.4604L117.638 60.5691C116.579 60.637 115.777 61.5336 115.832 62.5931C115.886 63.6119 116.742 64.3998 117.747 64.3998C117.788 64.3998 124.281 64.0195 124.281 64.0195C125.341 63.9515 126.142 63.055 126.088 61.9954Z" fill="#0D1C41"/>
<path d="M95.2791 111.143C81.6135 107.489 72.9469 94.4343 74.3053 80.7958L75.2154 82.1678C75.5822 82.7248 76.7504 83.3904 77.8643 82.7112C78.7608 82.1542 78.9918 80.9453 78.4077 80.0623L74.8758 74.683C74.5905 74.2619 74.1558 73.963 73.6668 73.8544C73.1642 73.7593 72.648 73.8544 72.2269 74.126L66.8612 77.6579C65.9782 78.242 65.7337 79.4238 66.3178 80.3068C66.9019 81.1898 68.0837 81.4343 68.9667 80.8502L70.5561 79.8042C68.695 95.5074 78.5978 110.64 94.2875 114.838C94.4505 114.878 96.1485 115.082 96.6375 113.479C96.95 112.474 96.3115 111.414 95.2791 111.143Z" fill="#0D1C41"/>
<path d="M133.899 75.24C133.627 74.2212 132.567 73.6099 131.549 73.8816C130.53 74.1532 129.918 75.2128 130.19 76.2316C133.844 89.8972 126.889 103.943 114.392 109.581L115.125 108.1C115.601 107.149 115.22 106.008 114.27 105.532C113.319 105.057 112.164 105.437 111.702 106.388L108.822 112.134C108.347 113.085 108.727 114.226 109.678 114.702L115.424 117.582C115.696 117.717 117.231 118.057 117.992 116.726C118.521 115.802 118.087 114.634 117.136 114.158L115.411 113.289C129.946 107.068 138.096 90.9432 133.899 75.24Z" fill="#0D1C41"/>
<path d="M93.8119 90.4949L97.2623 86.8951C98.6071 85.4959 100.781 83.5127 100.781 80.6192C100.781 78.8126 99.395 74.7781 94.5726 74.7781C90.9049 74.7781 88.4598 77.6036 87.5632 78.9891L90.9728 81.0132C92.046 79.3016 93.1871 78.4458 94.3825 78.4458C96.7053 78.4458 96.6238 80.0487 96.6238 80.6872C96.6238 82.3716 94.6134 84.2598 93.4859 85.4144L87.8893 91.1469V94.312H101.351V90.4949H93.8119Z" fill="#0D1C41"/>
<path d="M115.587 86.0529V82.7248H111.498V86.0529H108.795L115.261 75.2128H110.629L103.823 86.4876V89.7342H111.498V94.2984H115.587V89.7342H117.747V86.0529H115.587Z" fill="#0D1C41"/>
<path d="M122.393 72.754C121.741 72.754 121.157 73.0121 120.64 73.5419V70.499H118.915V79.0298H120.64V75.6881C120.64 75.1991 120.763 74.2211 121.931 74.2211C122.624 74.2211 122.977 74.6965 122.977 75.6474V79.0298H124.702V75.2806C124.702 74.0581 123.941 72.754 122.393 72.754Z" fill="#0D1C41"/>
</g>
<path d="M40.4727 152.125C39.8802 152.786 39.0964 153.116 38.1211 153.116C37.1458 153.116 36.362 152.786 35.7695 152.125C35.1771 151.46 34.8809 150.566 34.8809 149.445C34.8809 148.324 35.1771 147.433 35.7695 146.772C36.3665 146.107 37.1504 145.774 38.1211 145.774C39.0964 145.774 39.8802 146.107 40.4727 146.772C41.0651 147.433 41.3613 148.324 41.3613 149.445C41.3613 150.566 41.0651 151.46 40.4727 152.125ZM36.4326 151.551C36.8519 152.061 37.4147 152.316 38.1211 152.316C38.8275 152.316 39.3903 152.061 39.8096 151.551C40.2334 151.04 40.4453 150.339 40.4453 149.445C40.4453 148.552 40.2334 147.85 39.8096 147.34C39.3903 146.829 38.8275 146.574 38.1211 146.574C37.4147 146.574 36.8519 146.829 36.4326 147.34C36.0133 147.85 35.8037 148.552 35.8037 149.445C35.8037 150.339 36.0133 151.04 36.4326 151.551ZM45.6816 153.123C44.6243 153.123 43.8154 152.765 43.2549 152.05C42.6989 151.334 42.4209 150.295 42.4209 148.933C42.4209 146.882 42.7012 145.421 43.2617 144.551C43.8268 143.676 44.793 143.22 46.1602 143.184C46.4792 143.184 46.7298 143.172 46.9121 143.149C47.6003 143.108 48.1221 143.001 48.4775 142.828V143.621C48.3682 143.703 48.1722 143.778 47.8896 143.847C47.6117 143.91 47.3018 143.951 46.96 143.97C46.7686 143.993 46.5133 144.004 46.1943 144.004C45.6748 144.018 45.2419 144.088 44.8955 144.216C44.5492 144.343 44.2598 144.553 44.0273 144.845C43.7949 145.132 43.6172 145.485 43.4941 145.904C43.3711 146.324 43.2731 146.854 43.2002 147.497H43.2412C43.4645 147.014 43.7995 146.643 44.2461 146.383C44.6927 146.118 45.2145 145.986 45.8115 145.986C46.764 145.986 47.5251 146.305 48.0947 146.943C48.6644 147.577 48.9492 148.429 48.9492 149.5C48.9492 150.612 48.6553 151.494 48.0674 152.146C47.484 152.797 46.6888 153.123 45.6816 153.123ZM43.9658 151.571C44.3805 152.068 44.9525 152.316 45.6816 152.316C46.4108 152.316 46.9827 152.068 47.3975 151.571C47.8122 151.07 48.0195 150.38 48.0195 149.5C48.0195 148.652 47.8122 147.989 47.3975 147.511C46.9827 147.028 46.4108 146.786 45.6816 146.786C44.9525 146.786 44.3805 147.028 43.9658 147.511C43.5511 147.989 43.3438 148.652 43.3438 149.5C43.3438 150.38 43.5511 151.07 43.9658 151.571ZM53.6182 145.774C54.5205 145.774 55.2497 146.112 55.8057 146.786C56.3662 147.456 56.6465 148.342 56.6465 149.445C56.6465 150.548 56.3685 151.437 55.8125 152.111C55.2611 152.781 54.5365 153.116 53.6387 153.116C53.0781 153.116 52.5814 152.973 52.1484 152.686C51.7201 152.394 51.4102 152.011 51.2188 151.537H51.1914V155.352H50.2891V145.891H51.1436V147.395H51.1709C51.3714 146.911 51.6882 146.522 52.1211 146.226C52.554 145.925 53.0531 145.774 53.6182 145.774ZM53.4609 152.316C54.1491 152.316 54.6982 152.057 55.1084 151.537C55.5186 151.013 55.7236 150.316 55.7236 149.445C55.7236 148.579 55.5163 147.884 55.1016 147.36C54.6914 146.836 54.1445 146.574 53.4609 146.574C52.7865 146.574 52.2396 146.841 51.8203 147.374C51.401 147.903 51.1914 148.593 51.1914 149.445C51.1914 150.302 51.401 150.995 51.8203 151.523C52.2396 152.052 52.7865 152.316 53.4609 152.316ZM60.249 152.337C60.8734 152.337 61.3997 152.143 61.8281 151.756C62.2565 151.368 62.4707 150.892 62.4707 150.327V149.541L60.3652 149.685C59.8047 149.721 59.374 149.858 59.0732 150.095C58.7725 150.327 58.6221 150.639 58.6221 151.031C58.6221 151.419 58.7725 151.733 59.0732 151.975C59.374 152.216 59.766 152.337 60.249 152.337ZM60.0645 153.116C59.3626 153.116 58.793 152.925 58.3555 152.542C57.9225 152.155 57.7061 151.651 57.7061 151.031C57.7061 150.421 57.9248 149.938 58.3623 149.582C58.8044 149.227 59.4355 149.021 60.2559 148.967L62.4707 148.83V148.215C62.4707 147.7 62.3158 147.299 62.0059 147.012C61.696 146.72 61.2653 146.574 60.7139 146.574C60.1943 146.574 59.7705 146.695 59.4424 146.937C59.1188 147.178 58.9183 147.515 58.8408 147.948H57.9658C58.016 147.301 58.2894 146.777 58.7861 146.376C59.2874 145.975 59.9368 145.774 60.7344 145.774C61.5456 145.774 62.1882 145.986 62.6621 146.41C63.1361 146.834 63.373 147.408 63.373 148.133V153H62.5117V151.646H62.4912C62.2952 152.089 61.974 152.444 61.5273 152.713C61.0807 152.982 60.5931 153.116 60.0645 153.116ZM74.8848 154.88H74.0371V153H65.0205V145.891H65.916V152.248H68.9307V145.891H69.8262V152.248H72.8408V145.891H73.7432V152.248H74.8848V154.88ZM78.7197 146.567C78.0863 146.567 77.5645 146.788 77.1543 147.23C76.7487 147.668 76.5277 148.24 76.4912 148.946H80.8799C80.8708 148.24 80.668 147.668 80.2715 147.23C79.875 146.788 79.3577 146.567 78.7197 146.567ZM80.8252 150.983H81.7207C81.6113 151.608 81.2878 152.12 80.75 152.521C80.2168 152.918 79.5628 153.116 78.7881 153.116C77.79 153.116 77.0016 152.79 76.4229 152.139C75.8441 151.482 75.5547 150.591 75.5547 149.466C75.5547 148.358 75.8441 147.467 76.4229 146.793C77.0016 146.114 77.7718 145.774 78.7334 145.774C79.6722 145.774 80.4196 146.093 80.9756 146.731C81.5316 147.369 81.8096 148.219 81.8096 149.281V149.664H76.4844V149.719C76.4844 150.521 76.694 151.157 77.1133 151.626C77.5326 152.091 78.0977 152.323 78.8086 152.323C79.3327 152.323 79.7747 152.2 80.1348 151.954C80.4948 151.708 80.7249 151.384 80.8252 150.983ZM87.9551 153V149.691H84.0449V153H83.1494V145.891H84.0449V148.939H87.9551V145.891H88.8506V153H87.9551ZM91.4414 153H90.5459V145.891H91.4414V151.605H91.4893L95.4473 145.891H96.3428V153H95.4473V147.285H95.4062L91.4414 153ZM100.424 149.575H102.017V146.643H100.424C99.9043 146.643 99.4919 146.777 99.1865 147.046C98.8812 147.315 98.7285 147.682 98.7285 148.146C98.7285 148.57 98.8835 148.914 99.1934 149.179C99.5033 149.443 99.9134 149.575 100.424 149.575ZM102.017 153V150.327H100.526L98.5781 153H97.5322L99.6035 150.177C99.0521 150.063 98.6191 149.828 98.3047 149.473C97.9902 149.117 97.833 148.68 97.833 148.16C97.833 147.463 98.0654 146.911 98.5303 146.506C98.9997 146.096 99.6286 145.891 100.417 145.891H102.912V153H102.017ZM109.324 149.274L113.057 153H111.867L108.408 149.534H108.367V153H107.472V145.891H108.367V149.083H108.408L111.778 145.891H112.92L109.324 149.274ZM121.813 152.248V146.643H118.751C118.737 146.866 118.699 147.426 118.635 148.324C118.571 149.217 118.53 149.753 118.512 149.931C118.425 151.029 118.213 151.785 117.876 152.2V152.248H121.813ZM117.083 154.88H116.235V152.248H116.81C117.279 151.943 117.566 151.161 117.671 149.903C117.794 148.404 117.887 147.066 117.951 145.891H122.716V152.248H123.864V154.88H123.01V153H117.083V154.88ZM130.119 152.125C129.527 152.786 128.743 153.116 127.768 153.116C126.792 153.116 126.008 152.786 125.416 152.125C124.824 151.46 124.527 150.566 124.527 149.445C124.527 148.324 124.824 147.433 125.416 146.772C126.013 146.107 126.797 145.774 127.768 145.774C128.743 145.774 129.527 146.107 130.119 146.772C130.712 147.433 131.008 148.324 131.008 149.445C131.008 150.566 130.712 151.46 130.119 152.125ZM126.079 151.551C126.498 152.061 127.061 152.316 127.768 152.316C128.474 152.316 129.037 152.061 129.456 151.551C129.88 151.04 130.092 150.339 130.092 149.445C130.092 148.552 129.88 147.85 129.456 147.34C129.037 146.829 128.474 146.574 127.768 146.574C127.061 146.574 126.498 146.829 126.079 147.34C125.66 147.85 125.45 148.552 125.45 149.445C125.45 150.339 125.66 151.04 126.079 151.551ZM134.193 149.274L137.926 153H136.736L133.277 149.534H133.236V153H132.341V145.891H133.236V149.083H133.277L136.647 145.891H137.789L134.193 149.274ZM143.914 145.891V146.643H141.494V153H140.599V146.643H138.179V145.891H143.914ZM150.053 152.125C149.46 152.786 148.676 153.116 147.701 153.116C146.726 153.116 145.942 152.786 145.35 152.125C144.757 151.46 144.461 150.566 144.461 149.445C144.461 148.324 144.757 147.433 145.35 146.772C145.947 146.107 146.73 145.774 147.701 145.774C148.676 145.774 149.46 146.107 150.053 146.772C150.645 147.433 150.941 148.324 150.941 149.445C150.941 150.566 150.645 151.46 150.053 152.125ZM146.013 151.551C146.432 152.061 146.995 152.316 147.701 152.316C148.408 152.316 148.97 152.061 149.39 151.551C149.813 151.04 150.025 150.339 150.025 149.445C150.025 148.552 149.813 147.85 149.39 147.34C148.97 146.829 148.408 146.574 147.701 146.574C146.995 146.574 146.432 146.829 146.013 147.34C145.593 147.85 145.384 148.552 145.384 149.445C145.384 150.339 145.593 151.04 146.013 151.551ZM155.61 145.774C156.513 145.774 157.242 146.112 157.798 146.786C158.358 147.456 158.639 148.342 158.639 149.445C158.639 150.548 158.361 151.437 157.805 152.111C157.253 152.781 156.529 153.116 155.631 153.116C155.07 153.116 154.574 152.973 154.141 152.686C153.712 152.394 153.402 152.011 153.211 151.537H153.184V155.352H152.281V145.891H153.136V147.395H153.163C153.364 146.911 153.68 146.522 154.113 146.226C154.546 145.925 155.045 145.774 155.61 145.774ZM155.453 152.316C156.141 152.316 156.69 152.057 157.101 151.537C157.511 151.013 157.716 150.316 157.716 149.445C157.716 148.579 157.508 147.884 157.094 147.36C156.684 146.836 156.137 146.574 155.453 146.574C154.779 146.574 154.232 146.841 153.812 147.374C153.393 147.903 153.184 148.593 153.184 149.445C153.184 150.302 153.393 150.995 153.812 151.523C154.232 152.052 154.779 152.316 155.453 152.316ZM160.313 155.57C160.149 155.57 159.999 155.557 159.862 155.529V154.757C159.972 154.784 160.115 154.798 160.293 154.798C160.617 154.798 160.876 154.707 161.072 154.524C161.273 154.342 161.453 154.028 161.612 153.581L161.804 153.048L159.138 145.891H160.108L162.269 152.098H162.289L164.456 145.891H165.406L162.61 153.431C162.3 154.265 161.986 154.83 161.667 155.126C161.348 155.422 160.897 155.57 160.313 155.57ZM86.123 163.027C86.123 162.139 86.4421 161.405 87.0801 160.826C87.7227 160.243 88.5339 159.951 89.5137 159.951C90.4525 159.951 91.234 160.215 91.8584 160.744C92.4827 161.273 92.7949 161.929 92.7949 162.713C92.7949 163.264 92.6423 163.788 92.3369 164.285C92.0316 164.777 91.4984 165.413 90.7373 166.192L88.2695 168.674V168.708H92.9521V170H86.2051V168.961L89.7666 165.331C90.3682 164.702 90.7715 164.219 90.9766 163.882C91.1816 163.54 91.2842 163.175 91.2842 162.788C91.2842 162.351 91.1087 161.979 90.7578 161.674C90.4069 161.368 89.9762 161.216 89.4658 161.216C88.9281 161.216 88.4769 161.389 88.1123 161.735C87.7523 162.077 87.5723 162.506 87.5723 163.021V163.041H86.123V163.027ZM98.7148 170V168.052H93.7793V166.712C94.5723 165.217 95.9691 163.025 97.9697 160.136H100.185V166.767H101.538V168.052H100.185V170H98.7148ZM95.208 166.753V166.787H98.7285V161.318H98.7012C97.0697 163.674 95.9053 165.486 95.208 166.753ZM103.268 172.105H101.955L105.455 160.136H106.768L103.268 172.105ZM108.08 170L112.462 161.462V161.428H107.26V160.136H113.973V161.462L109.687 170H108.08Z" fill="#0D1C41"/>
</g>
<defs>
<filter id="filter0_d_60_1740" x="0" y="0" width="201" height="226" filterUnits="userSpaceOnUse" color-interpolation-filters="sRGB">
<feFlood flood-opacity="0" result="BackgroundImageFix"/>
<feColorMatrix in="SourceAlpha" type="matrix" values="0 0 0 0 0 0 0 0 0 0 0 0 0 0 0 0 0 0 127 0" result="hardAlpha"/>
<feOffset dy="2"/>
<feGaussianBlur stdDeviation="9"/>
<feColorMatrix type="matrix" values="0 0 0 0 0.160784 0 0 0 0 0.160784 0 0 0 0 0.160784 0 0 0 0.1 0"/>
<feBlend mode="normal" in2="BackgroundImageFix" result="effect1_dropShadow_60_1740"/>
<feBlend mode="normal" in="SourceGraphic" in2="effect1_dropShadow_60_1740" result="shape"/>
</filter>
<clipPath id="clip0_60_1740">
<rect width="69" height="69" fill="white" transform="translate(66 50)"/>
</clipPath>
</defs>
</svg>
