<svg width="201" height="201" viewBox="0 0 201 201" fill="none" xmlns="http://www.w3.org/2000/svg">
<g filter="url(#filter0_d_60_2233)">
<rect x="18" y="16" width="165" height="165" rx="20" fill="white"/>
<g clip-path="url(#clip0_60_2233)">
<path d="M100.5 100C115.663 100 128 87.6638 128 72.5C128 69.8827 127.635 67.3035 126.911 64.8333C126.555 63.6187 125.286 62.921 124.068 63.2774C122.853 63.6327 122.157 64.9055 122.513 66.1201C123.112 68.1724 123.417 70.3197 123.417 72.5C123.417 85.1361 113.136 95.4167 100.5 95.4167C87.8639 95.4167 77.5833 85.1361 77.5833 72.5C77.5833 59.8639 87.8639 49.5833 100.5 49.5833C105.092 49.5833 109.511 50.9261 113.277 53.4656C114.326 54.1734 115.751 53.8953 116.458 52.8468C117.165 51.7972 116.889 50.3728 115.84 49.6656C111.313 46.6136 106.009 45 100.5 45C85.3373 45 73 57.3362 73 72.5C73 87.6638 85.3373 100 100.5 100Z" fill="black"/>
<path d="M124.088 50.255L100.5 73.8419L92.9536 66.2966C92.0585 65.402 90.6083 65.402 89.7131 66.2966C88.8185 67.1918 88.8185 68.642 89.7131 69.5372L98.8798 78.7038C99.3279 79.152 99.9131 79.3752 100.5 79.3752C101.087 79.3752 101.672 79.152 102.12 78.7038L127.329 53.4955C128.223 52.6003 128.223 51.1501 127.329 50.255C126.433 49.3603 124.983 49.3603 124.088 50.255Z" fill="#DDD0A4"/>
</g>
<path d="M53.8984 138.075C53.5885 138.075 53.3698 138.046 53.2422 137.986V136.667C53.4062 136.708 53.5954 136.729 53.8096 136.729C54.1559 136.729 54.4499 136.656 54.6914 136.51C54.9375 136.364 55.154 136.129 55.3408 135.806L52.0049 128.136H53.6318L56.0996 134.199H56.2021L58.5947 128.136H60.1943L57.1729 135.177C56.7126 136.252 56.2432 137.004 55.7646 137.433C55.2907 137.861 54.6686 138.075 53.8984 138.075ZM63.2842 138.137C62.4411 138.137 61.7484 137.943 61.2061 137.556C60.6683 137.168 60.3675 136.644 60.3037 135.983H61.7598C61.8327 136.293 62.0013 136.533 62.2656 136.701C62.5299 136.865 62.8695 136.947 63.2842 136.947C63.749 136.947 64.109 136.849 64.3643 136.653C64.624 136.457 64.7539 136.198 64.7539 135.874C64.7539 135.177 64.2663 134.828 63.291 134.828H62.2383V133.741H63.2705C64.109 133.741 64.5283 133.427 64.5283 132.798C64.5283 132.511 64.4235 132.283 64.2139 132.114C64.0042 131.941 63.6966 131.854 63.291 131.854C62.8945 131.854 62.571 131.934 62.3203 132.094C62.0697 132.253 61.9193 132.474 61.8691 132.757H60.4541C60.5316 132.114 60.821 131.608 61.3223 131.239C61.8281 130.866 62.4821 130.679 63.2842 130.679C64.141 130.679 64.8018 130.856 65.2666 131.212C65.736 131.563 65.9707 132.044 65.9707 132.654C65.9707 133.023 65.8659 133.349 65.6562 133.632C65.4466 133.914 65.1686 134.099 64.8223 134.186V134.24C65.278 134.345 65.6243 134.539 65.8613 134.821C66.1029 135.104 66.2236 135.452 66.2236 135.867C66.2236 136.551 65.9548 137.1 65.417 137.515C64.8838 137.929 64.1729 138.137 63.2842 138.137ZM72.2461 138V134.869H68.9922V138H67.5225V130.809H68.9922V133.707H72.2461V130.809H73.7158V138H72.2461ZM77.8379 136.954C78.3574 136.954 78.7926 136.797 79.1436 136.482C79.499 136.163 79.6768 135.771 79.6768 135.307V134.739L77.9062 134.849C77.4642 134.881 77.1224 134.99 76.8809 135.177C76.6439 135.359 76.5254 135.605 76.5254 135.915C76.5254 136.229 76.6439 136.482 76.8809 136.674C77.1224 136.861 77.4414 136.954 77.8379 136.954ZM77.4277 138.123C76.7214 138.123 76.1449 137.923 75.6982 137.521C75.2562 137.12 75.0352 136.599 75.0352 135.956C75.0352 135.327 75.2676 134.828 75.7324 134.459C76.1973 134.085 76.8558 133.876 77.708 133.83L79.6768 133.714V133.16C79.6768 132.759 79.5492 132.447 79.2939 132.224C79.0387 131.996 78.6855 131.882 78.2344 131.882C77.8151 131.882 77.4733 131.975 77.209 132.162C76.9492 132.349 76.7852 132.606 76.7168 132.935H75.3223C75.3633 132.269 75.6504 131.727 76.1836 131.308C76.7168 130.888 77.4186 130.679 78.2891 130.679C79.1595 130.679 79.8522 130.893 80.3672 131.321C80.8867 131.75 81.1465 132.324 81.1465 133.044V138H79.7314V136.817H79.6973C79.4922 137.214 79.18 137.531 78.7607 137.768C78.346 138.005 77.9017 138.123 77.4277 138.123ZM84.1543 138H82.6982V130.809H84.1543V135.847H84.209L87.5312 130.809H88.9873V138H87.5312V132.948H87.4766L84.1543 138ZM83.6758 127.65H84.6738C84.6784 128.042 84.7969 128.368 85.0293 128.628C85.2617 128.883 85.5671 129.011 85.9453 129.011C86.3281 129.011 86.6357 128.883 86.8682 128.628C87.1006 128.368 87.2191 128.042 87.2236 127.65H88.2217C88.2217 128.298 88.012 128.822 87.5928 129.223C87.1735 129.619 86.6243 129.817 85.9453 129.817C85.2708 129.817 84.724 129.619 84.3047 129.223C83.8854 128.822 83.6758 128.298 83.6758 127.65ZM96.042 130.809V131.978H93.7861V138H92.3164V131.978H90.0605V130.809H96.042ZM101.251 132.388C100.927 132.041 100.51 131.868 100 131.868C99.4896 131.868 99.0658 132.044 98.7285 132.395C98.3913 132.741 98.2044 133.19 98.168 133.741H101.764C101.745 133.185 101.575 132.734 101.251 132.388ZM101.757 135.888H103.158C103.053 136.549 102.716 137.089 102.146 137.508C101.577 137.927 100.882 138.137 100.062 138.137C99.0088 138.137 98.1794 137.806 97.5732 137.146C96.9717 136.48 96.6709 135.578 96.6709 134.438C96.6709 133.308 96.9717 132.399 97.5732 131.711C98.1794 131.023 98.9883 130.679 100 130.679C100.993 130.679 101.782 131.005 102.365 131.656C102.949 132.303 103.24 133.174 103.24 134.268V134.773H98.1611V134.862C98.1611 135.491 98.3366 135.995 98.6875 136.373C99.0384 136.751 99.5078 136.94 100.096 136.94C100.51 136.94 100.866 136.845 101.162 136.653C101.458 136.462 101.657 136.207 101.757 135.888ZM113.487 133.112H112.065C111.965 132.757 111.774 132.467 111.491 132.244C111.209 132.021 110.849 131.909 110.411 131.909C109.841 131.909 109.383 132.137 109.037 132.593C108.695 133.044 108.524 133.648 108.524 134.404C108.524 135.179 108.695 135.79 109.037 136.236C109.383 136.678 109.846 136.899 110.425 136.899C110.858 136.899 111.215 136.797 111.498 136.592C111.781 136.382 111.974 136.088 112.079 135.71H113.501C113.396 136.439 113.063 137.027 112.503 137.474C111.947 137.916 111.25 138.137 110.411 138.137C109.377 138.137 108.554 137.802 107.943 137.132C107.333 136.462 107.027 135.553 107.027 134.404C107.027 133.274 107.333 132.372 107.943 131.697C108.559 131.018 109.377 130.679 110.397 130.679C111.25 130.679 111.949 130.911 112.496 131.376C113.048 131.836 113.378 132.415 113.487 133.112ZM120.009 130.809V131.978H117.753V138H116.283V131.978H114.027V130.809H120.009ZM123.379 136.954C123.898 136.954 124.334 136.797 124.685 136.482C125.04 136.163 125.218 135.771 125.218 135.307V134.739L123.447 134.849C123.005 134.881 122.663 134.99 122.422 135.177C122.185 135.359 122.066 135.605 122.066 135.915C122.066 136.229 122.185 136.482 122.422 136.674C122.663 136.861 122.982 136.954 123.379 136.954ZM122.969 138.123C122.262 138.123 121.686 137.923 121.239 137.521C120.797 137.12 120.576 136.599 120.576 135.956C120.576 135.327 120.809 134.828 121.273 134.459C121.738 134.085 122.397 133.876 123.249 133.83L125.218 133.714V133.16C125.218 132.759 125.09 132.447 124.835 132.224C124.58 131.996 124.227 131.882 123.775 131.882C123.356 131.882 123.014 131.975 122.75 132.162C122.49 132.349 122.326 132.606 122.258 132.935H120.863C120.904 132.269 121.191 131.727 121.725 131.308C122.258 130.888 122.96 130.679 123.83 130.679C124.701 130.679 125.393 130.893 125.908 131.321C126.428 131.75 126.688 132.324 126.688 133.044V138H125.272V136.817H125.238C125.033 137.214 124.721 137.531 124.302 137.768C123.887 138.005 123.443 138.123 122.969 138.123ZM133.599 130.809V131.978H131.343V138H129.873V131.978H127.617V130.809H133.599ZM135.396 140.68C135.118 140.68 134.918 140.668 134.795 140.646V139.449C134.868 139.467 135.027 139.477 135.273 139.477C135.62 139.477 135.891 139.397 136.087 139.237C136.283 139.082 136.438 138.82 136.552 138.451C136.552 138.447 136.575 138.371 136.62 138.226L136.682 138.007L134.084 130.809H135.684L137.509 136.66H137.529L139.354 130.809H140.913L138.213 138.376C137.908 139.246 137.55 139.848 137.14 140.181C136.729 140.513 136.148 140.68 135.396 140.68ZM147.831 133.112H146.409C146.309 132.757 146.118 132.467 145.835 132.244C145.552 132.021 145.192 131.909 144.755 131.909C144.185 131.909 143.727 132.137 143.381 132.593C143.039 133.044 142.868 133.648 142.868 134.404C142.868 135.179 143.039 135.79 143.381 136.236C143.727 136.678 144.19 136.899 144.769 136.899C145.201 136.899 145.559 136.797 145.842 136.592C146.124 136.382 146.318 136.088 146.423 135.71H147.845C147.74 136.439 147.407 137.027 146.847 137.474C146.291 137.916 145.593 138.137 144.755 138.137C143.72 138.137 142.898 137.802 142.287 137.132C141.676 136.462 141.371 135.553 141.371 134.404C141.371 133.274 141.676 132.372 142.287 131.697C142.902 131.018 143.72 130.679 144.741 130.679C145.593 130.679 146.293 130.911 146.84 131.376C147.391 131.836 147.722 132.415 147.831 133.112ZM48.1904 147.692C49.1064 147.692 49.8402 148.027 50.3916 148.697C50.943 149.367 51.2188 150.27 51.2188 151.404C51.2188 152.539 50.9453 153.444 50.3984 154.118C49.8516 154.788 49.1247 155.123 48.2178 155.123C47.7074 155.123 47.2539 155.007 46.8574 154.774C46.4655 154.542 46.1647 154.223 45.9551 153.817H45.9209V157.379H44.4443V147.809H45.873V149.046H45.9004C46.1146 148.627 46.4222 148.296 46.8232 148.055C47.2243 147.813 47.68 147.692 48.1904 147.692ZM47.8008 153.872C48.3841 153.872 48.8467 153.651 49.1885 153.209C49.5303 152.762 49.7012 152.161 49.7012 151.404C49.7012 150.652 49.5303 150.053 49.1885 149.606C48.8467 149.16 48.3841 148.937 47.8008 148.937C47.2357 148.937 46.7799 149.162 46.4336 149.613C46.0872 150.064 45.9141 150.661 45.9141 151.404C45.9141 152.152 46.085 152.751 46.4268 153.202C46.7731 153.649 47.2311 153.872 47.8008 153.872ZM56.7559 149.388C56.4323 149.041 56.0153 148.868 55.5049 148.868C54.9945 148.868 54.5706 149.044 54.2334 149.395C53.8962 149.741 53.7093 150.19 53.6729 150.741H57.2686C57.2503 150.185 57.0794 149.734 56.7559 149.388ZM57.2617 152.888H58.6631C58.5583 153.549 58.221 154.089 57.6514 154.508C57.0817 154.927 56.3867 155.137 55.5664 155.137C54.5137 155.137 53.6842 154.806 53.0781 154.146C52.4766 153.48 52.1758 152.578 52.1758 151.438C52.1758 150.308 52.4766 149.399 53.0781 148.711C53.6842 148.023 54.4932 147.679 55.5049 147.679C56.4984 147.679 57.2868 148.005 57.8701 148.656C58.4535 149.303 58.7451 150.174 58.7451 151.268V151.773H53.666V151.862C53.666 152.491 53.8415 152.995 54.1924 153.373C54.5433 153.751 55.0127 153.94 55.6006 153.94C56.0153 153.94 56.3708 153.845 56.667 153.653C56.9632 153.462 57.1615 153.207 57.2617 152.888ZM60.0098 155V147.809H61.4795V153.831H63.8926V147.809H65.3623V153.831H67.7754V147.809H69.2451V155H60.0098ZM75.1035 149.388C74.7799 149.041 74.363 148.868 73.8525 148.868C73.3421 148.868 72.9183 149.044 72.5811 149.395C72.2438 149.741 72.057 150.19 72.0205 150.741H75.6162C75.598 150.185 75.4271 149.734 75.1035 149.388ZM75.6094 152.888H77.0107C76.9059 153.549 76.5687 154.089 75.999 154.508C75.4294 154.927 74.7344 155.137 73.9141 155.137C72.8613 155.137 72.0319 154.806 71.4258 154.146C70.8242 153.48 70.5234 152.578 70.5234 151.438C70.5234 150.308 70.8242 149.399 71.4258 148.711C72.0319 148.023 72.8408 147.679 73.8525 147.679C74.846 147.679 75.6344 148.005 76.2178 148.656C76.8011 149.303 77.0928 150.174 77.0928 151.268V151.773H72.0137V151.862C72.0137 152.491 72.1891 152.995 72.54 153.373C72.891 153.751 73.3604 153.94 73.9482 153.94C74.363 153.94 74.7184 153.845 75.0146 153.653C75.3109 153.462 75.5091 153.207 75.6094 152.888ZM83.0811 155V151.869H79.8271V155H78.3574V147.809H79.8271V150.707H83.0811V147.809H84.5508V155H83.0811ZM87.6064 155H86.1504V147.809H87.6064V152.847H87.6611L90.9834 147.809H92.4395V155H90.9834V149.948H90.9287L87.6064 155ZM96.7529 151.397H98.0586V148.971H96.7529C96.3291 148.971 95.9919 149.085 95.7412 149.312C95.4951 149.536 95.3721 149.841 95.3721 150.229C95.3721 150.575 95.4974 150.857 95.748 151.076C96.0033 151.29 96.3382 151.397 96.7529 151.397ZM98.0586 155V152.532H96.9648L95.2217 155H93.5537L95.5156 152.279C95.0143 152.129 94.6201 151.876 94.333 151.521C94.0459 151.16 93.9023 150.732 93.9023 150.235C93.9023 149.488 94.153 148.898 94.6543 148.465C95.1602 148.027 95.8346 147.809 96.6777 147.809H99.5078V155H98.0586ZM106.904 148.882H105.394V150.769H106.761C107.595 150.769 108.012 150.45 108.012 149.812C108.012 149.515 107.916 149.287 107.725 149.128C107.533 148.964 107.26 148.882 106.904 148.882ZM106.856 151.801H105.394V153.927H107.021C107.44 153.927 107.759 153.838 107.978 153.66C108.196 153.478 108.306 153.214 108.306 152.867C108.306 152.156 107.823 151.801 106.856 151.801ZM103.938 155V147.809H107.205C107.907 147.809 108.456 147.973 108.853 148.301C109.254 148.624 109.454 149.071 109.454 149.641C109.454 150.014 109.336 150.352 109.099 150.652C108.866 150.949 108.577 151.129 108.23 151.192V151.247C108.695 151.311 109.069 151.495 109.352 151.801C109.634 152.102 109.775 152.478 109.775 152.929C109.775 153.562 109.548 154.066 109.092 154.439C108.641 154.813 108.025 155 107.246 155H103.938ZM116.666 154.139C116.046 154.804 115.219 155.137 114.185 155.137C113.15 155.137 112.323 154.804 111.703 154.139C111.083 153.469 110.773 152.557 110.773 151.404C110.773 150.256 111.083 149.349 111.703 148.684C112.323 148.014 113.15 147.679 114.185 147.679C115.219 147.679 116.046 148.014 116.666 148.684C117.286 149.349 117.596 150.256 117.596 151.404C117.596 152.557 117.286 153.469 116.666 154.139ZM114.185 153.92C114.772 153.92 115.237 153.699 115.579 153.257C115.921 152.815 116.092 152.197 116.092 151.404C116.092 150.616 115.919 150.001 115.572 149.559C115.23 149.117 114.768 148.896 114.185 148.896C113.601 148.896 113.136 149.117 112.79 149.559C112.448 150.001 112.277 150.616 112.277 151.404C112.277 152.197 112.448 152.815 112.79 153.257C113.136 153.699 113.601 153.92 114.185 153.92ZM123.522 155V148.978H120.337V155H118.867V147.809H124.999V155H123.522ZM130.345 147.692C131.261 147.692 131.994 148.027 132.546 148.697C133.097 149.367 133.373 150.27 133.373 151.404C133.373 152.539 133.1 153.444 132.553 154.118C132.006 154.788 131.279 155.123 130.372 155.123C129.862 155.123 129.408 155.007 129.012 154.774C128.62 154.542 128.319 154.223 128.109 153.817H128.075V157.379H126.599V147.809H128.027V149.046H128.055C128.269 148.627 128.576 148.296 128.978 148.055C129.379 147.813 129.834 147.692 130.345 147.692ZM129.955 153.872C130.538 153.872 131.001 153.651 131.343 153.209C131.685 152.762 131.855 152.161 131.855 151.404C131.855 150.652 131.685 150.053 131.343 149.606C131.001 149.16 130.538 148.937 129.955 148.937C129.39 148.937 128.934 149.162 128.588 149.613C128.242 150.064 128.068 150.661 128.068 151.404C128.068 152.152 128.239 152.751 128.581 153.202C128.927 153.649 129.385 153.872 129.955 153.872ZM140.223 154.139C139.603 154.804 138.776 155.137 137.741 155.137C136.707 155.137 135.88 154.804 135.26 154.139C134.64 153.469 134.33 152.557 134.33 151.404C134.33 150.256 134.64 149.349 135.26 148.684C135.88 148.014 136.707 147.679 137.741 147.679C138.776 147.679 139.603 148.014 140.223 148.684C140.842 149.349 141.152 150.256 141.152 151.404C141.152 152.557 140.842 153.469 140.223 154.139ZM137.741 153.92C138.329 153.92 138.794 153.699 139.136 153.257C139.478 152.815 139.648 152.197 139.648 151.404C139.648 150.616 139.475 150.001 139.129 149.559C138.787 149.117 138.325 148.896 137.741 148.896C137.158 148.896 136.693 149.117 136.347 149.559C136.005 150.001 135.834 150.616 135.834 151.404C135.834 152.197 136.005 152.815 136.347 153.257C136.693 153.699 137.158 153.92 137.741 153.92ZM148.562 150.112H147.141C147.04 149.757 146.849 149.467 146.566 149.244C146.284 149.021 145.924 148.909 145.486 148.909C144.917 148.909 144.459 149.137 144.112 149.593C143.771 150.044 143.6 150.648 143.6 151.404C143.6 152.179 143.771 152.79 144.112 153.236C144.459 153.678 144.921 153.899 145.5 153.899C145.933 153.899 146.291 153.797 146.573 153.592C146.856 153.382 147.049 153.088 147.154 152.71H148.576C148.471 153.439 148.139 154.027 147.578 154.474C147.022 154.916 146.325 155.137 145.486 155.137C144.452 155.137 143.629 154.802 143.019 154.132C142.408 153.462 142.103 152.553 142.103 151.404C142.103 150.274 142.408 149.372 143.019 148.697C143.634 148.018 144.452 147.679 145.473 147.679C146.325 147.679 147.024 147.911 147.571 148.376C148.123 148.836 148.453 149.415 148.562 150.112ZM152.288 153.954C152.808 153.954 153.243 153.797 153.594 153.482C153.949 153.163 154.127 152.771 154.127 152.307V151.739L152.356 151.849C151.914 151.881 151.573 151.99 151.331 152.177C151.094 152.359 150.976 152.605 150.976 152.915C150.976 153.229 151.094 153.482 151.331 153.674C151.573 153.861 151.892 153.954 152.288 153.954ZM151.878 155.123C151.172 155.123 150.595 154.923 150.148 154.521C149.706 154.12 149.485 153.599 149.485 152.956C149.485 152.327 149.718 151.828 150.183 151.459C150.647 151.085 151.306 150.876 152.158 150.83L154.127 150.714V150.16C154.127 149.759 153.999 149.447 153.744 149.224C153.489 148.996 153.136 148.882 152.685 148.882C152.265 148.882 151.924 148.975 151.659 149.162C151.399 149.349 151.235 149.606 151.167 149.935H149.772C149.813 149.269 150.101 148.727 150.634 148.308C151.167 147.888 151.869 147.679 152.739 147.679C153.61 147.679 154.302 147.893 154.817 148.321C155.337 148.75 155.597 149.324 155.597 150.044V155H154.182V153.817H154.147C153.942 154.214 153.63 154.531 153.211 154.768C152.796 155.005 152.352 155.123 151.878 155.123Z" fill="black"/>
<rect x="18.5" y="16.5" width="164" height="164" rx="19.5" stroke="#4A607A"/>
</g>
<defs>
<filter id="filter0_d_60_2233" x="0" y="0" width="201" height="201" filterUnits="userSpaceOnUse" color-interpolation-filters="sRGB">
<feFlood flood-opacity="0" result="BackgroundImageFix"/>
<feColorMatrix in="SourceAlpha" type="matrix" values="0 0 0 0 0 0 0 0 0 0 0 0 0 0 0 0 0 0 127 0" result="hardAlpha"/>
<feOffset dy="2"/>
<feGaussianBlur stdDeviation="9"/>
<feColorMatrix type="matrix" values="0 0 0 0 0.160784 0 0 0 0 0.160784 0 0 0 0 0.160784 0 0 0 0.1 0"/>
<feBlend mode="normal" in2="BackgroundImageFix" result="effect1_dropShadow_60_2233"/>
<feBlend mode="normal" in="SourceGraphic" in2="effect1_dropShadow_60_2233" result="shape"/>
</filter>
<clipPath id="clip0_60_2233">
<rect width="55" height="55" fill="white" transform="translate(73 45)"/>
</clipPath>
</defs>
</svg>
