<svg width="201" height="226" viewBox="0 0 201 226" fill="none" xmlns="http://www.w3.org/2000/svg">
<g filter="url(#filter0_d_60_1772)">
<rect x="18" y="16" width="165" height="190" rx="20" fill="white"/>
<path d="M43.3037 152.125C42.7113 152.786 41.9274 153.116 40.9521 153.116C39.9769 153.116 39.193 152.786 38.6006 152.125C38.0081 151.46 37.7119 150.566 37.7119 149.445C37.7119 148.324 38.0081 147.433 38.6006 146.772C39.1976 146.107 39.9814 145.774 40.9521 145.774C41.9274 145.774 42.7113 146.107 43.3037 146.772C43.8962 147.433 44.1924 148.324 44.1924 149.445C44.1924 150.566 43.8962 151.46 43.3037 152.125ZM39.2637 151.551C39.6829 152.061 40.2458 152.316 40.9521 152.316C41.6585 152.316 42.2214 152.061 42.6406 151.551C43.0645 151.04 43.2764 150.339 43.2764 149.445C43.2764 148.552 43.0645 147.85 42.6406 147.34C42.2214 146.829 41.6585 146.574 40.9521 146.574C40.2458 146.574 39.6829 146.829 39.2637 147.34C38.8444 147.85 38.6348 148.552 38.6348 149.445C38.6348 150.339 38.8444 151.04 39.2637 151.551ZM48.5127 153.123C47.4554 153.123 46.6465 152.765 46.0859 152.05C45.5299 151.334 45.252 150.295 45.252 148.933C45.252 146.882 45.5322 145.421 46.0928 144.551C46.6579 143.676 47.624 143.22 48.9912 143.184C49.3102 143.184 49.5609 143.172 49.7432 143.149C50.4313 143.108 50.9531 143.001 51.3086 142.828V143.621C51.1992 143.703 51.0033 143.778 50.7207 143.847C50.4427 143.91 50.1328 143.951 49.791 143.97C49.5996 143.993 49.3444 144.004 49.0254 144.004C48.5059 144.018 48.0729 144.088 47.7266 144.216C47.3802 144.343 47.0908 144.553 46.8584 144.845C46.626 145.132 46.4482 145.485 46.3252 145.904C46.2021 146.324 46.1042 146.854 46.0312 147.497H46.0723C46.2956 147.014 46.6305 146.643 47.0771 146.383C47.5238 146.118 48.0456 145.986 48.6426 145.986C49.5951 145.986 50.3561 146.305 50.9258 146.943C51.4954 147.577 51.7803 148.429 51.7803 149.5C51.7803 150.612 51.4863 151.494 50.8984 152.146C50.3151 152.797 49.5199 153.123 48.5127 153.123ZM46.7969 151.571C47.2116 152.068 47.7835 152.316 48.5127 152.316C49.2419 152.316 49.8138 152.068 50.2285 151.571C50.6432 151.07 50.8506 150.38 50.8506 149.5C50.8506 148.652 50.6432 147.989 50.2285 147.511C49.8138 147.028 49.2419 146.786 48.5127 146.786C47.7835 146.786 47.2116 147.028 46.7969 147.511C46.3822 147.989 46.1748 148.652 46.1748 149.5C46.1748 150.38 46.3822 151.07 46.7969 151.571ZM56.4492 145.774C57.3516 145.774 58.0807 146.112 58.6367 146.786C59.1973 147.456 59.4775 148.342 59.4775 149.445C59.4775 150.548 59.1995 151.437 58.6436 152.111C58.0921 152.781 57.3675 153.116 56.4697 153.116C55.9092 153.116 55.4124 152.973 54.9795 152.686C54.5511 152.394 54.2412 152.011 54.0498 151.537H54.0225V155.352H53.1201V145.891H53.9746V147.395H54.002C54.2025 146.911 54.5192 146.522 54.9521 146.226C55.3851 145.925 55.8841 145.774 56.4492 145.774ZM56.292 152.316C56.9801 152.316 57.5293 152.057 57.9395 151.537C58.3496 151.013 58.5547 150.316 58.5547 149.445C58.5547 148.579 58.3473 147.884 57.9326 147.36C57.5225 146.836 56.9756 146.574 56.292 146.574C55.6175 146.574 55.0706 146.841 54.6514 147.374C54.2321 147.903 54.0225 148.593 54.0225 149.445C54.0225 150.302 54.2321 150.995 54.6514 151.523C55.0706 152.052 55.6175 152.316 56.292 152.316ZM63.0801 152.337C63.7044 152.337 64.2308 152.143 64.6592 151.756C65.0876 151.368 65.3018 150.892 65.3018 150.327V149.541L63.1963 149.685C62.6357 149.721 62.2051 149.858 61.9043 150.095C61.6035 150.327 61.4531 150.639 61.4531 151.031C61.4531 151.419 61.6035 151.733 61.9043 151.975C62.2051 152.216 62.597 152.337 63.0801 152.337ZM62.8955 153.116C62.1937 153.116 61.624 152.925 61.1865 152.542C60.7536 152.155 60.5371 151.651 60.5371 151.031C60.5371 150.421 60.7559 149.938 61.1934 149.582C61.6354 149.227 62.2666 149.021 63.0869 148.967L65.3018 148.83V148.215C65.3018 147.7 65.1468 147.299 64.8369 147.012C64.527 146.72 64.0964 146.574 63.5449 146.574C63.0254 146.574 62.6016 146.695 62.2734 146.937C61.9499 147.178 61.7493 147.515 61.6719 147.948H60.7969C60.847 147.301 61.1204 146.777 61.6172 146.376C62.1185 145.975 62.7679 145.774 63.5654 145.774C64.3766 145.774 65.0192 145.986 65.4932 146.41C65.9671 146.834 66.2041 147.408 66.2041 148.133V153H65.3428V151.646H65.3223C65.1263 152.089 64.805 152.444 64.3584 152.713C63.9118 152.982 63.4242 153.116 62.8955 153.116ZM77.7158 154.88H76.8682V153H67.8516V145.891H68.7471V152.248H71.7617V145.891H72.6572V152.248H75.6719V145.891H76.5742V152.248H77.7158V154.88ZM81.5508 146.567C80.9173 146.567 80.3955 146.788 79.9854 147.23C79.5798 147.668 79.3587 148.24 79.3223 148.946H83.7109C83.7018 148.24 83.499 147.668 83.1025 147.23C82.7061 146.788 82.1888 146.567 81.5508 146.567ZM83.6562 150.983H84.5518C84.4424 151.608 84.1188 152.12 83.5811 152.521C83.0479 152.918 82.3939 153.116 81.6191 153.116C80.6211 153.116 79.8327 152.79 79.2539 152.139C78.6751 151.482 78.3857 150.591 78.3857 149.466C78.3857 148.358 78.6751 147.467 79.2539 146.793C79.8327 146.114 80.6029 145.774 81.5645 145.774C82.5033 145.774 83.2507 146.093 83.8066 146.731C84.3626 147.369 84.6406 148.219 84.6406 149.281V149.664H79.3154V149.719C79.3154 150.521 79.5251 151.157 79.9443 151.626C80.3636 152.091 80.9287 152.323 81.6396 152.323C82.1637 152.323 82.6058 152.2 82.9658 151.954C83.3258 151.708 83.556 151.384 83.6562 150.983ZM90.7861 153V149.691H86.876V153H85.9805V145.891H86.876V148.939H90.7861V145.891H91.6816V153H90.7861ZM94.2725 153H93.377V145.891H94.2725V151.605H94.3203L98.2783 145.891H99.1738V153H98.2783V147.285H98.2373L94.2725 153ZM103.255 149.575H104.848V146.643H103.255C102.735 146.643 102.323 146.777 102.018 147.046C101.712 147.315 101.56 147.682 101.56 148.146C101.56 148.57 101.715 148.914 102.024 149.179C102.334 149.443 102.744 149.575 103.255 149.575ZM104.848 153V150.327H103.357L101.409 153H100.363L102.435 150.177C101.883 150.063 101.45 149.828 101.136 149.473C100.821 149.117 100.664 148.68 100.664 148.16C100.664 147.463 100.896 146.911 101.361 146.506C101.831 146.096 102.46 145.891 103.248 145.891H105.743V153H104.848ZM112.155 149.274L115.888 153H114.698L111.239 149.534H111.198V153H110.303V145.891H111.198V149.083H111.239L114.609 145.891H115.751L112.155 149.274ZM122.525 146.636H120.659V148.953H122.396C122.883 148.953 123.255 148.851 123.51 148.646C123.77 148.44 123.899 148.144 123.899 147.757C123.899 147.401 123.779 147.126 123.537 146.93C123.3 146.734 122.963 146.636 122.525 146.636ZM122.464 149.691H120.659V152.255H122.628C123.152 152.255 123.551 152.146 123.824 151.927C124.098 151.708 124.234 151.387 124.234 150.963C124.234 150.544 124.082 150.227 123.776 150.013C123.476 149.799 123.038 149.691 122.464 149.691ZM119.764 153V145.891H122.635C123.3 145.891 123.824 146.05 124.207 146.369C124.59 146.684 124.781 147.119 124.781 147.675C124.781 148.067 124.663 148.411 124.426 148.707C124.193 149.003 123.897 149.186 123.537 149.254V149.302C124.007 149.356 124.387 149.534 124.679 149.835C124.975 150.136 125.123 150.519 125.123 150.983C125.123 151.617 124.904 152.111 124.467 152.467C124.034 152.822 123.435 153 122.669 153H119.764ZM129.812 145.774C130.715 145.774 131.444 146.112 132 146.786C132.561 147.456 132.841 148.342 132.841 149.445C132.841 150.548 132.563 151.437 132.007 152.111C131.455 152.781 130.731 153.116 129.833 153.116C129.272 153.116 128.776 152.973 128.343 152.686C127.914 152.394 127.604 152.011 127.413 151.537H127.386V155.352H126.483V145.891H127.338V147.395H127.365C127.566 146.911 127.882 146.522 128.315 146.226C128.748 145.925 129.247 145.774 129.812 145.774ZM129.655 152.316C130.343 152.316 130.893 152.057 131.303 151.537C131.713 151.013 131.918 150.316 131.918 149.445C131.918 148.579 131.711 147.884 131.296 147.36C130.886 146.836 130.339 146.574 129.655 146.574C128.981 146.574 128.434 146.841 128.015 147.374C127.595 147.903 127.386 148.593 127.386 149.445C127.386 150.302 127.595 150.995 128.015 151.523C128.434 152.052 128.981 152.316 129.655 152.316ZM136.443 152.337C137.068 152.337 137.594 152.143 138.022 151.756C138.451 151.368 138.665 150.892 138.665 150.327V149.541L136.56 149.685C135.999 149.721 135.568 149.858 135.268 150.095C134.967 150.327 134.816 150.639 134.816 151.031C134.816 151.419 134.967 151.733 135.268 151.975C135.568 152.216 135.96 152.337 136.443 152.337ZM136.259 153.116C135.557 153.116 134.987 152.925 134.55 152.542C134.117 152.155 133.9 151.651 133.9 151.031C133.9 150.421 134.119 149.938 134.557 149.582C134.999 149.227 135.63 149.021 136.45 148.967L138.665 148.83V148.215C138.665 147.7 138.51 147.299 138.2 147.012C137.89 146.72 137.46 146.574 136.908 146.574C136.389 146.574 135.965 146.695 135.637 146.937C135.313 147.178 135.113 147.515 135.035 147.948H134.16C134.21 147.301 134.484 146.777 134.98 146.376C135.482 145.975 136.131 145.774 136.929 145.774C137.74 145.774 138.382 145.986 138.856 146.41C139.33 146.834 139.567 147.408 139.567 148.133V153H138.706V151.646H138.686C138.49 152.089 138.168 152.444 137.722 152.713C137.275 152.982 136.787 153.116 136.259 153.116ZM146.438 153H145.542V149.787H145.46C145 150.206 144.391 150.416 143.635 150.416C142.801 150.416 142.158 150.186 141.707 149.726C141.256 149.265 141.03 148.646 141.03 147.866V145.891H141.926V147.853C141.926 148.395 142.074 148.826 142.37 149.145C142.671 149.459 143.099 149.616 143.655 149.616C144.457 149.616 145.086 149.359 145.542 148.844V145.891H146.438V153ZM150.43 152.337C151.054 152.337 151.58 152.143 152.009 151.756C152.437 151.368 152.651 150.892 152.651 150.327V149.541L150.546 149.685C149.985 149.721 149.555 149.858 149.254 150.095C148.953 150.327 148.803 150.639 148.803 151.031C148.803 151.419 148.953 151.733 149.254 151.975C149.555 152.216 149.947 152.337 150.43 152.337ZM150.245 153.116C149.543 153.116 148.974 152.925 148.536 152.542C148.103 152.155 147.887 151.651 147.887 151.031C147.887 150.421 148.105 149.938 148.543 149.582C148.985 149.227 149.616 149.021 150.437 148.967L152.651 148.83V148.215C152.651 147.7 152.496 147.299 152.187 147.012C151.877 146.72 151.446 146.574 150.895 146.574C150.375 146.574 149.951 146.695 149.623 146.937C149.299 147.178 149.099 147.515 149.021 147.948H148.146C148.197 147.301 148.47 146.777 148.967 146.376C149.468 145.975 150.118 145.774 150.915 145.774C151.726 145.774 152.369 145.986 152.843 146.41C153.317 146.834 153.554 147.408 153.554 148.133V153H152.692V151.646H152.672C152.476 152.089 152.155 152.444 151.708 152.713C151.261 152.982 150.774 153.116 150.245 153.116ZM156.097 153H155.201V145.891H156.288L159.063 151.811H159.111L161.887 145.891H162.933V153H162.03V147.49H161.996L159.419 152.856H158.715L156.138 147.49H156.097V153ZM58.7803 166.438H54.2959V165.591H58.7803V166.438ZM66.1289 165.003H65.2334C65.1104 164.584 64.8734 164.242 64.5225 163.978C64.1761 163.709 63.7432 163.574 63.2236 163.574C62.5309 163.574 61.9772 163.836 61.5625 164.36C61.1478 164.88 60.9404 165.575 60.9404 166.445C60.9404 167.325 61.1478 168.024 61.5625 168.544C61.9818 169.059 62.54 169.316 63.2373 169.316C63.7432 169.316 64.1693 169.196 64.5156 168.954C64.8665 168.708 65.1035 168.371 65.2266 167.942H66.1289C66.0013 168.59 65.6755 169.114 65.1514 169.515C64.6273 169.916 63.987 170.116 63.2305 170.116C62.2552 170.116 61.4759 169.786 60.8926 169.125C60.3092 168.464 60.0176 167.571 60.0176 166.445C60.0176 165.333 60.3092 164.445 60.8926 163.779C61.4759 163.109 62.2529 162.774 63.2236 162.774C63.9984 162.774 64.6432 162.986 65.1582 163.41C65.6777 163.834 66.0013 164.365 66.1289 165.003ZM72.1514 170V163.643H68.3027V170H67.4072V162.891H73.0469V170H72.1514ZM77.5518 163.567C76.9183 163.567 76.3965 163.788 75.9863 164.23C75.5807 164.668 75.3597 165.24 75.3232 165.946H79.7119C79.7028 165.24 79.5 164.668 79.1035 164.23C78.707 163.788 78.1898 163.567 77.5518 163.567ZM79.6572 167.983H80.5527C80.4434 168.608 80.1198 169.12 79.582 169.521C79.0488 169.918 78.3949 170.116 77.6201 170.116C76.6221 170.116 75.8337 169.79 75.2549 169.139C74.6761 168.482 74.3867 167.591 74.3867 166.466C74.3867 165.358 74.6761 164.467 75.2549 163.793C75.8337 163.114 76.6038 162.774 77.5654 162.774C78.5042 162.774 79.2516 163.093 79.8076 163.731C80.3636 164.369 80.6416 165.219 80.6416 166.281V166.664H75.3164V166.719C75.3164 167.521 75.526 168.157 75.9453 168.626C76.3646 169.091 76.9297 169.323 77.6406 169.323C78.1647 169.323 78.6068 169.2 78.9668 168.954C79.3268 168.708 79.557 168.384 79.6572 167.983ZM88.7285 171.88H87.8809V170H81.9814V162.891H82.877V169.248H86.6777V162.891H87.5732V169.248H88.7285V171.88ZM90.6836 170H89.7881V162.891H90.6836V168.605H90.7314L94.6895 162.891H95.585V170H94.6895V164.285H94.6484L90.6836 170ZM99.5635 169.337C100.188 169.337 100.714 169.143 101.143 168.756C101.571 168.368 101.785 167.892 101.785 167.327V166.541L99.6797 166.685C99.1191 166.721 98.6885 166.858 98.3877 167.095C98.0869 167.327 97.9365 167.639 97.9365 168.031C97.9365 168.419 98.0869 168.733 98.3877 168.975C98.6885 169.216 99.0804 169.337 99.5635 169.337ZM99.3789 170.116C98.6771 170.116 98.1074 169.925 97.6699 169.542C97.237 169.155 97.0205 168.651 97.0205 168.031C97.0205 167.421 97.2393 166.938 97.6768 166.582C98.1188 166.227 98.75 166.021 99.5703 165.967L101.785 165.83V165.215C101.785 164.7 101.63 164.299 101.32 164.012C101.01 163.72 100.58 163.574 100.028 163.574C99.5088 163.574 99.085 163.695 98.7568 163.937C98.4333 164.178 98.2327 164.515 98.1553 164.948H97.2803C97.3304 164.301 97.6038 163.777 98.1006 163.376C98.6019 162.975 99.2513 162.774 100.049 162.774C100.86 162.774 101.503 162.986 101.977 163.41C102.451 163.834 102.688 164.408 102.688 165.133V170H101.826V168.646H101.806C101.61 169.089 101.288 169.444 100.842 169.713C100.395 169.982 99.9076 170.116 99.3789 170.116ZM105.989 166.931C105.953 167.427 105.896 167.854 105.818 168.209C105.745 168.56 105.638 168.883 105.497 169.18C105.356 169.471 105.167 169.692 104.93 169.843C104.693 169.989 104.408 170.062 104.075 170.062C103.929 170.062 103.795 170.039 103.672 169.993V169.173C103.781 169.209 103.902 169.228 104.034 169.228C104.381 169.228 104.636 169.029 104.8 168.633C104.968 168.232 105.08 167.655 105.135 166.903C105.153 166.716 105.199 166.062 105.271 164.941C105.349 163.816 105.395 163.132 105.408 162.891H109.961V170H109.065V163.643H106.222C106.158 164.805 106.08 165.901 105.989 166.931ZM112.545 170H111.649V162.891H112.545V168.605H112.593L116.551 162.891H117.446V170H116.551V164.285H116.51L112.545 170ZM124.891 165.003H123.995C123.872 164.584 123.635 164.242 123.284 163.978C122.938 163.709 122.505 163.574 121.985 163.574C121.293 163.574 120.739 163.836 120.324 164.36C119.91 164.88 119.702 165.575 119.702 166.445C119.702 167.325 119.91 168.024 120.324 168.544C120.743 169.059 121.302 169.316 121.999 169.316C122.505 169.316 122.931 169.196 123.277 168.954C123.628 168.708 123.865 168.371 123.988 167.942H124.891C124.763 168.59 124.437 169.114 123.913 169.515C123.389 169.916 122.749 170.116 121.992 170.116C121.017 170.116 120.238 169.786 119.654 169.125C119.071 168.464 118.779 167.571 118.779 166.445C118.779 165.333 119.071 164.445 119.654 163.779C120.238 163.109 121.015 162.774 121.985 162.774C122.76 162.774 123.405 162.986 123.92 163.41C124.439 163.834 124.763 164.365 124.891 165.003ZM131.111 162.891V163.643H128.691V170H127.796V163.643H125.376V162.891H131.111ZM134.099 169.337C134.723 169.337 135.249 169.143 135.678 168.756C136.106 168.368 136.32 167.892 136.32 167.327V166.541L134.215 166.685C133.654 166.721 133.224 166.858 132.923 167.095C132.622 167.327 132.472 167.639 132.472 168.031C132.472 168.419 132.622 168.733 132.923 168.975C133.224 169.216 133.616 169.337 134.099 169.337ZM133.914 170.116C133.212 170.116 132.643 169.925 132.205 169.542C131.772 169.155 131.556 168.651 131.556 168.031C131.556 167.421 131.774 166.938 132.212 166.582C132.654 166.227 133.285 166.021 134.105 165.967L136.32 165.83V165.215C136.32 164.7 136.165 164.299 135.855 164.012C135.546 163.72 135.115 163.574 134.563 163.574C134.044 163.574 133.62 163.695 133.292 163.937C132.968 164.178 132.768 164.515 132.69 164.948H131.815C131.866 164.301 132.139 163.777 132.636 163.376C133.137 162.975 133.786 162.774 134.584 162.774C135.395 162.774 136.038 162.986 136.512 163.41C136.986 163.834 137.223 164.408 137.223 165.133V170H136.361V168.646H136.341C136.145 169.089 135.824 169.444 135.377 169.713C134.93 169.982 134.443 170.116 133.914 170.116ZM139.766 170H138.87V162.891H139.957L142.732 168.811H142.78L145.556 162.891H146.602V170H145.699V164.49H145.665L143.088 169.856H142.384L139.807 164.49H139.766V170Z" fill="#0D1C41"/>
<g clip-path="url(#clip0_60_1772)">
<path d="M117.266 79.5469C118.733 79.5469 119.922 78.3576 119.922 76.8906C119.922 75.4236 118.733 74.2344 117.266 74.2344C115.799 74.2344 114.609 75.4236 114.609 76.8906C114.609 78.3576 115.799 79.5469 117.266 79.5469Z" fill="black"/>
<path d="M105.711 79.5469C107.178 79.5469 108.367 78.3576 108.367 76.8906C108.367 75.4236 107.178 74.2344 105.711 74.2344C104.244 74.2344 103.055 75.4236 103.055 76.8906C103.055 78.3576 104.244 79.5469 105.711 79.5469Z" fill="black"/>
<path d="M82.6016 102.656C84.0686 102.656 85.2578 101.467 85.2578 100C85.2578 98.533 84.0686 97.3438 82.6016 97.3438C81.1346 97.3438 79.9453 98.533 79.9453 100C79.9453 101.467 81.1346 102.656 82.6016 102.656Z" fill="black"/>
<path d="M82.6016 79.5469C84.0686 79.5469 85.2578 78.3576 85.2578 76.8906C85.2578 75.4236 84.0686 74.2344 82.6016 74.2344C81.1346 74.2344 79.9453 75.4236 79.9453 76.8906C79.9453 78.3576 81.1346 79.5469 82.6016 79.5469Z" fill="black"/>
<path d="M82.6016 91.1016C84.0686 91.1016 85.2578 89.9123 85.2578 88.4453C85.2578 86.9783 84.0686 85.7891 82.6016 85.7891C81.1346 85.7891 79.9453 86.9783 79.9453 88.4453C79.9453 89.9123 81.1346 91.1016 82.6016 91.1016Z" fill="black"/>
<path d="M94.1562 91.1016C95.6233 91.1016 96.8125 89.9123 96.8125 88.4453C96.8125 86.9783 95.6233 85.7891 94.1562 85.7891C92.6892 85.7891 91.5 86.9783 91.5 88.4453C91.5 89.9123 92.6892 91.1016 94.1562 91.1016Z" fill="black"/>
<path d="M94.1562 79.5469C95.6233 79.5469 96.8125 78.3576 96.8125 76.8906C96.8125 75.4236 95.6233 74.2344 94.1562 74.2344C92.6892 74.2344 91.5 75.4236 91.5 76.8906C91.5 78.3576 92.6892 79.5469 94.1562 79.5469Z" fill="black"/>
<path d="M94.1562 102.656C95.6233 102.656 96.8125 101.467 96.8125 100C96.8125 98.533 95.6233 97.3438 94.1562 97.3438C92.6892 97.3438 91.5 98.533 91.5 100C91.5 101.467 92.6892 102.656 94.1562 102.656Z" fill="black"/>
<rect x="105.148" y="87.5186" width="13" height="13" rx="4" stroke="black" stroke-width="4"/>
<rect x="68" y="56.037" width="64" height="58.963" rx="14" stroke="black" stroke-width="4"/>
<line x1="81.8518" y1="51" x2="81.8518" y2="60.8519" stroke="black" stroke-width="4" stroke-linecap="round"/>
<line x1="100.741" y1="51" x2="100.741" y2="60.8519" stroke="black" stroke-width="4" stroke-linecap="round"/>
<line x1="118.37" y1="51" x2="118.37" y2="60.8519" stroke="black" stroke-width="4" stroke-linecap="round"/>
</g>
</g>
<defs>
<filter id="filter0_d_60_1772" x="0" y="0" width="201" height="226" filterUnits="userSpaceOnUse" color-interpolation-filters="sRGB">
<feFlood flood-opacity="0" result="BackgroundImageFix"/>
<feColorMatrix in="SourceAlpha" type="matrix" values="0 0 0 0 0 0 0 0 0 0 0 0 0 0 0 0 0 0 127 0" result="hardAlpha"/>
<feOffset dy="2"/>
<feGaussianBlur stdDeviation="9"/>
<feColorMatrix type="matrix" values="0 0 0 0 0.160784 0 0 0 0 0.160784 0 0 0 0 0.160784 0 0 0 0.1 0"/>
<feBlend mode="normal" in2="BackgroundImageFix" result="effect1_dropShadow_60_1772"/>
<feBlend mode="normal" in="SourceGraphic" in2="effect1_dropShadow_60_1772" result="shape"/>
</filter>
<clipPath id="clip0_60_1772">
<rect width="68" height="68" fill="white" transform="translate(66 49)"/>
</clipPath>
</defs>
</svg>
