<svg width="201" height="201" viewBox="0 0 201 201" fill="none" xmlns="http://www.w3.org/2000/svg">
<g filter="url(#filter0_d_115_240)">
<rect x="18" y="16" width="165" height="165" rx="20" fill="white"/>
<path d="M62.3545 138H60.8301V129.469H55.8945V138H54.3564V128.136H62.3545V138ZM69.7031 137.139C69.0833 137.804 68.2562 138.137 67.2217 138.137C66.1872 138.137 65.36 137.804 64.7402 137.139C64.1204 136.469 63.8105 135.557 63.8105 134.404C63.8105 133.256 64.1204 132.349 64.7402 131.684C65.36 131.014 66.1872 130.679 67.2217 130.679C68.2562 130.679 69.0833 131.014 69.7031 131.684C70.3229 132.349 70.6328 133.256 70.6328 134.404C70.6328 135.557 70.3229 136.469 69.7031 137.139ZM67.2217 136.92C67.8096 136.92 68.2744 136.699 68.6162 136.257C68.958 135.815 69.1289 135.197 69.1289 134.404C69.1289 133.616 68.9557 133.001 68.6094 132.559C68.2676 132.117 67.805 131.896 67.2217 131.896C66.6383 131.896 66.1735 132.117 65.8271 132.559C65.4854 133.001 65.3145 133.616 65.3145 134.404C65.3145 135.197 65.4854 135.815 65.8271 136.257C66.1735 136.699 66.6383 136.92 67.2217 136.92ZM73.8184 134.726C73.791 135.154 73.7477 135.532 73.6885 135.86C73.6292 136.188 73.5426 136.496 73.4287 136.783C73.3148 137.066 73.1758 137.3 73.0117 137.487C72.8477 137.67 72.6426 137.813 72.3965 137.918C72.1549 138.018 71.8747 138.068 71.5557 138.068C71.3551 138.068 71.1888 138.043 71.0566 137.993V136.694C71.1797 136.731 71.3096 136.749 71.4463 136.749C71.7744 136.749 72.016 136.571 72.1709 136.216C72.3258 135.86 72.4261 135.343 72.4717 134.664L72.7178 130.809H77.7012V138H76.2314V131.978H74.0166L73.8184 134.726ZM84.0107 138V134.869H80.7568V138H79.2871V130.809H80.7568V133.707H84.0107V130.809H85.4805V138H84.0107ZM93.4854 138V130.809H94.9482V138H93.4854ZM89.7939 134.186H88.5498V136.838H89.7939C90.2178 136.838 90.555 136.717 90.8057 136.476C91.0609 136.229 91.1885 135.908 91.1885 135.512C91.1885 135.111 91.0609 134.789 90.8057 134.548C90.5505 134.306 90.2132 134.186 89.7939 134.186ZM87.0801 138V130.809H88.5498V133.03H89.9238C90.7578 133.03 91.4209 133.256 91.9131 133.707C92.4098 134.154 92.6582 134.755 92.6582 135.512C92.6582 136.273 92.4098 136.879 91.9131 137.33C91.4209 137.777 90.7578 138 89.9238 138H87.0801ZM97.9971 138H96.541V130.809H97.9971V135.847H98.0518L101.374 130.809H102.83V138H101.374V132.948H101.319L97.9971 138ZM97.5186 127.65H98.5166C98.5212 128.042 98.6396 128.368 98.8721 128.628C99.1045 128.883 99.4098 129.011 99.7881 129.011C100.171 129.011 100.479 128.883 100.711 128.628C100.943 128.368 101.062 128.042 101.066 127.65H102.064C102.064 128.298 101.855 128.822 101.436 129.223C101.016 129.619 100.467 129.817 99.7881 129.817C99.1136 129.817 98.5667 129.619 98.1475 129.223C97.7282 128.822 97.5186 128.298 97.5186 127.65ZM109.782 136.954C110.302 136.954 110.737 136.797 111.088 136.482C111.443 136.163 111.621 135.771 111.621 135.307V134.739L109.851 134.849C109.409 134.881 109.067 134.99 108.825 135.177C108.588 135.359 108.47 135.605 108.47 135.915C108.47 136.229 108.588 136.482 108.825 136.674C109.067 136.861 109.386 136.954 109.782 136.954ZM109.372 138.123C108.666 138.123 108.089 137.923 107.643 137.521C107.201 137.12 106.979 136.599 106.979 135.956C106.979 135.327 107.212 134.828 107.677 134.459C108.142 134.085 108.8 133.876 109.652 133.83L111.621 133.714V133.16C111.621 132.759 111.493 132.447 111.238 132.224C110.983 131.996 110.63 131.882 110.179 131.882C109.759 131.882 109.418 131.975 109.153 132.162C108.894 132.349 108.729 132.606 108.661 132.935H107.267C107.308 132.269 107.595 131.727 108.128 131.308C108.661 130.888 109.363 130.679 110.233 130.679C111.104 130.679 111.797 130.893 112.312 131.321C112.831 131.75 113.091 132.324 113.091 133.044V138H111.676V136.817H111.642C111.437 137.214 111.124 137.531 110.705 137.768C110.29 138.005 109.846 138.123 109.372 138.123ZM118.396 130.692C119.312 130.692 120.045 131.027 120.597 131.697C121.148 132.367 121.424 133.27 121.424 134.404C121.424 135.539 121.15 136.444 120.604 137.118C120.057 137.788 119.33 138.123 118.423 138.123C117.912 138.123 117.459 138.007 117.062 137.774C116.671 137.542 116.37 137.223 116.16 136.817H116.126V140.379H114.649V130.809H116.078V132.046H116.105C116.32 131.627 116.627 131.296 117.028 131.055C117.429 130.813 117.885 130.692 118.396 130.692ZM118.006 136.872C118.589 136.872 119.052 136.651 119.394 136.209C119.735 135.762 119.906 135.161 119.906 134.404C119.906 133.652 119.735 133.053 119.394 132.606C119.052 132.16 118.589 131.937 118.006 131.937C117.441 131.937 116.985 132.162 116.639 132.613C116.292 133.064 116.119 133.661 116.119 134.404C116.119 135.152 116.29 135.751 116.632 136.202C116.978 136.649 117.436 136.872 118.006 136.872ZM125.245 135.354H125.211L123.618 138H122.019L124.391 134.411L122.053 130.809H123.707L125.279 133.413H125.307L126.858 130.809H128.485L126.127 134.363L128.458 138H126.831L125.245 135.354ZM131.001 138H129.545V130.809H131.001V135.847H131.056L134.378 130.809H135.834V138H134.378V132.948H134.323L131.001 138ZM140.387 131.882H138.876V133.769H140.243C141.077 133.769 141.494 133.45 141.494 132.812C141.494 132.515 141.398 132.287 141.207 132.128C141.016 131.964 140.742 131.882 140.387 131.882ZM140.339 134.801H138.876V136.927H140.503C140.922 136.927 141.241 136.838 141.46 136.66C141.679 136.478 141.788 136.214 141.788 135.867C141.788 135.156 141.305 134.801 140.339 134.801ZM137.42 138V130.809H140.688C141.389 130.809 141.938 130.973 142.335 131.301C142.736 131.624 142.937 132.071 142.937 132.641C142.937 133.014 142.818 133.352 142.581 133.652C142.349 133.949 142.059 134.129 141.713 134.192V134.247C142.178 134.311 142.551 134.495 142.834 134.801C143.117 135.102 143.258 135.478 143.258 135.929C143.258 136.562 143.03 137.066 142.574 137.439C142.123 137.813 141.508 138 140.729 138H137.42ZM61.5889 148.882H60.0781V150.769H61.4453C62.2793 150.769 62.6963 150.45 62.6963 149.812C62.6963 149.515 62.6006 149.287 62.4092 149.128C62.2178 148.964 61.9443 148.882 61.5889 148.882ZM61.541 151.801H60.0781V153.927H61.7051C62.1243 153.927 62.4434 153.838 62.6621 153.66C62.8809 153.478 62.9902 153.214 62.9902 152.867C62.9902 152.156 62.5072 151.801 61.541 151.801ZM58.6221 155V147.809H61.8896C62.5915 147.809 63.1406 147.973 63.5371 148.301C63.9382 148.624 64.1387 149.071 64.1387 149.641C64.1387 150.014 64.0202 150.352 63.7832 150.652C63.5508 150.949 63.2614 151.129 62.915 151.192V151.247C63.3799 151.311 63.7536 151.495 64.0361 151.801C64.3187 152.102 64.46 152.478 64.46 152.929C64.46 153.562 64.2321 154.066 63.7764 154.439C63.3252 154.813 62.71 155 61.9307 155H58.6221ZM71.9111 150.112H70.4893C70.389 149.757 70.1976 149.467 69.915 149.244C69.6325 149.021 69.2725 148.909 68.835 148.909C68.2653 148.909 67.8073 149.137 67.4609 149.593C67.1191 150.044 66.9482 150.648 66.9482 151.404C66.9482 152.179 67.1191 152.79 67.4609 153.236C67.8073 153.678 68.2699 153.899 68.8486 153.899C69.2816 153.899 69.6393 153.797 69.9219 153.592C70.2044 153.382 70.3981 153.088 70.5029 152.71H71.9248C71.82 153.439 71.4873 154.027 70.9268 154.474C70.3708 154.916 69.6735 155.137 68.835 155.137C67.8005 155.137 66.9779 154.802 66.3672 154.132C65.7565 153.462 65.4512 152.553 65.4512 151.404C65.4512 150.274 65.7565 149.372 66.3672 148.697C66.9824 148.018 67.8005 147.679 68.8213 147.679C69.6735 147.679 70.373 147.911 70.9199 148.376C71.4714 148.836 71.8018 149.415 71.9111 150.112ZM77.3799 149.388C77.0563 149.041 76.6393 148.868 76.1289 148.868C75.6185 148.868 75.1947 149.044 74.8574 149.395C74.5202 149.741 74.3333 150.19 74.2969 150.741H77.8926C77.8743 150.185 77.7035 149.734 77.3799 149.388ZM77.8857 152.888H79.2871C79.1823 153.549 78.8451 154.089 78.2754 154.508C77.7057 154.927 77.0107 155.137 76.1904 155.137C75.1377 155.137 74.3083 154.806 73.7021 154.146C73.1006 153.48 72.7998 152.578 72.7998 151.438C72.7998 150.308 73.1006 149.399 73.7021 148.711C74.3083 148.023 75.1172 147.679 76.1289 147.679C77.1224 147.679 77.9108 148.005 78.4941 148.656C79.0775 149.303 79.3691 150.174 79.3691 151.268V151.773H74.29V151.862C74.29 152.491 74.4655 152.995 74.8164 153.373C75.1673 153.751 75.6367 153.94 76.2246 153.94C76.6393 153.94 76.9948 153.845 77.291 153.653C77.5872 153.462 77.7855 153.207 77.8857 152.888ZM83.1973 152.354H83.1631L81.5703 155H79.9707L82.3428 151.411L80.0049 147.809H81.6592L83.2314 150.413H83.2588L84.8105 147.809H86.4375L84.0791 151.363L86.4102 155H84.7832L83.1973 152.354ZM91.0586 157.68C90.7806 157.68 90.5801 157.668 90.457 157.646V156.449C90.5299 156.467 90.6895 156.477 90.9355 156.477C91.2819 156.477 91.5531 156.397 91.749 156.237C91.945 156.082 92.0999 155.82 92.2139 155.451C92.2139 155.447 92.2367 155.371 92.2822 155.226L92.3438 155.007L89.7461 147.809H91.3457L93.1709 153.66H93.1914L95.0166 147.809H96.5752L93.875 155.376C93.5697 156.246 93.2119 156.848 92.8018 157.181C92.3916 157.513 91.8105 157.68 91.0586 157.68ZM103.493 150.112H102.071C101.971 149.757 101.78 149.467 101.497 149.244C101.215 149.021 100.854 148.909 100.417 148.909C99.8473 148.909 99.3893 149.137 99.043 149.593C98.7012 150.044 98.5303 150.648 98.5303 151.404C98.5303 152.179 98.7012 152.79 99.043 153.236C99.3893 153.678 99.8519 153.899 100.431 153.899C100.864 153.899 101.221 153.797 101.504 153.592C101.786 153.382 101.98 153.088 102.085 152.71H103.507C103.402 153.439 103.069 154.027 102.509 154.474C101.953 154.916 101.256 155.137 100.417 155.137C99.3825 155.137 98.5599 154.802 97.9492 154.132C97.3385 153.462 97.0332 152.553 97.0332 151.404C97.0332 150.274 97.3385 149.372 97.9492 148.697C98.5645 148.018 99.3825 147.679 100.403 147.679C101.256 147.679 101.955 147.911 102.502 148.376C103.053 148.836 103.384 149.415 103.493 150.112ZM106.815 151.726C106.788 152.154 106.745 152.532 106.686 152.86C106.626 153.188 106.54 153.496 106.426 153.783C106.312 154.066 106.173 154.3 106.009 154.487C105.845 154.67 105.64 154.813 105.394 154.918C105.152 155.018 104.872 155.068 104.553 155.068C104.352 155.068 104.186 155.043 104.054 154.993V153.694C104.177 153.731 104.307 153.749 104.443 153.749C104.771 153.749 105.013 153.571 105.168 153.216C105.323 152.86 105.423 152.343 105.469 151.664L105.715 147.809H110.698V155H109.229V148.978H107.014L106.815 151.726ZM117.862 154.139C117.243 154.804 116.415 155.137 115.381 155.137C114.346 155.137 113.519 154.804 112.899 154.139C112.28 153.469 111.97 152.557 111.97 151.404C111.97 150.256 112.28 149.349 112.899 148.684C113.519 148.014 114.346 147.679 115.381 147.679C116.415 147.679 117.243 148.014 117.862 148.684C118.482 149.349 118.792 150.256 118.792 151.404C118.792 152.557 118.482 153.469 117.862 154.139ZM115.381 153.92C115.969 153.92 116.434 153.699 116.775 153.257C117.117 152.815 117.288 152.197 117.288 151.404C117.288 150.616 117.115 150.001 116.769 149.559C116.427 149.117 115.964 148.896 115.381 148.896C114.798 148.896 114.333 149.117 113.986 149.559C113.645 150.001 113.474 150.616 113.474 151.404C113.474 152.197 113.645 152.815 113.986 153.257C114.333 153.699 114.798 153.92 115.381 153.92ZM123.03 148.882H121.52V150.769H122.887C123.721 150.769 124.138 150.45 124.138 149.812C124.138 149.515 124.042 149.287 123.851 149.128C123.659 148.964 123.386 148.882 123.03 148.882ZM122.982 151.801H121.52V153.927H123.146C123.566 153.927 123.885 153.838 124.104 153.66C124.322 153.478 124.432 153.214 124.432 152.867C124.432 152.156 123.949 151.801 122.982 151.801ZM120.063 155V147.809H123.331C124.033 147.809 124.582 147.973 124.979 148.301C125.38 148.624 125.58 149.071 125.58 149.641C125.58 150.014 125.462 150.352 125.225 150.652C124.992 150.949 124.703 151.129 124.356 151.192V151.247C124.821 151.311 125.195 151.495 125.478 151.801C125.76 152.102 125.901 152.478 125.901 152.929C125.901 153.562 125.674 154.066 125.218 154.439C124.767 154.813 124.151 155 123.372 155H120.063ZM128.67 155H127.214V147.809H128.67V152.847H128.725L132.047 147.809H133.503V155H132.047V149.948H131.992L128.67 155ZM136.545 155H135.089V147.809H136.545V152.847H136.6L139.922 147.809H141.378V155H139.922V149.948H139.867L136.545 155ZM136.066 144.65H137.064C137.069 145.042 137.188 145.368 137.42 145.628C137.652 145.883 137.958 146.011 138.336 146.011C138.719 146.011 139.026 145.883 139.259 145.628C139.491 145.368 139.61 145.042 139.614 144.65H140.612C140.612 145.298 140.403 145.822 139.983 146.223C139.564 146.619 139.015 146.817 138.336 146.817C137.661 146.817 137.115 146.619 136.695 146.223C136.276 145.822 136.066 145.298 136.066 144.65Z" fill="black"/>
<path d="M72 51H130V101C130 102.105 129.105 103 128 103H74C72.8954 103 72 102.105 72 101V51Z" stroke="black" stroke-width="4"/>
<rect x="67" y="44" width="68" height="10" rx="2" fill="white" stroke="black" stroke-width="4"/>
<rect x="88.5" y="66.5" width="25" height="6" rx="3" stroke="#DDD0A4" stroke-width="3"/>
<rect x="18.5" y="16.5" width="164" height="164" rx="19.5" stroke="#4A607A"/>
</g>
<defs>
<filter id="filter0_d_115_240" x="0" y="0" width="201" height="201" filterUnits="userSpaceOnUse" color-interpolation-filters="sRGB">
<feFlood flood-opacity="0" result="BackgroundImageFix"/>
<feColorMatrix in="SourceAlpha" type="matrix" values="0 0 0 0 0 0 0 0 0 0 0 0 0 0 0 0 0 0 127 0" result="hardAlpha"/>
<feOffset dy="2"/>
<feGaussianBlur stdDeviation="9"/>
<feColorMatrix type="matrix" values="0 0 0 0 0.160784 0 0 0 0 0.160784 0 0 0 0 0.160784 0 0 0 0.1 0"/>
<feBlend mode="normal" in2="BackgroundImageFix" result="effect1_dropShadow_115_240"/>
<feBlend mode="normal" in="SourceGraphic" in2="effect1_dropShadow_115_240" result="shape"/>
</filter>
</defs>
</svg>
