<svg width="206" height="206" viewBox="0 0 206 206" fill="none" xmlns="http://www.w3.org/2000/svg">
<g filter="url(#filter0_d_60_2246)">
<rect x="15" y="6" width="180" height="180" rx="20" fill="white"/>
<path d="M74.1914 129.598V128.319H75.5176C76.0827 128.319 76.5407 128.169 76.8916 127.868C77.2471 127.567 77.4248 127.18 77.4248 126.706C77.4248 126.232 77.2585 125.858 76.9258 125.585C76.5977 125.312 76.151 125.175 75.5859 125.175C75.0117 125.175 74.5469 125.316 74.1914 125.599C73.8405 125.877 73.6423 126.262 73.5967 126.754H72.1475C72.1976 125.87 72.5348 125.173 73.1592 124.662C73.7835 124.152 74.6084 123.896 75.6338 123.896C76.6045 123.896 77.3975 124.145 78.0127 124.642C78.6279 125.134 78.9355 125.77 78.9355 126.549C78.9355 127.1 78.7646 127.586 78.4229 128.005C78.0856 128.42 77.6436 128.693 77.0967 128.825V128.88C77.7575 128.962 78.2793 129.222 78.6621 129.659C79.0449 130.097 79.2363 130.65 79.2363 131.32C79.2363 132.15 78.89 132.845 78.1973 133.405C77.5046 133.961 76.641 134.239 75.6064 134.239C74.5355 134.239 73.6605 133.975 72.9814 133.446C72.3024 132.918 71.9401 132.218 71.8945 131.348H73.3711C73.4167 131.831 73.64 132.218 74.041 132.51C74.4466 132.797 74.9661 132.94 75.5996 132.94C76.2148 132.94 76.7116 132.783 77.0898 132.469C77.4727 132.154 77.6641 131.746 77.6641 131.245C77.6641 130.73 77.4772 130.327 77.1035 130.035C76.7344 129.743 76.2194 129.598 75.5586 129.598H74.1914ZM83.0576 132.954C83.5771 132.954 84.0124 132.797 84.3633 132.482C84.7188 132.163 84.8965 131.771 84.8965 131.307V130.739L83.126 130.849C82.6839 130.881 82.3421 130.99 82.1006 131.177C81.8636 131.359 81.7451 131.605 81.7451 131.915C81.7451 132.229 81.8636 132.482 82.1006 132.674C82.3421 132.861 82.6611 132.954 83.0576 132.954ZM82.6475 134.123C81.9411 134.123 81.3646 133.923 80.918 133.521C80.4759 133.12 80.2549 132.599 80.2549 131.956C80.2549 131.327 80.4873 130.828 80.9521 130.459C81.417 130.085 82.0755 129.876 82.9277 129.83L84.8965 129.714V129.16C84.8965 128.759 84.7689 128.447 84.5137 128.224C84.2585 127.996 83.9053 127.882 83.4541 127.882C83.0348 127.882 82.693 127.975 82.4287 128.162C82.1689 128.349 82.0049 128.606 81.9365 128.935H80.542C80.583 128.269 80.8701 127.727 81.4033 127.308C81.9365 126.888 82.6383 126.679 83.5088 126.679C84.3792 126.679 85.0719 126.893 85.5869 127.321C86.1064 127.75 86.3662 128.324 86.3662 129.044V134H84.9512V132.817H84.917C84.7119 133.214 84.3997 133.531 83.9805 133.768C83.5658 134.005 83.1214 134.123 82.6475 134.123ZM92.5732 134V127.978H89.3877V134H87.918V126.809H94.0498V134H92.5732ZM101.221 133.139C100.601 133.804 99.7738 134.137 98.7393 134.137C97.7048 134.137 96.8776 133.804 96.2578 133.139C95.638 132.469 95.3281 131.557 95.3281 130.404C95.3281 129.256 95.638 128.349 96.2578 127.684C96.8776 127.014 97.7048 126.679 98.7393 126.679C99.7738 126.679 100.601 127.014 101.221 127.684C101.84 128.349 102.15 129.256 102.15 130.404C102.15 131.557 101.84 132.469 101.221 133.139ZM98.7393 132.92C99.3271 132.92 99.792 132.699 100.134 132.257C100.476 131.815 100.646 131.197 100.646 130.404C100.646 129.616 100.473 129.001 100.127 128.559C99.7852 128.117 99.3226 127.896 98.7393 127.896C98.1559 127.896 97.6911 128.117 97.3447 128.559C97.0029 129.001 96.832 129.616 96.832 130.404C96.832 131.197 97.0029 131.815 97.3447 132.257C97.6911 132.699 98.1559 132.92 98.7393 132.92ZM105.336 130.726C105.309 131.154 105.265 131.532 105.206 131.86C105.147 132.188 105.06 132.496 104.946 132.783C104.832 133.066 104.693 133.3 104.529 133.487C104.365 133.67 104.16 133.813 103.914 133.918C103.673 134.018 103.392 134.068 103.073 134.068C102.873 134.068 102.706 134.043 102.574 133.993V132.694C102.697 132.731 102.827 132.749 102.964 132.749C103.292 132.749 103.534 132.571 103.688 132.216C103.843 131.86 103.944 131.343 103.989 130.664L104.235 126.809H109.219V134H107.749V127.978H105.534L105.336 130.726ZM115.528 134V130.869H112.274V134H110.805V126.809H112.274V129.707H115.528V126.809H116.998V134H115.528ZM120.054 134H118.598V126.809H120.054V131.847H120.108L123.431 126.809H124.887V134H123.431V128.948H123.376L120.054 134ZM131.941 126.809V127.978H129.686V134H128.216V127.978H125.96V126.809H131.941ZM137.15 128.388C136.827 128.041 136.41 127.868 135.899 127.868C135.389 127.868 134.965 128.044 134.628 128.395C134.291 128.741 134.104 129.19 134.067 129.741H137.663C137.645 129.185 137.474 128.734 137.15 128.388ZM137.656 131.888H139.058C138.953 132.549 138.616 133.089 138.046 133.508C137.476 133.927 136.781 134.137 135.961 134.137C134.908 134.137 134.079 133.806 133.473 133.146C132.871 132.48 132.57 131.578 132.57 130.438C132.57 129.308 132.871 128.399 133.473 127.711C134.079 127.023 134.888 126.679 135.899 126.679C136.893 126.679 137.681 127.005 138.265 127.656C138.848 128.303 139.14 129.174 139.14 130.268V130.773H134.061V130.862C134.061 131.491 134.236 131.995 134.587 132.373C134.938 132.751 135.407 132.94 135.995 132.94C136.41 132.94 136.765 132.845 137.062 132.653C137.358 132.462 137.556 132.207 137.656 131.888ZM75.5654 151.137C74.7223 151.137 74.0296 150.943 73.4873 150.556C72.9495 150.168 72.6488 149.644 72.585 148.983H74.041C74.1139 149.293 74.2826 149.533 74.5469 149.701C74.8112 149.865 75.1507 149.947 75.5654 149.947C76.0303 149.947 76.3903 149.849 76.6455 149.653C76.9053 149.457 77.0352 149.198 77.0352 148.874C77.0352 148.177 76.5475 147.828 75.5723 147.828H74.5195V146.741H75.5518C76.3903 146.741 76.8096 146.427 76.8096 145.798C76.8096 145.511 76.7048 145.283 76.4951 145.114C76.2855 144.941 75.9779 144.854 75.5723 144.854C75.1758 144.854 74.8522 144.934 74.6016 145.094C74.3509 145.253 74.2005 145.474 74.1504 145.757H72.7354C72.8128 145.114 73.1022 144.608 73.6035 144.239C74.1094 143.866 74.7633 143.679 75.5654 143.679C76.4222 143.679 77.083 143.856 77.5479 144.212C78.0173 144.563 78.252 145.044 78.252 145.654C78.252 146.023 78.1471 146.349 77.9375 146.632C77.7279 146.914 77.4499 147.099 77.1035 147.186V147.24C77.5592 147.345 77.9056 147.539 78.1426 147.821C78.3841 148.104 78.5049 148.452 78.5049 148.867C78.5049 149.551 78.236 150.1 77.6982 150.515C77.165 150.929 76.4541 151.137 75.5654 151.137ZM82.3262 149.954C82.8457 149.954 83.2809 149.797 83.6318 149.482C83.9873 149.163 84.165 148.771 84.165 148.307V147.739L82.3945 147.849C81.9525 147.881 81.6107 147.99 81.3691 148.177C81.1322 148.359 81.0137 148.605 81.0137 148.915C81.0137 149.229 81.1322 149.482 81.3691 149.674C81.6107 149.861 81.9297 149.954 82.3262 149.954ZM81.916 151.123C81.2096 151.123 80.6331 150.923 80.1865 150.521C79.7445 150.12 79.5234 149.599 79.5234 148.956C79.5234 148.327 79.7559 147.828 80.2207 147.459C80.6855 147.085 81.3441 146.876 82.1963 146.83L84.165 146.714V146.16C84.165 145.759 84.0374 145.447 83.7822 145.224C83.527 144.996 83.1738 144.882 82.7227 144.882C82.3034 144.882 81.9616 144.975 81.6973 145.162C81.4375 145.349 81.2734 145.606 81.2051 145.935H79.8105C79.8516 145.269 80.1387 144.727 80.6719 144.308C81.2051 143.888 81.9069 143.679 82.7773 143.679C83.6478 143.679 84.3405 143.893 84.8555 144.321C85.375 144.75 85.6348 145.324 85.6348 146.044V151H84.2197V149.817H84.1855C83.9805 150.214 83.6683 150.531 83.249 150.768C82.8343 151.005 82.39 151.123 81.916 151.123ZM89.9141 147.397H91.2197V144.971H89.9141C89.4902 144.971 89.153 145.085 88.9023 145.312C88.6562 145.536 88.5332 145.841 88.5332 146.229C88.5332 146.575 88.6585 146.857 88.9092 147.076C89.1644 147.29 89.4993 147.397 89.9141 147.397ZM91.2197 151V148.532H90.126L88.3828 151H86.7148L88.6768 148.279C88.1755 148.129 87.7812 147.876 87.4941 147.521C87.207 147.16 87.0635 146.732 87.0635 146.235C87.0635 145.488 87.3141 144.898 87.8154 144.465C88.3213 144.027 88.9958 143.809 89.8389 143.809H92.6689V151H91.2197ZM97.2217 144.882H95.7109V146.769H97.0781C97.9121 146.769 98.3291 146.45 98.3291 145.812C98.3291 145.515 98.2334 145.287 98.042 145.128C97.8506 144.964 97.5771 144.882 97.2217 144.882ZM97.1738 147.801H95.7109V149.927H97.3379C97.7572 149.927 98.0762 149.838 98.2949 149.66C98.5137 149.478 98.623 149.214 98.623 148.867C98.623 148.156 98.14 147.801 97.1738 147.801ZM94.2549 151V143.809H97.5225C98.2243 143.809 98.7734 143.973 99.1699 144.301C99.571 144.624 99.7715 145.071 99.7715 145.641C99.7715 146.014 99.653 146.352 99.416 146.652C99.1836 146.949 98.8942 147.129 98.5479 147.192V147.247C99.0127 147.311 99.3864 147.495 99.6689 147.801C99.9515 148.102 100.093 148.478 100.093 148.929C100.093 149.562 99.8649 150.066 99.4092 150.439C98.958 150.813 98.3428 151 97.5635 151H94.2549ZM103.429 147.726C103.401 148.154 103.358 148.532 103.299 148.86C103.24 149.188 103.153 149.496 103.039 149.783C102.925 150.066 102.786 150.3 102.622 150.487C102.458 150.67 102.253 150.813 102.007 150.918C101.765 151.018 101.485 151.068 101.166 151.068C100.965 151.068 100.799 151.043 100.667 150.993V149.694C100.79 149.731 100.92 149.749 101.057 149.749C101.385 149.749 101.626 149.571 101.781 149.216C101.936 148.86 102.036 148.343 102.082 147.664L102.328 143.809H107.312V151H105.842V144.978H103.627L103.429 147.726ZM113.163 145.388C112.84 145.041 112.423 144.868 111.912 144.868C111.402 144.868 110.978 145.044 110.641 145.395C110.303 145.741 110.117 146.19 110.08 146.741H113.676C113.658 146.185 113.487 145.734 113.163 145.388ZM113.669 148.888H115.07C114.965 149.549 114.628 150.089 114.059 150.508C113.489 150.927 112.794 151.137 111.974 151.137C110.921 151.137 110.091 150.806 109.485 150.146C108.884 149.48 108.583 148.578 108.583 147.438C108.583 146.308 108.884 145.399 109.485 144.711C110.091 144.023 110.9 143.679 111.912 143.679C112.906 143.679 113.694 144.005 114.277 144.656C114.861 145.303 115.152 146.174 115.152 147.268V147.773H110.073V147.862C110.073 148.491 110.249 148.995 110.6 149.373C110.951 149.751 111.42 149.94 112.008 149.94C112.423 149.94 112.778 149.845 113.074 149.653C113.37 149.462 113.569 149.207 113.669 148.888ZM121.141 151V147.869H117.887V151H116.417V143.809H117.887V146.707H121.141V143.809H122.61V151H121.141ZM125.666 151H124.21V143.809H125.666V148.847H125.721L129.043 143.809H130.499V151H129.043V145.948H128.988L125.666 151ZM136.351 145.388C136.027 145.041 135.61 144.868 135.1 144.868C134.589 144.868 134.165 145.044 133.828 145.395C133.491 145.741 133.304 146.19 133.268 146.741H136.863C136.845 146.185 136.674 145.734 136.351 145.388ZM136.856 148.888H138.258C138.153 149.549 137.816 150.089 137.246 150.508C136.676 150.927 135.981 151.137 135.161 151.137C134.108 151.137 133.279 150.806 132.673 150.146C132.071 149.48 131.771 148.578 131.771 147.438C131.771 146.308 132.071 145.399 132.673 144.711C133.279 144.023 134.088 143.679 135.1 143.679C136.093 143.679 136.882 144.005 137.465 144.656C138.048 145.303 138.34 146.174 138.34 147.268V147.773H133.261V147.862C133.261 148.491 133.436 148.995 133.787 149.373C134.138 149.751 134.607 149.94 135.195 149.94C135.61 149.94 135.965 149.845 136.262 149.653C136.558 149.462 136.756 149.207 136.856 148.888Z" fill="black"/>
<g clip-path="url(#clip0_60_2246)">
<path d="M128.081 49.0631L113.55 34.5322C113.211 34.1929 112.748 34 112.266 34H86.8359C83.8312 34 81.3867 36.4445 81.3867 39.4492V90.5508C81.3867 93.5555 83.8312 96 86.8359 96H123.164C126.169 96 128.613 93.5555 128.613 90.5508V50.3477C128.613 49.8524 128.405 49.3873 128.081 49.0631ZM114.082 40.2016L122.412 48.5312H115.898C114.897 48.5312 114.082 47.7164 114.082 46.7148V40.2016ZM123.164 92.3672H86.8359C85.8344 92.3672 85.0195 91.5523 85.0195 90.5508V39.4492C85.0195 38.4477 85.8344 37.6328 86.8359 37.6328H110.449V46.7148C110.449 49.7195 112.894 52.1641 115.898 52.1641H124.98V90.5508C124.98 91.5523 124.166 92.3672 123.164 92.3672Z" fill="black"/>
<path d="M115.898 59.6719H94.1016C93.0984 59.6719 92.2852 60.4851 92.2852 61.4883C92.2852 62.4914 93.0984 63.3047 94.1016 63.3047H115.898C116.902 63.3047 117.715 62.4914 117.715 61.4883C117.715 60.4851 116.902 59.6719 115.898 59.6719Z" fill="#DDD0A4"/>
<path d="M115.898 66.9375H94.1016C93.0984 66.9375 92.2852 67.7508 92.2852 68.7539C92.2852 69.757 93.0984 70.5703 94.1016 70.5703H115.898C116.902 70.5703 117.715 69.757 117.715 68.7539C117.715 67.7508 116.902 66.9375 115.898 66.9375Z" fill="#DDD0A4"/>
<path d="M115.898 74.2031H94.1016C93.0984 74.2031 92.2852 75.0164 92.2852 76.0195C92.2852 77.0227 93.0984 77.8359 94.1016 77.8359H115.898C116.902 77.8359 117.715 77.0227 117.715 76.0195C117.715 75.0164 116.902 74.2031 115.898 74.2031Z" fill="#DDD0A4"/>
<path d="M108.633 81.4688H94.1016C93.0984 81.4688 92.2852 82.282 92.2852 83.2852C92.2852 84.2883 93.0984 85.1016 94.1016 85.1016H108.633C109.636 85.1016 110.449 84.2883 110.449 83.2852C110.449 82.282 109.636 81.4688 108.633 81.4688Z" fill="#DDD0A4"/>
</g>
<path d="M162.745 128.106L162.745 128.11L162.767 130.752C162.767 130.753 162.767 130.754 162.767 130.754C162.766 130.98 162.587 131.161 162.356 131.161C162.124 131.161 161.944 130.979 161.944 130.752V126.614C161.944 125.863 161.333 125.228 160.567 125.228C159.804 125.228 159.189 125.847 159.189 126.614V129.564C159.189 129.791 159.009 129.972 158.777 129.972C158.546 129.972 158.366 129.791 158.366 129.564V125.426C158.366 124.674 157.755 124.04 156.988 124.04C156.226 124.04 155.611 124.659 155.611 125.426V128.386C155.611 128.613 155.431 128.794 155.199 128.794C154.967 128.794 154.788 128.613 154.788 128.386V119.886C154.788 119.134 154.177 118.5 153.41 118.5C152.648 118.5 152.032 119.119 152.032 119.886V133.04C152.032 133.207 151.932 133.357 151.768 133.421C151.592 133.479 151.405 133.424 151.298 133.304C151.298 133.304 151.298 133.303 151.298 133.303L147.777 129.301L147.766 129.288L147.754 129.277C147.499 129.022 147.145 128.884 146.794 128.884C146.434 128.884 146.08 129.02 145.822 129.277C145.48 129.618 145.466 130.064 145.531 130.4C145.595 130.737 145.752 131.064 145.899 131.316C146.921 133.114 148.043 134.82 149.032 136.32C149.061 136.365 149.09 136.409 149.119 136.454C149.832 137.54 150.498 138.556 150.998 139.414L150.999 139.416C151.328 139.978 152.006 141.369 152.398 142.173L152.421 142.219L152.558 142.5H152.87H163.177H163.545L163.654 142.149C163.982 141.101 164.441 139.55 164.818 138.068C165.189 136.61 165.5 135.149 165.5 134.318V128.106C165.5 127.354 164.889 126.72 164.122 126.72C163.36 126.72 162.745 127.339 162.745 128.106Z" fill="white" stroke="#333333"/>
<rect x="15.5" y="6.5" width="179" height="179" rx="19.5" stroke="#DDD0A4"/>
</g>
<defs>
<filter id="filter0_d_60_2246" x="0" y="0" width="206" height="206" filterUnits="userSpaceOnUse" color-interpolation-filters="sRGB">
<feFlood flood-opacity="0" result="BackgroundImageFix"/>
<feColorMatrix in="SourceAlpha" type="matrix" values="0 0 0 0 0 0 0 0 0 0 0 0 0 0 0 0 0 0 127 0" result="hardAlpha"/>
<feMorphology radius="5" operator="erode" in="SourceAlpha" result="effect1_dropShadow_60_2246"/>
<feOffset dx="-2" dy="7"/>
<feGaussianBlur stdDeviation="9"/>
<feColorMatrix type="matrix" values="0 0 0 0 0.1875 0 0 0 0 0.176781 0 0 0 0 0.149219 0 0 0 0.3 0"/>
<feBlend mode="normal" in2="BackgroundImageFix" result="effect1_dropShadow_60_2246"/>
<feBlend mode="normal" in="SourceGraphic" in2="effect1_dropShadow_60_2246" result="shape"/>
</filter>
<clipPath id="clip0_60_2246">
<rect width="62" height="62" fill="white" transform="translate(74 34)"/>
</clipPath>
</defs>
</svg>
