<svg width="201" height="226" viewBox="0 0 201 226" fill="none" xmlns="http://www.w3.org/2000/svg">
<g filter="url(#filter0_d_60_1810)">
<rect x="18" y="16" width="165" height="190" rx="20" fill="white"/>
<path d="M36.5078 155.57C36.3438 155.57 36.1934 155.557 36.0566 155.529V154.757C36.166 154.784 36.3096 154.798 36.4873 154.798C36.8109 154.798 37.0706 154.707 37.2666 154.524C37.4671 154.342 37.6471 154.028 37.8066 153.581L37.998 153.048L35.332 145.891H36.3027L38.4629 152.098H38.4834L40.6504 145.891H41.6006L38.8047 153.431C38.4948 154.265 38.1803 154.83 37.8613 155.126C37.5423 155.422 37.0911 155.57 36.5078 155.57ZM47.3906 153V146.643H43.542V153H42.6465V145.891H48.2861V153H47.3906ZM53.3105 145.774C54.2129 145.774 54.9421 146.112 55.498 146.786C56.0586 147.456 56.3389 148.342 56.3389 149.445C56.3389 150.548 56.0609 151.437 55.5049 152.111C54.9535 152.781 54.2288 153.116 53.3311 153.116C52.7705 153.116 52.2738 152.973 51.8408 152.686C51.4124 152.394 51.1025 152.011 50.9111 151.537H50.8838V155.352H49.9814V145.891H50.8359V147.395H50.8633C51.0638 146.911 51.3805 146.522 51.8135 146.226C52.2464 145.925 52.7454 145.774 53.3105 145.774ZM53.1533 152.316C53.8415 152.316 54.3906 152.057 54.8008 151.537C55.2109 151.013 55.416 150.316 55.416 149.445C55.416 148.579 55.2087 147.884 54.7939 147.36C54.3838 146.836 53.8369 146.574 53.1533 146.574C52.4788 146.574 51.932 146.841 51.5127 147.374C51.0934 147.903 50.8838 148.593 50.8838 149.445C50.8838 150.302 51.0934 150.995 51.5127 151.523C51.932 152.052 52.4788 152.316 53.1533 152.316ZM62.915 152.125C62.3226 152.786 61.5387 153.116 60.5635 153.116C59.5882 153.116 58.8044 152.786 58.2119 152.125C57.6195 151.46 57.3232 150.566 57.3232 149.445C57.3232 148.324 57.6195 147.433 58.2119 146.772C58.8089 146.107 59.5928 145.774 60.5635 145.774C61.5387 145.774 62.3226 146.107 62.915 146.772C63.5075 147.433 63.8037 148.324 63.8037 149.445C63.8037 150.566 63.5075 151.46 62.915 152.125ZM58.875 151.551C59.2943 152.061 59.8571 152.316 60.5635 152.316C61.2699 152.316 61.8327 152.061 62.252 151.551C62.6758 151.04 62.8877 150.339 62.8877 149.445C62.8877 148.552 62.6758 147.85 62.252 147.34C61.8327 146.829 61.2699 146.574 60.5635 146.574C59.8571 146.574 59.2943 146.829 58.875 147.34C58.4557 147.85 58.2461 148.552 58.2461 149.445C58.2461 150.339 58.4557 151.04 58.875 151.551ZM75.001 154.88H74.1533V153H65.1367V145.891H66.0322V152.248H69.0469V145.891H69.9424V152.248H72.957V145.891H73.8594V152.248H75.001V154.88ZM78.8359 146.567C78.2025 146.567 77.6807 146.788 77.2705 147.23C76.8649 147.668 76.6439 148.24 76.6074 148.946H80.9961C80.987 148.24 80.7842 147.668 80.3877 147.23C79.9912 146.788 79.474 146.567 78.8359 146.567ZM80.9414 150.983H81.8369C81.7275 151.608 81.404 152.12 80.8662 152.521C80.333 152.918 79.679 153.116 78.9043 153.116C77.9062 153.116 77.1178 152.79 76.5391 152.139C75.9603 151.482 75.6709 150.591 75.6709 149.466C75.6709 148.358 75.9603 147.467 76.5391 146.793C77.1178 146.114 77.888 145.774 78.8496 145.774C79.7884 145.774 80.5358 146.093 81.0918 146.731C81.6478 147.369 81.9258 148.219 81.9258 149.281V149.664H76.6006V149.719C76.6006 150.521 76.8102 151.157 77.2295 151.626C77.6488 152.091 78.2139 152.323 78.9248 152.323C79.4489 152.323 79.891 152.2 80.251 151.954C80.611 151.708 80.8411 151.384 80.9414 150.983ZM88.0713 153V149.691H84.1611V153H83.2656V145.891H84.1611V148.939H88.0713V145.891H88.9668V153H88.0713ZM95.4678 153V149.691H91.5576V153H90.6621V145.891H91.5576V148.939H95.4678V145.891H96.3633V153H95.4678ZM100.355 152.337C100.98 152.337 101.506 152.143 101.935 151.756C102.363 151.368 102.577 150.892 102.577 150.327V149.541L100.472 149.685C99.9111 149.721 99.4805 149.858 99.1797 150.095C98.8789 150.327 98.7285 150.639 98.7285 151.031C98.7285 151.419 98.8789 151.733 99.1797 151.975C99.4805 152.216 99.8724 152.337 100.355 152.337ZM100.171 153.116C99.4691 153.116 98.8994 152.925 98.4619 152.542C98.029 152.155 97.8125 151.651 97.8125 151.031C97.8125 150.421 98.0312 149.938 98.4688 149.582C98.9108 149.227 99.542 149.021 100.362 148.967L102.577 148.83V148.215C102.577 147.7 102.422 147.299 102.112 147.012C101.802 146.72 101.372 146.574 100.82 146.574C100.301 146.574 99.877 146.695 99.5488 146.937C99.2253 147.178 99.0247 147.515 98.9473 147.948H98.0723C98.1224 147.301 98.3958 146.777 98.8926 146.376C99.3939 145.975 100.043 145.774 100.841 145.774C101.652 145.774 102.295 145.986 102.769 146.41C103.243 146.834 103.479 147.408 103.479 148.133V153H102.618V151.646H102.598C102.402 152.089 102.08 152.444 101.634 152.713C101.187 152.982 100.7 153.116 100.171 153.116ZM107.526 149.575H109.119V146.643H107.526C107.007 146.643 106.594 146.777 106.289 147.046C105.984 147.315 105.831 147.682 105.831 148.146C105.831 148.57 105.986 148.914 106.296 149.179C106.606 149.443 107.016 149.575 107.526 149.575ZM109.119 153V150.327H107.629L105.681 153H104.635L106.706 150.177C106.155 150.063 105.722 149.828 105.407 149.473C105.093 149.117 104.936 148.68 104.936 148.16C104.936 147.463 105.168 146.911 105.633 146.506C106.102 146.096 106.731 145.891 107.52 145.891H110.015V153H109.119ZM120.337 148.003H119.441C119.318 147.584 119.081 147.242 118.73 146.978C118.384 146.709 117.951 146.574 117.432 146.574C116.739 146.574 116.185 146.836 115.771 147.36C115.356 147.88 115.148 148.575 115.148 149.445C115.148 150.325 115.356 151.024 115.771 151.544C116.19 152.059 116.748 152.316 117.445 152.316C117.951 152.316 118.377 152.196 118.724 151.954C119.075 151.708 119.312 151.371 119.435 150.942H120.337C120.209 151.59 119.883 152.114 119.359 152.515C118.835 152.916 118.195 153.116 117.438 153.116C116.463 153.116 115.684 152.786 115.101 152.125C114.517 151.464 114.226 150.571 114.226 149.445C114.226 148.333 114.517 147.445 115.101 146.779C115.684 146.109 116.461 145.774 117.432 145.774C118.206 145.774 118.851 145.986 119.366 146.41C119.886 146.834 120.209 147.365 120.337 148.003ZM122.511 153H121.615V145.891H122.511V151.605H122.559L126.517 145.891H127.412V153H126.517V147.285H126.476L122.511 153ZM134.856 148.003H133.961C133.838 147.584 133.601 147.242 133.25 146.978C132.904 146.709 132.471 146.574 131.951 146.574C131.258 146.574 130.705 146.836 130.29 147.36C129.875 147.88 129.668 148.575 129.668 149.445C129.668 150.325 129.875 151.024 130.29 151.544C130.709 152.059 131.268 152.316 131.965 152.316C132.471 152.316 132.897 152.196 133.243 151.954C133.594 151.708 133.831 151.371 133.954 150.942H134.856C134.729 151.59 134.403 152.114 133.879 152.515C133.355 152.916 132.715 153.116 131.958 153.116C130.983 153.116 130.203 152.786 129.62 152.125C129.037 151.464 128.745 150.571 128.745 149.445C128.745 148.333 129.037 147.445 129.62 146.779C130.203 146.109 130.98 145.774 131.951 145.774C132.726 145.774 133.371 145.986 133.886 146.41C134.405 146.834 134.729 147.365 134.856 148.003ZM141.077 145.891V146.643H138.657V153H137.762V146.643H135.342V145.891H141.077ZM144.789 146.567C144.156 146.567 143.634 146.788 143.224 147.23C142.818 147.668 142.597 148.24 142.561 148.946H146.949C146.94 148.24 146.737 147.668 146.341 147.23C145.944 146.788 145.427 146.567 144.789 146.567ZM146.895 150.983H147.79C147.681 151.608 147.357 152.12 146.819 152.521C146.286 152.918 145.632 153.116 144.857 153.116C143.859 153.116 143.071 152.79 142.492 152.139C141.913 151.482 141.624 150.591 141.624 149.466C141.624 148.358 141.913 147.467 142.492 146.793C143.071 146.114 143.841 145.774 144.803 145.774C145.742 145.774 146.489 146.093 147.045 146.731C147.601 147.369 147.879 148.219 147.879 149.281V149.664H142.554V149.719C142.554 150.521 142.763 151.157 143.183 151.626C143.602 152.091 144.167 152.323 144.878 152.323C145.402 152.323 145.844 152.2 146.204 151.954C146.564 151.708 146.794 151.384 146.895 150.983ZM150.114 153H149.219V145.891H150.306L153.081 151.811H153.129L155.904 145.891H156.95V153H156.048V147.49H156.014L153.437 152.856H152.732L150.155 147.49H150.114V153ZM160.936 152.337C161.56 152.337 162.086 152.143 162.515 151.756C162.943 151.368 163.157 150.892 163.157 150.327V149.541L161.052 149.685C160.491 149.721 160.061 149.858 159.76 150.095C159.459 150.327 159.309 150.639 159.309 151.031C159.309 151.419 159.459 151.733 159.76 151.975C160.061 152.216 160.452 152.337 160.936 152.337ZM160.751 153.116C160.049 153.116 159.479 152.925 159.042 152.542C158.609 152.155 158.393 151.651 158.393 151.031C158.393 150.421 158.611 149.938 159.049 149.582C159.491 149.227 160.122 149.021 160.942 148.967L163.157 148.83V148.215C163.157 147.7 163.002 147.299 162.692 147.012C162.382 146.72 161.952 146.574 161.4 146.574C160.881 146.574 160.457 146.695 160.129 146.937C159.805 147.178 159.605 147.515 159.527 147.948H158.652C158.702 147.301 158.976 146.777 159.473 146.376C159.974 145.975 160.623 145.774 161.421 145.774C162.232 145.774 162.875 145.986 163.349 146.41C163.823 146.834 164.06 147.408 164.06 148.133V153H163.198V151.646H163.178C162.982 152.089 162.66 152.444 162.214 152.713C161.767 152.982 161.28 153.116 160.751 153.116ZM68.1992 165.003H67.3037C67.1807 164.584 66.9437 164.242 66.5928 163.978C66.2464 163.709 65.8135 163.574 65.2939 163.574C64.6012 163.574 64.0475 163.836 63.6328 164.36C63.2181 164.88 63.0107 165.575 63.0107 166.445C63.0107 167.325 63.2181 168.024 63.6328 168.544C64.0521 169.059 64.6104 169.316 65.3076 169.316C65.8135 169.316 66.2396 169.196 66.5859 168.954C66.9368 168.708 67.1738 168.371 67.2969 167.942H68.1992C68.0716 168.59 67.7458 169.114 67.2217 169.515C66.6976 169.916 66.0573 170.116 65.3008 170.116C64.3255 170.116 63.5462 169.786 62.9629 169.125C62.3796 168.464 62.0879 167.571 62.0879 166.445C62.0879 165.333 62.3796 164.445 62.9629 163.779C63.5462 163.109 64.3232 162.774 65.2939 162.774C66.0687 162.774 66.7135 162.986 67.2285 163.41C67.748 163.834 68.0716 164.365 68.1992 165.003ZM74.4199 162.891V163.643H72V170H71.1045V163.643H68.6846V162.891H74.4199ZM78.8701 162.774C79.7725 162.774 80.5016 163.112 81.0576 163.786C81.6182 164.456 81.8984 165.342 81.8984 166.445C81.8984 167.548 81.6204 168.437 81.0645 169.111C80.513 169.781 79.7884 170.116 78.8906 170.116C78.3301 170.116 77.8333 169.973 77.4004 169.686C76.972 169.394 76.6621 169.011 76.4707 168.537H76.4434V172.352H75.541V162.891H76.3955V164.395H76.4229C76.6234 163.911 76.9401 163.522 77.373 163.226C77.806 162.925 78.305 162.774 78.8701 162.774ZM78.7129 169.316C79.401 169.316 79.9502 169.057 80.3604 168.537C80.7705 168.013 80.9756 167.316 80.9756 166.445C80.9756 165.579 80.7682 164.884 80.3535 164.36C79.9434 163.836 79.3965 163.574 78.7129 163.574C78.0384 163.574 77.4915 163.841 77.0723 164.374C76.653 164.903 76.4434 165.593 76.4434 166.445C76.4434 167.302 76.653 167.995 77.0723 168.523C77.4915 169.052 78.0384 169.316 78.7129 169.316ZM85.501 169.337C86.1253 169.337 86.6517 169.143 87.0801 168.756C87.5085 168.368 87.7227 167.892 87.7227 167.327V166.541L85.6172 166.685C85.0566 166.721 84.626 166.858 84.3252 167.095C84.0244 167.327 83.874 167.639 83.874 168.031C83.874 168.419 84.0244 168.733 84.3252 168.975C84.626 169.216 85.0179 169.337 85.501 169.337ZM85.3164 170.116C84.6146 170.116 84.0449 169.925 83.6074 169.542C83.1745 169.155 82.958 168.651 82.958 168.031C82.958 167.421 83.1768 166.938 83.6143 166.582C84.0563 166.227 84.6875 166.021 85.5078 165.967L87.7227 165.83V165.215C87.7227 164.7 87.5677 164.299 87.2578 164.012C86.9479 163.72 86.5173 163.574 85.9658 163.574C85.4463 163.574 85.0225 163.695 84.6943 163.937C84.3708 164.178 84.1702 164.515 84.0928 164.948H83.2178C83.2679 164.301 83.5413 163.777 84.0381 163.376C84.5394 162.975 85.1888 162.774 85.9863 162.774C86.7975 162.774 87.4401 162.986 87.9141 163.41C88.388 163.834 88.625 164.408 88.625 165.133V170H87.7637V168.646H87.7432C87.5472 169.089 87.2259 169.444 86.7793 169.713C86.3327 169.982 85.8451 170.116 85.3164 170.116ZM92.6514 167.081H92.6309L90.6689 170H89.6572L92.1523 166.425L89.6846 162.891H90.71L92.6582 165.741H92.6787L94.6201 162.891H95.6387L93.1572 166.391L95.6182 170H94.5996L92.6514 167.081ZM101.818 169.125C101.226 169.786 100.442 170.116 99.4668 170.116C98.4915 170.116 97.7077 169.786 97.1152 169.125C96.5228 168.46 96.2266 167.566 96.2266 166.445C96.2266 165.324 96.5228 164.433 97.1152 163.772C97.7122 163.107 98.4961 162.774 99.4668 162.774C100.442 162.774 101.226 163.107 101.818 163.772C102.411 164.433 102.707 165.324 102.707 166.445C102.707 167.566 102.411 168.46 101.818 169.125ZM97.7783 168.551C98.1976 169.061 98.7604 169.316 99.4668 169.316C100.173 169.316 100.736 169.061 101.155 168.551C101.579 168.04 101.791 167.339 101.791 166.445C101.791 165.552 101.579 164.85 101.155 164.34C100.736 163.829 100.173 163.574 99.4668 163.574C98.7604 163.574 98.1976 163.829 97.7783 164.34C97.359 164.85 97.1494 165.552 97.1494 166.445C97.1494 167.339 97.359 168.04 97.7783 168.551ZM106.802 163.636H104.936V165.953H106.672C107.16 165.953 107.531 165.851 107.786 165.646C108.046 165.44 108.176 165.144 108.176 164.757C108.176 164.401 108.055 164.126 107.813 163.93C107.576 163.734 107.239 163.636 106.802 163.636ZM106.74 166.691H104.936V169.255H106.904C107.428 169.255 107.827 169.146 108.101 168.927C108.374 168.708 108.511 168.387 108.511 167.963C108.511 167.544 108.358 167.227 108.053 167.013C107.752 166.799 107.314 166.691 106.74 166.691ZM104.04 170V162.891H106.911C107.576 162.891 108.101 163.05 108.483 163.369C108.866 163.684 109.058 164.119 109.058 164.675C109.058 165.067 108.939 165.411 108.702 165.707C108.47 166.003 108.174 166.186 107.813 166.254V166.302C108.283 166.356 108.663 166.534 108.955 166.835C109.251 167.136 109.399 167.519 109.399 167.983C109.399 168.617 109.181 169.111 108.743 169.467C108.31 169.822 107.711 170 106.945 170H104.04ZM113.022 169.337C113.647 169.337 114.173 169.143 114.602 168.756C115.03 168.368 115.244 167.892 115.244 167.327V166.541L113.139 166.685C112.578 166.721 112.147 166.858 111.847 167.095C111.546 167.327 111.396 167.639 111.396 168.031C111.396 168.419 111.546 168.733 111.847 168.975C112.147 169.216 112.539 169.337 113.022 169.337ZM112.838 170.116C112.136 170.116 111.566 169.925 111.129 169.542C110.696 169.155 110.479 168.651 110.479 168.031C110.479 167.421 110.698 166.938 111.136 166.582C111.578 166.227 112.209 166.021 113.029 165.967L115.244 165.83V165.215C115.244 164.7 115.089 164.299 114.779 164.012C114.469 163.72 114.039 163.574 113.487 163.574C112.968 163.574 112.544 163.695 112.216 163.937C111.892 164.178 111.692 164.515 111.614 164.948H110.739C110.789 164.301 111.063 163.777 111.56 163.376C112.061 162.975 112.71 162.774 113.508 162.774C114.319 162.774 114.962 162.986 115.436 163.41C115.91 163.834 116.146 164.408 116.146 165.133V170H115.285V168.646H115.265C115.069 169.089 114.747 169.444 114.301 169.713C113.854 169.982 113.367 170.116 112.838 170.116ZM122.6 170V166.691H118.689V170H117.794V162.891H118.689V165.939H122.6V162.891H123.495V170H122.6ZM126.086 170H125.19V162.891H126.086V168.605H126.134L130.092 162.891H130.987V170H130.092V164.285H130.051L126.086 170ZM135.068 166.575H136.661V163.643H135.068C134.549 163.643 134.136 163.777 133.831 164.046C133.526 164.315 133.373 164.682 133.373 165.146C133.373 165.57 133.528 165.914 133.838 166.179C134.148 166.443 134.558 166.575 135.068 166.575ZM136.661 170V167.327H135.171L133.223 170H132.177L134.248 167.177C133.697 167.063 133.264 166.828 132.949 166.473C132.635 166.117 132.478 165.68 132.478 165.16C132.478 164.463 132.71 163.911 133.175 163.506C133.644 163.096 134.273 162.891 135.062 162.891H137.557V170H136.661Z" fill="black"/>
<path d="M98.1407 83.1983C91.443 69.6169 74.1407 45.1332 58.5128 55.8495C42.8849 66.5658 74.6234 94.5117 80.7629 96.7442C86.9024 98.9768 90.1843 92.9269 83.6291 86.5472C75.1815 78.3256 64.6524 111.105 76.3733 116.687C85.75 121.152 100.298 97.3024 100.931 92.6867C101.565 88.071 98.1407 83.1983 98.1407 83.1983Z" stroke="black" stroke-width="3"/>
<path d="M101.753 80.9658C108.451 67.3844 125.753 42.9007 141.381 53.6169C157.009 64.3332 125.27 92.2791 119.131 94.5117C112.991 96.7442 109.709 90.6943 116.264 84.3146C124.712 76.0931 135.241 108.873 123.52 114.454C114.144 118.919 99.5958 95.0698 98.9621 90.4541C98.3285 85.8385 101.753 80.9658 101.753 80.9658Z" stroke="black" stroke-width="3"/>
</g>
<defs>
<filter id="filter0_d_60_1810" x="0" y="0" width="201" height="226" filterUnits="userSpaceOnUse" color-interpolation-filters="sRGB">
<feFlood flood-opacity="0" result="BackgroundImageFix"/>
<feColorMatrix in="SourceAlpha" type="matrix" values="0 0 0 0 0 0 0 0 0 0 0 0 0 0 0 0 0 0 127 0" result="hardAlpha"/>
<feOffset dy="2"/>
<feGaussianBlur stdDeviation="9"/>
<feColorMatrix type="matrix" values="0 0 0 0 0.160784 0 0 0 0 0.160784 0 0 0 0 0.160784 0 0 0 0.1 0"/>
<feBlend mode="normal" in2="BackgroundImageFix" result="effect1_dropShadow_60_1810"/>
<feBlend mode="normal" in="SourceGraphic" in2="effect1_dropShadow_60_1810" result="shape"/>
</filter>
</defs>
</svg>
