<svg width="201" height="226" viewBox="0 0 201 226" fill="none" xmlns="http://www.w3.org/2000/svg">
<g filter="url(#filter0_d_60_1797)">
<rect x="18" y="16" width="165" height="190" rx="20" fill="white"/>
<path d="M59.2324 149.931C59.196 150.427 59.139 150.854 59.0615 151.209C58.9886 151.56 58.8815 151.883 58.7402 152.18C58.599 152.471 58.4098 152.692 58.1729 152.843C57.9359 152.989 57.651 153.062 57.3184 153.062C57.1725 153.062 57.0381 153.039 56.915 152.993V152.173C57.0244 152.209 57.1452 152.228 57.2773 152.228C57.6237 152.228 57.8789 152.029 58.043 151.633C58.2116 151.232 58.3232 150.655 58.3779 149.903C58.3962 149.716 58.4417 149.062 58.5146 147.941C58.5921 146.816 58.6377 146.132 58.6514 145.891H63.2041V153H62.3086V146.643H59.4648C59.401 147.805 59.3236 148.901 59.2324 149.931ZM67.1895 152.337C67.8138 152.337 68.3402 152.143 68.7686 151.756C69.1969 151.368 69.4111 150.892 69.4111 150.327V149.541L67.3057 149.685C66.7451 149.721 66.3145 149.858 66.0137 150.095C65.7129 150.327 65.5625 150.639 65.5625 151.031C65.5625 151.419 65.7129 151.733 66.0137 151.975C66.3145 152.216 66.7064 152.337 67.1895 152.337ZM67.0049 153.116C66.3031 153.116 65.7334 152.925 65.2959 152.542C64.863 152.155 64.6465 151.651 64.6465 151.031C64.6465 150.421 64.8652 149.938 65.3027 149.582C65.7448 149.227 66.376 149.021 67.1963 148.967L69.4111 148.83V148.215C69.4111 147.7 69.2562 147.299 68.9463 147.012C68.6364 146.72 68.2057 146.574 67.6543 146.574C67.1348 146.574 66.7109 146.695 66.3828 146.937C66.0592 147.178 65.8587 147.515 65.7812 147.948H64.9062C64.9564 147.301 65.2298 146.777 65.7266 146.376C66.2279 145.975 66.8773 145.774 67.6748 145.774C68.486 145.774 69.1286 145.986 69.6025 146.41C70.0765 146.834 70.3135 147.408 70.3135 148.133V153H69.4521V151.646H69.4316C69.2357 152.089 68.9144 152.444 68.4678 152.713C68.0212 152.982 67.5335 153.116 67.0049 153.116ZM74.9482 153.123C73.891 153.123 73.082 152.765 72.5215 152.05C71.9655 151.334 71.6875 150.295 71.6875 148.933C71.6875 146.882 71.9678 145.421 72.5283 144.551C73.0934 143.676 74.0596 143.22 75.4268 143.184C75.7458 143.184 75.9964 143.172 76.1787 143.149C76.8669 143.108 77.3887 143.001 77.7441 142.828V143.621C77.6348 143.703 77.4388 143.778 77.1562 143.847C76.8783 143.91 76.5684 143.951 76.2266 143.97C76.0352 143.993 75.7799 144.004 75.4609 144.004C74.9414 144.018 74.5085 144.088 74.1621 144.216C73.8158 144.343 73.5264 144.553 73.2939 144.845C73.0615 145.132 72.8838 145.485 72.7607 145.904C72.6377 146.324 72.5397 146.854 72.4668 147.497H72.5078C72.7311 147.014 73.0661 146.643 73.5127 146.383C73.9593 146.118 74.4811 145.986 75.0781 145.986C76.0306 145.986 76.7917 146.305 77.3613 146.943C77.931 147.577 78.2158 148.429 78.2158 149.5C78.2158 150.612 77.9219 151.494 77.334 152.146C76.7507 152.797 75.9554 153.123 74.9482 153.123ZM73.2324 151.571C73.6471 152.068 74.2191 152.316 74.9482 152.316C75.6774 152.316 76.2493 152.068 76.6641 151.571C77.0788 151.07 77.2861 150.38 77.2861 149.5C77.2861 148.652 77.0788 147.989 76.6641 147.511C76.2493 147.028 75.6774 146.786 74.9482 146.786C74.2191 146.786 73.6471 147.028 73.2324 147.511C72.8177 147.989 72.6104 148.652 72.6104 149.5C72.6104 150.38 72.8177 151.07 73.2324 151.571ZM84.792 152.125C84.1995 152.786 83.4157 153.116 82.4404 153.116C81.4652 153.116 80.6813 152.786 80.0889 152.125C79.4964 151.46 79.2002 150.566 79.2002 149.445C79.2002 148.324 79.4964 147.433 80.0889 146.772C80.6859 146.107 81.4697 145.774 82.4404 145.774C83.4157 145.774 84.1995 146.107 84.792 146.772C85.3844 147.433 85.6807 148.324 85.6807 149.445C85.6807 150.566 85.3844 151.46 84.792 152.125ZM80.752 151.551C81.1712 152.061 81.734 152.316 82.4404 152.316C83.1468 152.316 83.7096 152.061 84.1289 151.551C84.5527 151.04 84.7646 150.339 84.7646 149.445C84.7646 148.552 84.5527 147.85 84.1289 147.34C83.7096 146.829 83.1468 146.574 82.4404 146.574C81.734 146.574 81.1712 146.829 80.752 147.34C80.3327 147.85 80.123 148.552 80.123 149.445C80.123 150.339 80.3327 151.04 80.752 151.551ZM90.3496 145.774C91.252 145.774 91.9811 146.112 92.5371 146.786C93.0977 147.456 93.3779 148.342 93.3779 149.445C93.3779 150.548 93.0999 151.437 92.5439 152.111C91.9925 152.781 91.2679 153.116 90.3701 153.116C89.8096 153.116 89.3128 152.973 88.8799 152.686C88.4515 152.394 88.1416 152.011 87.9502 151.537H87.9229V155.352H87.0205V145.891H87.875V147.395H87.9023C88.1029 146.911 88.4196 146.522 88.8525 146.226C89.2855 145.925 89.7845 145.774 90.3496 145.774ZM90.1924 152.316C90.8805 152.316 91.4297 152.057 91.8398 151.537C92.25 151.013 92.4551 150.316 92.4551 149.445C92.4551 148.579 92.2477 147.884 91.833 147.36C91.4229 146.836 90.876 146.574 90.1924 146.574C89.5179 146.574 88.971 146.841 88.5518 147.374C88.1325 147.903 87.9229 148.593 87.9229 149.445C87.9229 150.302 88.1325 150.995 88.5518 151.523C88.971 152.052 89.5179 152.316 90.1924 152.316ZM96.9805 152.337C97.6048 152.337 98.1312 152.143 98.5596 151.756C98.988 151.368 99.2021 150.892 99.2021 150.327V149.541L97.0967 149.685C96.5361 149.721 96.1055 149.858 95.8047 150.095C95.5039 150.327 95.3535 150.639 95.3535 151.031C95.3535 151.419 95.5039 151.733 95.8047 151.975C96.1055 152.216 96.4974 152.337 96.9805 152.337ZM96.7959 153.116C96.0941 153.116 95.5244 152.925 95.0869 152.542C94.654 152.155 94.4375 151.651 94.4375 151.031C94.4375 150.421 94.6562 149.938 95.0938 149.582C95.5358 149.227 96.167 149.021 96.9873 148.967L99.2021 148.83V148.215C99.2021 147.7 99.0472 147.299 98.7373 147.012C98.4274 146.72 97.9967 146.574 97.4453 146.574C96.9258 146.574 96.502 146.695 96.1738 146.937C95.8503 147.178 95.6497 147.515 95.5723 147.948H94.6973C94.7474 147.301 95.0208 146.777 95.5176 146.376C96.0189 145.975 96.6683 145.774 97.4658 145.774C98.277 145.774 98.9196 145.986 99.3936 146.41C99.8675 146.834 100.104 147.408 100.104 148.133V153H99.2432V151.646H99.2227C99.0267 152.089 98.7054 152.444 98.2588 152.713C97.8122 152.982 97.3245 153.116 96.7959 153.116ZM106.749 145.891V146.643H104.329V153H103.434V146.643H101.014V145.891H106.749ZM112.888 152.125C112.295 152.786 111.511 153.116 110.536 153.116C109.561 153.116 108.777 152.786 108.185 152.125C107.592 151.46 107.296 150.566 107.296 149.445C107.296 148.324 107.592 147.433 108.185 146.772C108.782 146.107 109.565 145.774 110.536 145.774C111.511 145.774 112.295 146.107 112.888 146.772C113.48 147.433 113.776 148.324 113.776 149.445C113.776 150.566 113.48 151.46 112.888 152.125ZM108.848 151.551C109.267 152.061 109.83 152.316 110.536 152.316C111.243 152.316 111.805 152.061 112.225 151.551C112.648 151.04 112.86 150.339 112.86 149.445C112.86 148.552 112.648 147.85 112.225 147.34C111.805 146.829 111.243 146.574 110.536 146.574C109.83 146.574 109.267 146.829 108.848 147.34C108.428 147.85 108.219 148.552 108.219 149.445C108.219 150.339 108.428 151.04 108.848 151.551ZM118.445 145.774C119.348 145.774 120.077 146.112 120.633 146.786C121.193 147.456 121.474 148.342 121.474 149.445C121.474 150.548 121.196 151.437 120.64 152.111C120.088 152.781 119.364 153.116 118.466 153.116C117.905 153.116 117.409 152.973 116.976 152.686C116.547 152.394 116.237 152.011 116.046 151.537H116.019V155.352H115.116V145.891H115.971V147.395H115.998C116.199 146.911 116.515 146.522 116.948 146.226C117.381 145.925 117.88 145.774 118.445 145.774ZM118.288 152.316C118.976 152.316 119.525 152.057 119.936 151.537C120.346 151.013 120.551 150.316 120.551 149.445C120.551 148.579 120.343 147.884 119.929 147.36C119.519 146.836 118.972 146.574 118.288 146.574C117.614 146.574 117.067 146.841 116.647 147.374C116.228 147.903 116.019 148.593 116.019 149.445C116.019 150.302 116.228 150.995 116.647 151.523C117.067 152.052 117.614 152.316 118.288 152.316ZM127.612 153V149.691H123.702V153H122.807V145.891H123.702V148.939H127.612V145.891H128.508V153H127.612ZM136.273 153V145.891H137.169V153H136.273ZM132.63 149.056H131.099V152.248H132.63C133.145 152.248 133.555 152.102 133.86 151.811C134.17 151.519 134.325 151.132 134.325 150.648C134.325 150.165 134.17 149.78 133.86 149.493C133.555 149.201 133.145 149.056 132.63 149.056ZM130.203 153V145.891H131.099V148.304H132.644C133.427 148.304 134.052 148.516 134.517 148.939C134.986 149.359 135.221 149.928 135.221 150.648C135.221 151.368 134.986 151.94 134.517 152.364C134.052 152.788 133.427 153 132.644 153H130.203ZM141.674 146.567C141.04 146.567 140.519 146.788 140.108 147.23C139.703 147.668 139.482 148.24 139.445 148.946H143.834C143.825 148.24 143.622 147.668 143.226 147.23C142.829 146.788 142.312 146.567 141.674 146.567ZM143.779 150.983H144.675C144.565 151.608 144.242 152.12 143.704 152.521C143.171 152.918 142.517 153.116 141.742 153.116C140.744 153.116 139.956 152.79 139.377 152.139C138.798 151.482 138.509 150.591 138.509 149.466C138.509 148.358 138.798 147.467 139.377 146.793C139.956 146.114 140.726 145.774 141.688 145.774C142.626 145.774 143.374 146.093 143.93 146.731C144.486 147.369 144.764 148.219 144.764 149.281V149.664H139.438V149.719C139.438 150.521 139.648 151.157 140.067 151.626C140.487 152.091 141.052 152.323 141.763 152.323C142.287 152.323 142.729 152.2 143.089 151.954C143.449 151.708 143.679 151.384 143.779 150.983ZM59.5264 170H58.6309V162.891H59.5264V168.605H59.5742L63.5322 162.891H64.4277V170H63.5322V164.285H63.4912L59.5264 170ZM71.8721 165.003H70.9766C70.8535 164.584 70.6165 164.242 70.2656 163.978C69.9193 163.709 69.4863 163.574 68.9668 163.574C68.2741 163.574 67.7204 163.836 67.3057 164.36C66.891 164.88 66.6836 165.575 66.6836 166.445C66.6836 167.325 66.891 168.024 67.3057 168.544C67.7249 169.059 68.2832 169.316 68.9805 169.316C69.4863 169.316 69.9124 169.196 70.2588 168.954C70.6097 168.708 70.8467 168.371 70.9697 167.942H71.8721C71.7445 168.59 71.4186 169.114 70.8945 169.515C70.3704 169.916 69.7301 170.116 68.9736 170.116C67.9984 170.116 67.2191 169.786 66.6357 169.125C66.0524 168.464 65.7607 167.571 65.7607 166.445C65.7607 165.333 66.0524 164.445 66.6357 163.779C67.2191 163.109 67.9961 162.774 68.9668 162.774C69.7415 162.774 70.3864 162.986 70.9014 163.41C71.4209 163.834 71.7445 164.365 71.8721 165.003ZM78.9131 165.003H78.0176C77.8945 164.584 77.6576 164.242 77.3066 163.978C76.9603 163.709 76.5273 163.574 76.0078 163.574C75.3151 163.574 74.7614 163.836 74.3467 164.36C73.932 164.88 73.7246 165.575 73.7246 166.445C73.7246 167.325 73.932 168.024 74.3467 168.544C74.766 169.059 75.3242 169.316 76.0215 169.316C76.5273 169.316 76.9535 169.196 77.2998 168.954C77.6507 168.708 77.8877 168.371 78.0107 167.942H78.9131C78.7855 168.59 78.4596 169.114 77.9355 169.515C77.4115 169.916 76.7712 170.116 76.0146 170.116C75.0394 170.116 74.2601 169.786 73.6768 169.125C73.0934 168.464 72.8018 167.571 72.8018 166.445C72.8018 165.333 73.0934 164.445 73.6768 163.779C74.2601 163.109 75.0371 162.774 76.0078 162.774C76.7826 162.774 77.4274 162.986 77.9424 163.41C78.4619 163.834 78.7855 164.365 78.9131 165.003ZM81.709 166.931C81.6725 167.427 81.6156 167.854 81.5381 168.209C81.4652 168.56 81.3581 168.883 81.2168 169.18C81.0755 169.471 80.8864 169.692 80.6494 169.843C80.4124 169.989 80.1276 170.062 79.7949 170.062C79.6491 170.062 79.5146 170.039 79.3916 169.993V169.173C79.501 169.209 79.6217 169.228 79.7539 169.228C80.1003 169.228 80.3555 169.029 80.5195 168.633C80.6882 168.232 80.7998 167.655 80.8545 166.903C80.8727 166.716 80.9183 166.062 80.9912 164.941C81.0687 163.816 81.1143 163.132 81.1279 162.891H85.6807V170H84.7852V163.643H81.9414C81.8776 164.805 81.8001 165.901 81.709 166.931ZM90.1855 163.567C89.5521 163.567 89.0303 163.788 88.6201 164.23C88.2145 164.668 87.9935 165.24 87.957 165.946H92.3457C92.3366 165.24 92.1338 164.668 91.7373 164.23C91.3408 163.788 90.8236 163.567 90.1855 163.567ZM92.291 167.983H93.1865C93.0771 168.608 92.7536 169.12 92.2158 169.521C91.6826 169.918 91.0286 170.116 90.2539 170.116C89.2559 170.116 88.4674 169.79 87.8887 169.139C87.3099 168.482 87.0205 167.591 87.0205 166.466C87.0205 165.358 87.3099 164.467 87.8887 163.793C88.4674 163.114 89.2376 162.774 90.1992 162.774C91.138 162.774 91.8854 163.093 92.4414 163.731C92.9974 164.369 93.2754 165.219 93.2754 166.281V166.664H87.9502V166.719C87.9502 167.521 88.1598 168.157 88.5791 168.626C88.9984 169.091 89.5635 169.323 90.2744 169.323C90.7985 169.323 91.2406 169.2 91.6006 168.954C91.9606 168.708 92.1908 168.384 92.291 167.983ZM99.3184 169.248V163.643H96.2559C96.2422 163.866 96.2035 164.426 96.1396 165.324C96.0758 166.217 96.0348 166.753 96.0166 166.931C95.93 168.029 95.7181 168.785 95.3809 169.2V169.248H99.3184ZM94.5879 171.88H93.7402V169.248H94.3145C94.7839 168.943 95.071 168.161 95.1758 166.903C95.2988 165.404 95.3923 164.066 95.4561 162.891H100.221V169.248H101.369V171.88H100.515V170H94.5879V171.88ZM107.624 169.125C107.032 169.786 106.248 170.116 105.272 170.116C104.297 170.116 103.513 169.786 102.921 169.125C102.328 168.46 102.032 167.566 102.032 166.445C102.032 165.324 102.328 164.433 102.921 163.772C103.518 163.107 104.302 162.774 105.272 162.774C106.248 162.774 107.032 163.107 107.624 163.772C108.216 164.433 108.513 165.324 108.513 166.445C108.513 167.566 108.216 168.46 107.624 169.125ZM103.584 168.551C104.003 169.061 104.566 169.316 105.272 169.316C105.979 169.316 106.542 169.061 106.961 168.551C107.385 168.04 107.597 167.339 107.597 166.445C107.597 165.552 107.385 164.85 106.961 164.34C106.542 163.829 105.979 163.574 105.272 163.574C104.566 163.574 104.003 163.829 103.584 164.34C103.165 164.85 102.955 165.552 102.955 166.445C102.955 167.339 103.165 168.04 103.584 168.551ZM112.607 163.636H110.741V165.953H112.478C112.965 165.953 113.337 165.851 113.592 165.646C113.852 165.44 113.981 165.144 113.981 164.757C113.981 164.401 113.861 164.126 113.619 163.93C113.382 163.734 113.045 163.636 112.607 163.636ZM112.546 166.691H110.741V169.255H112.71C113.234 169.255 113.633 169.146 113.906 168.927C114.18 168.708 114.316 168.387 114.316 167.963C114.316 167.544 114.164 167.227 113.858 167.013C113.558 166.799 113.12 166.691 112.546 166.691ZM109.846 170V162.891H112.717C113.382 162.891 113.906 163.05 114.289 163.369C114.672 163.684 114.863 164.119 114.863 164.675C114.863 165.067 114.745 165.411 114.508 165.707C114.275 166.003 113.979 166.186 113.619 166.254V166.302C114.089 166.356 114.469 166.534 114.761 166.835C115.057 167.136 115.205 167.519 115.205 167.983C115.205 168.617 114.986 169.111 114.549 169.467C114.116 169.822 113.517 170 112.751 170H109.846ZM118.828 169.337C119.452 169.337 119.979 169.143 120.407 168.756C120.836 168.368 121.05 167.892 121.05 167.327V166.541L118.944 166.685C118.384 166.721 117.953 166.858 117.652 167.095C117.352 167.327 117.201 167.639 117.201 168.031C117.201 168.419 117.352 168.733 117.652 168.975C117.953 169.216 118.345 169.337 118.828 169.337ZM118.644 170.116C117.942 170.116 117.372 169.925 116.935 169.542C116.502 169.155 116.285 168.651 116.285 168.031C116.285 167.421 116.504 166.938 116.941 166.582C117.383 166.227 118.015 166.021 118.835 165.967L121.05 165.83V165.215C121.05 164.7 120.895 164.299 120.585 164.012C120.275 163.72 119.844 163.574 119.293 163.574C118.773 163.574 118.35 163.695 118.021 163.937C117.698 164.178 117.497 164.515 117.42 164.948H116.545C116.595 164.301 116.868 163.777 117.365 163.376C117.867 162.975 118.516 162.774 119.313 162.774C120.125 162.774 120.767 162.986 121.241 163.41C121.715 163.834 121.952 164.408 121.952 165.133V170H121.091V168.646H121.07C120.874 169.089 120.553 169.444 120.106 169.713C119.66 169.982 119.172 170.116 118.644 170.116ZM128.405 170V166.691H124.495V170H123.6V162.891H124.495V165.939H128.405V162.891H129.301V170H128.405ZM131.892 170H130.996V162.891H131.892V168.605H131.939L135.897 162.891H136.793V170H135.897V164.285H135.856L131.892 170ZM140.874 166.575H142.467V163.643H140.874C140.354 163.643 139.942 163.777 139.637 164.046C139.331 164.315 139.179 164.682 139.179 165.146C139.179 165.57 139.334 165.914 139.644 166.179C139.953 166.443 140.364 166.575 140.874 166.575ZM142.467 170V167.327H140.977L139.028 170H137.982L140.054 167.177C139.502 167.063 139.069 166.828 138.755 166.473C138.44 166.117 138.283 165.68 138.283 165.16C138.283 164.463 138.516 163.911 138.98 163.506C139.45 163.096 140.079 162.891 140.867 162.891H143.362V170H142.467Z" fill="#0D1C41"/>
<path d="M84.0892 81.4854L88.7733 86.0925C89.1401 86.4532 89.6185 86.6443 90.1098 86.6443C90.3307 86.6443 90.5541 86.6056 90.7714 86.5267C91.4721 86.2716 91.9516 85.6521 92.0228 84.9098L92.6496 78.3699C92.6534 78.3284 92.6752 78.2905 92.709 78.2658C97.0132 75.1207 99.5828 70.0647 99.5828 64.7412C99.5828 60.2254 97.812 55.9921 94.5963 52.8211C91.3813 49.6505 87.1295 47.939 82.6038 48.0019C78.2415 48.0627 74.1269 49.8082 71.0179 52.9173C67.9088 56.0264 66.1632 60.141 66.1025 64.5032C66.0396 69.0218 67.7511 73.2807 70.9216 76.4957C74.0927 79.7113 78.3262 81.4821 82.8417 81.4821C83.2201 81.4821 83.603 81.4693 83.9794 81.444C84.0204 81.4415 84.0595 81.4562 84.0892 81.4854ZM82.8419 79.3431C78.903 79.3431 75.2105 77.7985 72.4444 74.9937C69.6789 72.1894 68.1861 68.4743 68.241 64.5326C68.2938 60.7303 69.8172 57.1422 72.5301 54.4292C75.243 51.7162 78.8312 50.1931 82.6334 50.14C86.5723 50.087 90.2903 51.5779 93.0945 54.3435C95.8993 57.1095 97.444 60.802 97.444 64.7409C97.444 69.3845 95.2021 73.7949 91.4469 76.5389C90.9204 76.9239 90.5826 77.5167 90.5204 78.1657L89.9383 84.2389L85.5885 79.9607C85.1601 79.5393 84.5838 79.3048 83.9879 79.3048C83.9375 79.3048 83.8867 79.3065 83.8359 79.3099C83.5073 79.3319 83.1727 79.3431 82.8419 79.3431Z" fill="black"/>
<path d="M134.74 103.043L129.474 73.5628C129.062 71.2553 127.061 69.5806 124.718 69.5806H121.379C120.821 68.6189 120.059 67.791 119.15 67.1564L120.427 63.6502C120.77 62.7091 120.282 61.6644 119.341 61.3215L117.516 60.6574L119.525 55.138C119.868 54.1967 119.383 53.1572 118.442 52.8144L114.562 51.4025C113.621 51.0598 112.581 51.5443 112.239 52.4859L110.23 58.0051L108.405 57.3408C107.465 56.9987 106.421 57.485 106.077 58.4261L98.0301 80.5346C97.6879 81.476 98.1748 82.5206 99.1157 82.8632L99.3605 82.9523L98.4247 85.5231C98.2529 85.9955 98.2752 86.5063 98.4875 86.9619C98.6999 87.4174 99.077 87.763 99.5492 87.9348L106.459 90.4499C106.67 90.5263 106.887 90.5644 107.104 90.5644C107.375 90.5644 107.645 90.5051 107.898 90.3872C108.354 90.1747 108.699 89.7976 108.871 89.3254L109.807 86.7533L110.051 86.842C110.254 86.9161 110.464 86.953 110.674 86.953C111.399 86.953 112.106 86.5088 112.38 85.7572L114.143 80.9146C117.23 81.1895 120.07 79.5796 121.485 76.9714C121.742 77.1132 121.916 77.386 121.916 77.6992V85.9302C121.916 86.5207 122.394 86.9995 122.985 86.9995C123.576 86.9995 124.054 86.5207 124.054 85.9302V77.699C124.054 76.4668 123.3 75.4079 122.229 74.9589C122.339 74.4459 122.398 73.9146 122.398 73.3692C122.398 72.8024 122.333 72.2508 122.215 71.7193H124.717C126.024 71.7193 127.139 72.6529 127.369 73.9391L132.634 103.419C133.054 105.766 132.416 108.16 130.885 109.989C129.354 111.817 127.109 112.866 124.725 112.866C123.674 112.866 98.2067 112.866 97.1571 112.866V104.212C97.5968 104.212 115.129 104.212 119.157 104.212C121.857 104.212 124.055 102.015 124.055 99.3141V90.9206C124.055 90.33 123.576 89.8512 122.985 89.8512C122.395 89.8512 121.916 90.33 121.916 90.9206V99.3141C121.916 100.835 120.678 102.073 119.157 102.073H117.174V98.2669C117.174 97.2841 116.375 96.4847 115.392 96.4847H92.2952C91.3124 96.4847 90.5129 97.2841 90.5129 98.2669V102.43C90.5129 103.413 91.3124 104.212 92.2952 104.212H95.0185V112.866H85.4404C84.4576 112.866 83.6582 113.665 83.6582 114.648V119.218C83.6582 120.201 84.4576 121 85.4404 121H93.5925C94.1832 121 94.6618 120.521 94.6618 119.931C94.6618 119.34 94.1832 118.861 93.5925 118.861H85.7969V115.004C89.3359 115.004 118.72 115.005 121.891 115.005V118.861H98.5827C97.992 118.861 97.5134 119.34 97.5134 119.931C97.5134 120.521 97.992 121 98.5827 121H122.247C123.23 121 124.029 120.201 124.029 119.218V115.005H124.725C127.744 115.005 130.587 113.677 132.525 111.362C134.463 109.047 135.27 106.014 134.74 103.043ZM114.137 53.5236L117.404 54.7126L115.506 59.9258L112.239 58.7365L114.137 53.5236ZM106.949 88.3522L100.522 86.0129L101.37 83.6833L107.798 86.0219L106.949 88.3522ZM110.481 84.7221C108.609 84.041 101.423 81.4266 100.15 80.9635L107.977 59.4608C108.934 59.8093 118.307 63.2213 118.307 63.2213L117.228 66.1864C116.471 65.9322 115.662 65.7923 114.821 65.7923C110.643 65.7923 107.244 69.1914 107.244 73.3693C107.244 76.5686 109.238 79.3093 112.048 80.4185L110.481 84.7221ZM114.821 78.8077C111.822 78.8077 109.383 76.368 109.383 73.3693C109.383 70.3706 111.822 67.931 114.821 67.931C117.82 67.931 120.259 70.3706 120.259 73.3693C120.259 76.368 117.82 78.8077 114.821 78.8077ZM92.6516 98.6231H115.036V102.073C114.913 102.073 96.1707 102.073 92.6516 102.073V98.6231Z" fill="black"/>
<path d="M114.821 70.1306C113.035 70.1306 111.582 71.5833 111.582 73.3691C111.582 75.1549 113.035 76.6077 114.821 76.6077C116.607 76.6077 118.059 75.1549 118.059 73.3691C118.059 71.5833 116.607 70.1306 114.821 70.1306ZM114.821 74.4691C114.214 74.4691 113.721 73.9758 113.721 73.3693C113.721 72.7628 114.214 72.2694 114.821 72.2694C115.427 72.2694 115.921 72.7628 115.921 73.3693C115.921 73.9758 115.427 74.4691 114.821 74.4691Z" fill="black"/>
<path d="M89.4891 63.703C91.3305 63.703 92.8286 62.2049 92.8286 60.3635C92.8286 58.5221 91.3305 57.024 89.4891 57.024C87.6477 57.024 86.1497 58.5221 86.1497 60.3635C86.1497 62.2049 87.6477 63.703 89.4891 63.703ZM89.4891 59.1627C90.1513 59.1627 90.6899 59.7014 90.6899 60.3635C90.6899 61.0256 90.1513 61.5643 89.4891 61.5643C88.827 61.5643 88.2883 61.0256 88.2883 60.3635C88.2883 59.7014 88.827 59.1627 89.4891 59.1627Z" fill="black"/>
<path d="M75.18 61.252C73.3386 61.252 71.8406 62.75 71.8406 64.5914C71.8406 66.4328 73.3386 67.9309 75.18 67.9309C77.0214 67.9309 78.5196 66.4328 78.5196 64.5914C78.5196 62.75 77.0214 61.252 75.18 61.252ZM75.18 65.7922C74.5179 65.7922 73.9792 65.2536 73.9792 64.5914C73.9792 63.9293 74.5179 63.3906 75.18 63.3906C75.8423 63.3906 76.381 63.9293 76.381 64.5914C76.381 65.2536 75.8423 65.7922 75.18 65.7922Z" fill="black"/>
<path d="M91.6408 68.2654L90.0118 69.8942C89.5941 70.3118 89.5941 70.9887 90.0117 71.4064C90.2206 71.6152 90.4942 71.7196 90.7679 71.7196C91.0415 71.7196 91.3153 71.6152 91.524 71.4064L93.153 69.7775C93.5707 69.3599 93.5707 68.683 93.1531 68.2654C92.7355 67.8477 92.0582 67.8477 91.6408 68.2654Z" fill="black"/>
<path d="M81.0272 55.2587C80.6097 54.8409 79.9326 54.8411 79.515 55.2587L77.8862 56.8875C77.4686 57.3051 77.4686 57.9822 77.8863 58.3997C78.0951 58.6086 78.3688 58.7129 78.6424 58.7129C78.916 58.7129 79.1898 58.6086 79.3987 58.3997L81.0275 56.7709C81.4449 56.3533 81.4449 55.6763 81.0272 55.2587Z" fill="black"/>
<path d="M84.4123 64.1781L82.7835 62.5493C82.3659 62.1317 81.6888 62.1317 81.2713 62.5493C80.8536 62.9669 80.8536 63.6439 81.2712 64.0615L82.9 65.6903C83.1089 65.8992 83.3825 66.0035 83.6562 66.0035C83.9299 66.0035 84.2036 65.8992 84.4123 65.6903C84.83 65.2728 84.83 64.5957 84.4123 64.1781Z" fill="black"/>
<path d="M81.4396 71.078L79.8107 72.7068C79.3931 73.1245 79.3931 73.8016 79.8109 74.219C80.0196 74.4279 80.2934 74.5323 80.567 74.5323C80.8406 74.5323 81.1143 74.4279 81.3232 74.219L82.952 72.5902C83.3697 72.1726 83.3696 71.4955 82.9519 71.078C82.5343 70.6603 81.8572 70.6604 81.4396 71.078Z" fill="black"/>
</g>
<defs>
<filter id="filter0_d_60_1797" x="0" y="0" width="201" height="226" filterUnits="userSpaceOnUse" color-interpolation-filters="sRGB">
<feFlood flood-opacity="0" result="BackgroundImageFix"/>
<feColorMatrix in="SourceAlpha" type="matrix" values="0 0 0 0 0 0 0 0 0 0 0 0 0 0 0 0 0 0 127 0" result="hardAlpha"/>
<feOffset dy="2"/>
<feGaussianBlur stdDeviation="9"/>
<feColorMatrix type="matrix" values="0 0 0 0 0.160784 0 0 0 0 0.160784 0 0 0 0 0.160784 0 0 0 0.1 0"/>
<feBlend mode="normal" in2="BackgroundImageFix" result="effect1_dropShadow_60_1797"/>
<feBlend mode="normal" in="SourceGraphic" in2="effect1_dropShadow_60_1797" result="shape"/>
</filter>
</defs>
</svg>
